<?xml version="1.0" encoding="utf-8"?>
<!-- Generator: Adobe Illustrator 24.3.0, SVG Export Plug-In . SVG Version: 6.00 Build 0)  -->
<svg version="1.1" id="jjglyph" xmlns="http://www.w3.org/2000/svg" xmlns:xlink="http://www.w3.org/1999/xlink" x="0px" y="0px"
	 viewBox="0 0 544 544" style="enable-background:new 0 0 544 544;" xml:space="preserve">
<style type="text/css">
	<!-- .jjglyphBg{fill:none;}
	.jjglyphAccent{fill:#03A9F4;}
	.jjglyphFg{fill:#FFFFFF;} -->
</style>
<g id="jjBg">
	<g>
		<path class="jjglyphBg" d="M507.4,540H33.6c-17.1,0-31.1-12.3-31.1-27.2V31.2c0-14.9,14-27.3,31.1-27.3h473.9
			c17.1,0,31.1,12.3,31.1,27.3v481.5C538.5,527.7,524.5,540,507.4,540z"/>
	</g>
</g>
<g>
	<g id="jjAccentLeft">
		<path class="jjglyphAccent" d="M246,206.6c0-6.3,0-10,0-10H121v60h10v-50H246z"/>
		<path class="jjglyphAccent" d="M196,266.7v90c0,14.3-9.3,30-30,30c-8.3,0-15-3.2-20-7L110,424.2c-4.2-2.2-8.3-4.8-11.9-7.6l38-47
			c5,3.8,11.8,7,20,7c20.7,0,30-15.7,30-30v-70h-45v-10H196z"/>
		<path class="jjglyphAccent" d="M193.9,159.9c-3.7-5.7-5.9-12.9-5.9-21.5c0-36.1,37.7-46.3,60-31.6c-17.9-27.5-70-20.9-70,21.6
			C178,143.2,184.6,153.7,193.9,159.9z"/>
		<path class="jjglyphAccent" d="M407,206.6c0-6.3,0-10,0-10H282v60h10v-50H407z"/>
		<path class="jjglyphAccent" d="M357,266.7v90c0,14.3-9.3,30-30,30c-8.3,0-15-3.2-20-7L271,424.2c-4.2-2.2-8.3-4.8-11.9-7.6l38-47
			c5,3.8,11.8,7,20,7c20.7,0,30-15.7,30-30v-70h-45v-10H357z"/>
		<path class="jjglyphAccent" d="M354.9,159.9c-3.7-5.7-5.9-12.9-5.9-21.5c0-36.1,37.7-46.3,60-31.6c-17.9-27.5-70-20.9-70,21.6
			C339,143.2,345.6,153.7,354.9,159.9z"/>
	</g>
	<g id="jjAccentRight">
		<path class="jjglyphAccent" d="M266,216.6h-10c0,33.4,0,139.4,0,140c0,22-5.7,44.2-20,60c-16.2,18.1-44.1,30.1-70,30
			c-13.1,0-30.8-4.3-46-12.4l-2,2.4c17,13,41.2,20,58,20c25.9,0.1,53.8-11.9,70-30c14.3-15.8,20-38,20-60
			C266,365.9,266,216.6,266,216.6z"/>
		<path class="jjglyphAccent" d="M203.9,169.9c17.9,27.5,70.1,20.7,70.1-21.5c0-14.8-6.6-25.4-16-31.6c3.7,5.7,6,12.9,6,21.6
			C264,174.3,226.2,184.6,203.9,169.9z"/>
		<path class="jjglyphAccent" d="M417,356.6c0,22-5.7,44.2-20,60c-16.2,18.1-44.1,30.1-70,30c-13.1,0-30.8-4.3-46-12.4l-2,2.4
			c17,13,41.2,20,58,20c25.9,0.1,53.8-11.9,70-30c14.3-15.8,20-38,20-60c0-0.7,0-150,0-150h-10C417,250.1,417,356.1,417,356.6z"/>
		<path class="jjglyphAccent" d="M364.9,169.9c17.9,27.5,70.1,20.7,70.1-21.5c0-14.8-6.6-25.4-16-31.6c3.7,5.7,6,12.9,6,21.6
			C425,174.3,387.2,184.6,364.9,169.9z"/>
	</g>
	<g id="jjfg">
		<g>
			<path class="jjglyphFg" d="M236,416.6c14.3-15.8,20-38,20-60c0-0.6,0-106.6,0-140c0-6.3,0-10,0-10h-10H131v50v10h10h55v10v79.8v0.2
				c0,14.3-9.3,30-30,30c-8.2,0-15-3.2-20-7l-36,44.6l-2,2.4c3.7,2.8,7.7,5.3,12,7.6c15.2,8.1,32.9,12.4,46,12.4
				C191.9,446.7,219.8,434.7,236,416.6z"/>
		</g>
		<g>
			<path class="jjglyphFg" d="M188,138.4c0,8.6,2.2,15.8,5.9,21.5c2.7,4.1,6.1,7.4,10,10c22.3,14.7,60.1,4.4,60.1-31.5
				c0-8.6-2.3-15.8-6-21.6c-2.7-4.1-6.1-7.4-10-10C225.7,92.1,188,102.3,188,138.4z"/>
		</g>
		<g>
			<path class="jjglyphFg" d="M397,416.6c14.3-15.8,20-38,20-60c0-0.6,0-106.6,0-140c0-6.3,0-10,0-10h-10H292v50v10h10h55v10v79.8v0.2
				c0,14.3-9.3,30-30,30c-8.2,0-15-3.2-20-7l-36,44.6l-2,2.4c3.7,2.8,7.7,5.3,12,7.6c15.2,8.1,32.9,12.4,46,12.4
				C352.9,446.7,380.8,434.7,397,416.6z"/>
		</g>
		<g>
			<path class="jjglyphFg" d="M349,138.4c0,8.6,2.2,15.8,5.9,21.5c2.7,4.1,6.1,7.4,10,10c22.3,14.7,60.1,4.4,60.1-31.5
				c0-8.6-2.3-15.8-6-21.6c-2.7-4.1-6.1-7.4-10-10C386.7,92.1,349,102.3,349,138.4z"/>
		</g>
	</g>
</g>
</svg>
