<?xml version="1.0" encoding="utf-8"?>
<svg version="1.1" id="Layer_1" xmlns="http://www.w3.org/2000/svg" xmlns:xlink="http://www.w3.org/1999/xlink" x="0px" y="0px"
	 viewBox="0 0 24 24" style="enable-background:new 0 0 24 24;" xml:space="preserve">
<style type="text/css">
	.st0{fill:none;}
</style>
<g>
	<g>
		<path class="st0" d="M19.1,6.1c0,0,0-0.1-0.1-0.1h-1.6c0,0-0.1,0-0.1,0.1v2.7c-0.2,0-0.3,0-0.5,0c-2.5,0-4,1.8-4,4.2
			c0,2.7,1.5,4.1,3.7,4c0.8,0,1.7-0.2,2.6-0.6c0.1,0,0.1,0,0.1-0.1c0-0.4,0-0.7,0-1V6.1z"/>
		<path d="M19.8,0.3H4.3C1.9,0.3,0,2.2,0,4.5v14.9c0,2.3,1.9,4.3,4.3,4.3h15.5c2.3,0,4.3-1.9,4.3-4.3V4.5C24,2.2,22.1,0.3,19.8,0.3z
			 M12.2,16.8h-1.7c-0.1,0-0.2,0-0.2-0.1c-0.6-1.3-1.3-2.6-2-4.1h0c-0.6,1.3-1.3,2.8-1.9,4.1c-0.1,0.1-0.1,0.1-0.2,0.1H4.6
			c-0.1,0-0.1-0.1-0.1-0.1l2.7-5.2L4.6,6.1C4.5,6.1,4.6,6,4.7,6h1.7c0.1,0,0.1,0,0.2,0.1c0.6,1.3,1.3,2.7,1.9,4h0
			c0.6-1.3,1.2-2.7,1.8-4C10.3,6,10.4,6,10.5,6h1.6c0.1,0,0.1,0.1,0.1,0.1l-2.7,5.1l2.8,5.4C12.3,16.7,12.3,16.8,12.2,16.8z
			 M19.1,16.3c-0.8,0.4-1.7,0.6-2.6,0.6c-2.2,0-3.7-1.3-3.7-4c0-2.3,1.5-4.2,4-4.2c0.2,0,0.3,0,0.5,0V6.1c0-0.1,0-0.1,0.1-0.1H19
			c0.1,0,0.1,0,0.1,0.1v9.2c0,0.3,0,0.6,0,1C19.1,16.3,19.1,16.3,19.1,16.3z"/>
	</g>
	<path d="M14.6,12.8c0,1.8,0.9,2.6,2,2.6c0.2,0,0.5,0,0.7-0.1v-5c-0.1-0.1-0.3-0.1-0.6-0.1C15.5,10.2,14.6,11.2,14.6,12.8z"/>
</g>
</svg>
