<?xml version="1.0" encoding="utf-8"?>
<!-- Generator: Adobe Illustrator 24.2.0, SVG Export Plug-In . SVG Version: 6.00 Build 0)  -->
<svg version="1.1" id="Layer_1" xmlns="http://www.w3.org/2000/svg" xmlns:xlink="http://www.w3.org/1999/xlink" x="0px" y="0px"
	 viewBox="0 0 24 24" style="enable-background:new 0 0 24 24;" xml:space="preserve">
<g>
	<path d="M14.6,10.3c-1.3,0-2.2,1-2.2,2.6c0,1.9,0.9,2.6,2.1,2.6c0.2,0,0.5,0,0.7-0.1v-5.1h0C15,10.3,14.8,10.3,14.6,10.3z"/>
	<path d="M19.8,0.3H4.3C1.9,0.3,0,2.2,0,4.5v14.9c0,2.3,1.9,4.3,4.3,4.3h15.5c2.3,0,4.3-1.9,4.3-4.3V4.5C24,2.2,22.1,0.3,19.8,0.3z
		 M8.8,16.9c0,0.1,0,0.1-0.1,0.1H7.1C7,17,7,16.9,7,16.9V6.1C7,6,7,6,7.1,6h1.6c0.1,0,0.1,0,0.1,0.1V16.9z M17,16.5
		c-0.9,0.4-1.8,0.6-2.6,0.6c-2.2,0-3.8-1.4-3.8-4.2h0c0-2.4,1.6-4.3,4.1-4.3c0.2,0,0.3,0,0.5,0V6.1C15.2,6,15.2,6,15.3,6h1.6
		C17,6,17,6,17,6.1v9.4c0,0.3,0,0.6,0,1C17,16.5,17,16.5,17,16.5z"/>
</g>
</svg>
