<?xml version="1.0" encoding="utf-8"?>
<!-- Generator: Adobe Illustrator 24.3.0, SVG Export Plug-In . SVG Version: 6.00 Build 0)  -->
<svg version="1.1" xmlns="http://www.w3.org/2000/svg" xmlns:xlink="http://www.w3.org/1999/xlink" x="0px" y="0px"
	 viewBox="0 0 240 234" style="enable-background:new 0 0 240 234;" xml:space="preserve">
<style type="text/css">
	.themeUiCircle{fill:none;}
	.themeUiText{fill:none;}
</style>
<g id="Layer_2">
</g>
<g id="Layer_1" focusable="false">
	<g>
		<path class="themeUiCircle" d="M120,3.9C56.6,3.9,5.2,54.5,5.2,117S56.6,230.1,120,230.1S234.8,179.5,234.8,117S183.4,3.9,120,3.9z
			 M133.4,122.4c0.2,16.6-12.4,26.6-29.4,26.6c-18.6,0-29.7-7.1-30.2-26.6c0,0,0-37.1,0-37.1H93v37.9c-0.1,6.7,4,10.9,10.6,10.8
			c6.7,0,10.7-4.1,10.6-10.8c0,0,0-37.9,0-37.9h19.2V122.4z M166.2,147.6h-19.3V85.4h19.3V147.6z"/>
		<path class="themeUiText" d="M114.3,123.3c0.1,6.7-3.9,10.8-10.6,10.8c-6.7,0-10.7-4.1-10.6-10.8V85.4H73.8c0,0,0,37.1,0,37.1
			c0.5,19.5,11.7,26.6,30.2,26.6c17,0,29.6-10,29.4-26.6V85.4h-19.2C114.3,85.4,114.3,123.3,114.3,123.3z"/>
		<rect class="themeUiText" x="146.9" y="85.4" class="st1" width="19.3" height="62.2"/>
	</g>
</g>
</svg>
