<?xml version="1.0" encoding="utf-8"?>
<svg id="Layer_17" xmlns="http://www.w3.org/2000/svg" viewBox="0 0 200 300"><style type="text/css">.st71{fill:#0acf83}.st72{fill:#a259ff}.st73{fill:#f24e1e}.st74{fill:#ff7262}.st75{fill:#1abcfe}</style><title>Figma.logo</title><path id="path0_fill" class="st71" d="M50 300c27.6 0 50-22.4 50-50v-50H50c-27.6 0-50 22.4-50 50s22.4 50 50 50z"/><path id="path1_fill" class="st72" d="M0 150c0-27.6 22.4-50 50-50h50v100H50c-27.6 0-50-22.4-50-50z"/><path id="path1_fill_1_" class="st73" d="M0 50C0 22.4 22.4 0 50 0h50v100H50C22.4 100 0 77.6 0 50z"/><path id="path2_fill" class="st74" d="M100 0h50c27.6 0 50 22.4 50 50s-22.4 50-50 50h-50V0z"/><path id="path3_fill" class="st75" d="M200 150c0 27.6-22.4 50-50 50s-50-22.4-50-50 22.4-50 50-50 50 22.4 50 50z"/></svg>