<?xml version="1.0" encoding="utf-8"?><svg id="Layer_1" data-name="Layer 1" xmlns="http://www.w3.org/2000/svg" xmlns:xlink="http://www.w3.org/1999/xlink" viewBox="0 0 85 85"><title>skill</title><g id="Pattern"><g class="cls-2"><polygon class="cls-3" points="50.73 34.82 45.49 38.27 40.24 34.82 40.24 28.93 45.49 25.48 50.73 28.93 50.73 34.82"/><polygon class="cls-3" points="45.12 45.44 39.88 48.9 34.63 45.44 34.63 39.56 39.88 36.1 45.12 39.56 45.12 45.44"/><polygon class="cls-3" points="51.09 14.85 45.85 18.3 45.85 24.19 51.09 27.64 56.34 24.19 56.34 18.3 51.09 14.85"/><polygon class="cls-3" points="50.37 56.07 45.12 59.52 39.88 56.07 39.88 50.18 45.12 46.73 50.37 50.18 50.37 56.07"/><polygon class="cls-3" points="34.63 60.81 34.63 66.69 39.88 70.15 45.12 66.69 45.12 60.81 39.88 57.36 34.63 60.81"/><polygon class="cls-3" points="51.6 50.18 51.6 56.07 56.84 59.52 62.09 56.07 62.09 50.18 56.84 46.73 51.6 50.18"/><polygon class="cls-3" points="22.91 39.56 22.91 45.44 28.16 48.9 33.4 45.44 33.4 39.56 28.16 36.1 22.91 39.56"/></g></g></svg>