<?xml version="1.0" encoding="utf-8"?>

<svg version="1.1" id="Layer_1" xmlns="http://www.w3.org/2000/svg" xmlns:xlink="http://www.w3.org/1999/xlink" x="0px" y="0px"
	 viewBox="0 0 240 234" style="enable-background:new 0 0 240 234;" xml:space="preserve">
<style type="text/css">
	.sg8{fill:#103F91;}
	.sg9{fill:#41A5EE;}
	.sg10{fill:#185ABD;}
	.sg11{fill:#2B7CD3;}
	.sg12{opacity:0.2;enable-background:new;}
	.sg13{opacity:0.1;enable-background:new;}
	.sg14{fill:#FFFFFF;}
</style>
<g>
	<path class="sg8" d="M66.7,222.2h163.6c5.6,0,10.2-4.6,10.2-10.2v-42.4h-184v42.4C56.5,217.6,61,222.2,66.7,222.2z"/>
	<path class="sg9" d="M230.3,11.8H66.7c-5.6,0-10.2,4.6-10.2,10.2l0,0v42.4h184V22.1C240.5,16.4,235.9,11.8,230.3,11.8z"/>
	<rect x="56.5" y="117" class="sg10" width="184" height="52.6"/>
	<rect x="56.5" y="64.4" class="sg11" width="184" height="52.6"/>
	<path class="sg12" d="M126.6,65.9v115.4c0,0.6,0,1.2-0.2,1.8c-0.8,4.9-5.1,8.5-10,8.5H56.5V55.7h59.9
		C122,55.6,126.6,60.2,126.6,65.9C126.6,65.8,126.6,65.9,126.6,65.9z"/>
	<path class="sg13" d="M131,65.9v106.7c-0.1,8-6.6,14.5-14.6,14.6H56.5V51.3h59.9C124.4,51.3,130.9,57.8,131,65.9z"/>
	<path class="sg12" d="M126.6,65.9v106.7c0,5.6-4.5,10.2-10.2,10.2c0,0,0,0,0,0H56.5V55.7h59.9C122,55.6,126.6,60.2,126.6,65.9
		C126.6,65.8,126.6,65.9,126.6,65.9z"/>
	<path class="sg13" d="M122.2,65.9v106.7c0,5.6-4.5,10.2-10.2,10.2c0,0,0,0,0,0H56.5V55.7H112C117.6,55.6,122.2,60.2,122.2,65.9
		C122.2,65.8,122.2,65.9,122.2,65.9z"/>
	<path class="sg10" d="M9.7,55.7H112c5.6,0,10.2,4.6,10.2,10.2v102.2c0,5.6-4.6,10.2-10.2,10.2H9.7c-5.6,0-10.2-4.6-10.2-10.2V65.9
		C-0.5,60.2,4.1,55.7,9.7,55.7z"/>
	<path class="sg14" d="M41.5,134.1c0.2,1.6,0.3,3,0.4,4.1h0.2c0.1-1.1,0.3-2.5,0.5-4c0.3-1.6,0.5-2.9,0.8-4l10.8-46.4H68l11.1,45.7
		c0.7,2.8,1.1,5.7,1.4,8.6h0.2c0.2-2.8,0.6-5.6,1.2-8.3l8.9-46h12.7l-15.6,66.5H73.1l-10.6-44c-0.3-1.3-0.7-2.9-1-5
		c-0.4-2-0.6-3.5-0.7-4.4h-0.2c-0.1,1.1-0.4,2.7-0.7,4.8c-0.4,2.1-0.6,3.7-0.9,4.7l-10,43.9H34L18.3,83.8h12.9l9.7,46.5
		C41,131.2,41.2,132.5,41.5,134.1z"/>
</g>
</svg>
