<?xml version="1.0" encoding="utf-8"?>

<svg version="1.1" id="Layer_1" xmlns="http://www.w3.org/2000/svg" xmlns:xlink="http://www.w3.org/1999/xlink" x="0px" y="0px"
	 viewBox="0 0 240 234" style="enable-background:new 0 0 240 234;" xml:space="preserve">
<style type="text/css">
	.st24{stroke-width:6.672;stroke-miterlimit:10;}
</style>
<g>
	<path class="st24" d="M119.1,140.9L119.1,140.9c-0.2,0.1-0.3,0.1-0.5,0.1C118.8,141,119,141,119.1,140.9z"/>
	<path class="st24" d="M119.1,140.9L119.1,140.9c-0.2,0.1-0.3,0.1-0.5,0.1C118.8,141,119,141,119.1,140.9z"/>
	<path class="st24" d="M118.7,141.1c0.2,0,0.3-0.1,0.5-0.1v0C119,141,118.8,141,118.7,141.1z"/>
	<path class="st24" d="M207.5,156.2c-3.5,0-6.6,1.3-9.1,3.4l-60.1-37c3.1-7.8,2.5-17.5-1.4-24.9l42.8-42.8
		c26.8,16.6,54.8-20.2,31.5-41.6c-23.3-20.8-57,9.9-38.6,35l-41.5,41.5c-14.3-15-41.5-9.9-49.5,9.2c-9.4,19.3,6.3,43.8,27.7,43.3
		l10,35.4c-29,14.4-9.7,59.1,20.7,48c28.4-10.5,18.7-53.4-11.4-50.6l-9.6-34.2c-0.2,0-0.3,0.1-0.5,0.1c5.8-1.8,11.1-5.3,14.9-10.1
		l60.3,37.2c-1.1,8.1,5.4,15.6,13.6,15.5C225.5,183.6,225.5,156.3,207.5,156.2z M193.8,13.9c24.8,0.4,24.8,37.3,0,37.7
		C169,51.2,169,14.4,193.8,13.9z M131.2,182.3c24.8,0.4,24.8,37.3,0,37.7C106.4,219.6,106.4,182.7,131.2,182.3z M126.3,128.2
		c-22.1,21.4-54.4-11-33.1-33.1C115.3,73.8,147.6,106.2,126.3,128.2z"/>
	<path class="st24" d="M46.5,47.8c-0.1-18-27.4-18-27.5,0C19.1,65.8,46.4,65.8,46.5,47.8z"/>
	<path class="st24" d="M46.5,156.2c-18,0.1-18,27.4,0,27.5C64.4,183.6,64.4,156.3,46.5,156.2z"/>
	<path class="st24" d="M52.6,71.7l18.5,14c2,1.7,5.1,1.4,6.8-0.7c1.7-2.1,1.4-5.1-0.7-6.8l-18.5-14C54,60.2,47.7,67.7,52.6,71.7z"/>
	<path class="st24" d="M70.9,140l-8.2,6.6c-3.4,2.8-1.1,8.6,3.2,8.5c2.5,0.9,9.3-6.6,11.3-7.8C82.1,143.2,75.6,135.8,70.9,140z"/>
</g>
</svg>
