<?xml version="1.0" encoding="utf-8"?>
<!-- Generator: Adobe Illustrator 24.3.0, SVG Export Plug-In . SVG Version: 6.00 Build 0)  -->
<svg version="1.1" id="Layer_1" xmlns="http://www.w3.org/2000/svg" xmlns:xlink="http://www.w3.org/1999/xlink" x="0px" y="0px"
	 viewBox="0 0 240 234" style="enable-background:new 0 0 240 234;" xml:space="preserve">
<style type="text/css">
	.sg15{fill:#878787;}
	.sg16{display:none;}
	.sg17{display:inline;}
	.sg18{fill:none;}
	.sg19{fill:#100E47;}
	.sg20{fill:#0000FF;}
	.sg21{fill:#ED1C24;}
	.sg22{fill:#FFFF00;}
</style>
<path class="sg15" d="M155.7,187.8c-4.7-3.3-10-4.7-15.1-4.6h-0.1l-20.3-84.7l-9.7,2.3l20.3,84.7c-3.8,1.8-7.2,4.5-9.8,8.2
	c-8,11.3-5.2,26.9,6,34.8c11.3,8,26.7,5.3,34.7-6C169.7,211.3,167,195.7,155.7,187.8z M153.6,216.9c-4.8,6.8-14.1,8.4-20.9,3.6
	c-6.8-4.8-8.4-14.1-3.6-20.9c1.2-1.6,2.5-2.9,4.1-3.9l0,0c2.9-1.8,6.3-2.6,9.7-2.3c2.5,0.3,4.8,1.1,7.1,2.6
	C156.8,200.8,158.4,210.1,153.6,216.9z"/>
<g id="Layer_1_1_" class="sg16">
	<g class="sg17">
		<path d="M119.1,140.9L119.1,140.9c-0.2,0.1-0.3,0.1-0.5,0.1C118.8,141,119,141,119.1,140.9z"/>
		<path d="M119.1,140.9L119.1,140.9c-0.2,0.1-0.3,0.1-0.5,0.1C118.8,141,119,141,119.1,140.9z"/>
		<path d="M118.7,141.1c0.2,0,0.3-0.1,0.5-0.1l0,0C119,141,118.8,141,118.7,141.1z"/>
		<path d="M207.5,156.2c-3.5,0-6.6,1.3-9.1,3.4l-60.1-37c3.1-7.8,2.5-17.5-1.4-24.9l42.8-42.8c26.8,16.6,54.8-20.2,31.5-41.6
			c-23.3-20.8-57,9.9-38.6,35l-41.5,41.5c-14.3-15-41.5-9.9-49.5,9.2c-9.4,19.3,6.3,43.8,27.7,43.3l10,35.4
			c-29,14.4-9.7,59.1,20.7,48c28.4-10.5,18.7-53.4-11.4-50.6l-9.6-34.2c-0.2,0-0.3,0.1-0.5,0.1c5.8-1.8,11.1-5.3,14.9-10.1
			l60.3,37.2c-1.1,8.1,5.4,15.6,13.6,15.5C225.5,183.6,225.5,156.3,207.5,156.2z M193.8,13.9c24.8,0.4,24.8,37.3,0,37.7
			C169,51.2,169,14.4,193.8,13.9z M131.2,182.3c24.8,0.4,24.8,37.3,0,37.7C106.4,219.6,106.4,182.7,131.2,182.3z M126.3,128.2
			c-22.1,21.4-54.4-11-33.1-33.1C115.3,73.8,147.6,106.2,126.3,128.2z"/>
		<path d="M46.5,47.8c-0.1-18-27.4-18-27.5,0C19.1,65.8,46.4,65.8,46.5,47.8z"/>
		<path d="M46.5,156.2c-18,0.1-18,27.4,0,27.5C64.4,183.6,64.4,156.3,46.5,156.2z"/>
		<path d="M52.6,71.7l18.5,14c2,1.7,5.1,1.4,6.8-0.7c1.7-2.1,1.4-5.1-0.7-6.8l-18.5-14C54,60.2,47.7,67.7,52.6,71.7z"/>
		<path d="M70.9,140l-8.2,6.6c-3.4,2.8-1.1,8.6,3.2,8.5c2.5,0.9,9.3-6.6,11.3-7.8C82.1,143.2,75.6,135.8,70.9,140z"/>
	</g>
</g>
<g id="Layer_2_1_">
	<circle class="sg15" cx="53.6" cy="191.8" r="15.8"/>
	<circle class="sg15" cx="24.4" cy="44.6" r="15.8"/>
	<g>
		<path class="sg18" d="M197.6,36.1l-9.3,10.6c1.7,0.7,3.6,1.1,5.6,1.1c8.3,0,15-6.7,15-15s-6.7-15-15-15s-15,6.7-15,15
			c0,2.6,0.7,5.1,1.9,7.3l9.3-10.6L197.6,36.1z"/>
		<path class="sg15" d="M193.8,7.8c-13.8,0-25,11.2-25,25c0,5.7,1.9,10.9,5,15c0,0,0,0,0,0.1l-57.5,65.3l7.5,6.6l57.6-65.4
			c3.7,2.1,7.9,3.3,12.3,3.3c13.8,0,25-11.2,25-25S207.6,7.8,193.8,7.8z M193.8,47.7c-2,0-3.8-0.4-5.6-1.1c-3.2-1.3-5.8-3.6-7.5-6.6
			c-1.2-2.2-1.9-4.6-1.9-7.3c0-8.3,6.7-15,15-15s15,6.7,15,15S202.1,47.7,193.8,47.7z"/>
	</g>
	<g>
		<path class="sg15" d="M223.7,170.1c0,8.7-7.1,15.8-15.8,15.8c-8.7,0-15.8-7.1-15.8-15.8c0-1.2,0.2-2.2,0.4-3.3l-75.8-45.2l5.1-8.6
			l75.7,45.2c0,0,0,0,0.1-0.1c2.8-2.4,6.4-3.8,10.3-3.8C216.6,154.3,223.7,161.4,223.7,170.1z"/>
	</g>
	<path class="sg15" d="M70.5,177.8c-1.2,0-2.4-0.4-3.3-1.3c-2.1-1.8-2.3-5-0.4-7.1L79,155.7c1.8-2.1,5-2.3,7.1-0.4
		c2.1,1.8,2.3,5,0.4,7.1l-12.2,13.7C73.3,177.3,71.9,177.8,70.5,177.8z"/>
	<path class="sg15" d="M79.6,92.3c-1.1,0-2.1-0.3-3.1-1l-32.2-25c-2.2-1.7-2.6-4.8-0.9-7c1.7-2.2,4.8-2.6,7-0.9l32.2,24.9
		c2.2,1.7,2.6,4.8,0.9,7C82.5,91.6,81.1,92.3,79.6,92.3z"/>
	<g>
		<circle class="sg19" cx="120" cy="117" r="40.5"/>
		<circle class="sg20" cx="120" cy="117" r="29.2"/>
		<circle class="sg21" cx="120" cy="117" r="19.3"/>
		<circle class="sg22" cx="120" cy="117" r="8"/>
	</g>
</g>
</svg>
