<?xml version="1.0" encoding="utf-8"?>
<!-- Generator: Adobe Illustrator 24.3.0, SVG Export Plug-In . SVG Version: 6.00 Build 0)  -->
<svg version="1.1" id="Layer_1" focusable="false" xmlns="http://www.w3.org/2000/svg" xmlns:xlink="http://www.w3.org/1999/xlink"
	 x="0px" y="0px" viewBox="0 0 240 234" style="enable-background:new 0 0 240 234;" xml:space="preserve">
<style type="text/css">
	.st0{fill:none;}
</style>
<g>
	<path d="M156.6,126.7c-1.4,2.9-3,5.8-4.7,8.8c-1.7,2.9-3.4,5.7-5.2,8.5c5.2-0.8,10.2-1.7,14.9-2.9
		C160.2,136.4,158.5,131.5,156.6,126.7z"/>
	<path d="M103.8,145.2c5.3,0.4,10.8,0.7,16.2,0.7c5.5,0,10.9-0.2,16.3-0.7c3-4.3,5.9-8.9,8.7-13.8c2.7-4.8,5.2-9.6,7.5-14.4
		c-2.3-4.9-4.8-9.7-7.5-14.4c-2.8-4.8-5.7-9.4-8.7-13.7c-5.3-0.4-10.8-0.7-16.2-0.7c-5.5,0-10.9,0.2-16.3,0.7
		c-3,4.3-5.9,8.9-8.7,13.8c-2.7,4.7-5.3,9.6-7.5,14.4c2.3,4.9,4.8,9.7,7.5,14.4C97.9,136.3,100.8,140.9,103.8,145.2z M120,100.5
		c9.1,0,16.5,7.4,16.5,16.5s-7.4,16.5-16.5,16.5s-16.5-7.4-16.5-16.5S110.9,100.5,120,100.5z"/>
	<path d="M146.7,90.1c1.8,2.7,3.5,5.5,5.2,8.4s3.2,5.8,4.7,8.7c1.9-4.7,3.6-9.5,4.9-14.2C156.8,91.8,151.9,90.9,146.7,90.1z"/>
	<path d="M163.6,85.1c0.8-3.6,1.4-7.2,1.8-10.6c1.6-13.8-0.5-24.5-5.4-27.3c-1.1-0.6-2.3-0.9-4-0.9h-0.1c-7.5,0-18.5,6-30.2,16.9
		c5.1,5.3,10.1,11.3,15,18C148.8,82,156.5,83.4,163.6,85.1z"/>
	<path d="M93.2,90.1c-5.2,0.8-10.1,1.7-14.9,2.8c1.4,4.7,3.1,9.6,5,14.4c1.5-2.9,3-5.8,4.7-8.7C89.7,95.7,91.4,92.9,93.2,90.1z"/>
	<path d="M120,80.1c3.3,0,6.7,0.2,9.9,0.3c-3.3-4.2-6.6-8-10-11.5c-3.3,3.4-6.7,7.3-9.9,11.5C113.3,80.2,116.6,80.1,120,80.1z"/>
	<path d="M93.2,143.9c-1.7-2.7-3.5-5.4-5.2-8.3c-1.7-2.9-3.2-5.8-4.7-8.7c-1.9,4.7-3.6,9.5-4.9,14.2
		C83.1,142.2,88.1,143.1,93.2,143.9z"/>
	<path d="M120,4.5C55.9,4.5,4,54.9,4,117s51.9,112.5,116,112.5S236,179.1,236,117S184.1,4.5,120,4.5z M171.6,146.8
		c5.2,22.8,2.9,41.1-7.2,46.9c-2.4,1.4-5.2,2-8.2,2c-9.9,0-22.9-7-36-19.2c-13.1,12.2-26.1,19.3-36,19.3c-3,0-5.8-0.6-8.1-2
		c-10.2-5.8-12.5-24.1-7.3-47c-22.5-6.9-37.2-18-37.2-29.7s14.6-22.8,37-29.7c-5.2-22.8-2.9-41.1,7.2-46.9c2.4-1.4,5.2-2,8.2-2v-0.1
		c9.9,0,22.9,7,36,19.2c6.5-6.1,13.1-10.9,19.2-14.2c6.1-3.3,11.8-5.1,16.7-5.1h0.1c3,0,5.7,0.6,8,2c10.2,5.8,12.5,24.1,7.3,47
		c22.5,6.9,37.2,18,37.2,29.7S193.9,139.8,171.6,146.8z"/>
	<path d="M120,154c-3.3,0-6.7-0.2-9.9-0.3c3.3,4.2,6.6,8,10,11.5c3.3-3.5,6.6-7.3,9.9-11.5C126.7,153.9,123.4,154,120,154z"/>
	<path d="M163.6,148.7c-7,1.8-14.7,3.1-22.9,4c-4.8,6.7-9.8,12.7-14.9,18c11.8,10.8,22.8,16.8,30.3,16.8c1.6,0,3-0.3,4.1-0.9
		c4.9-2.8,7-13.5,5.3-27.3C165.1,156,164.5,152.5,163.6,148.7z"/>
	<path d="M76.5,85.2c7-1.8,14.7-3.1,22.9-4c4.8-6.7,9.8-12.7,14.9-18C102.5,52.4,91.5,46.4,84,46.4v0.1c-1.6,0-3,0.3-4.1,0.9
		c-4.9,2.8-7,13.5-5.3,27.3C75.1,78.1,75.7,81.6,76.5,85.2z"/>
	<path d="M179.4,98.7c-3.1-1.4-6.5-2.6-10.1-3.7c-2,7.1-4.7,14.4-8,21.9c3.3,7.6,6,14.9,8.1,22c3.5-1.1,6.9-2.3,10-3.6
		c12.8-5.4,21-12.6,21-18.3S192.2,104.1,179.4,98.7z"/>
	<path d="M76.4,148.9c-0.8,3.6-1.4,7.2-1.8,10.6C73,173.3,75.1,184,80,186.8c1,0.6,2.4,1,4,0.9c7.5,0,18.5-6,30.3-16.9
		c-5.1-5.3-10.1-11.3-15-18C91.2,152,83.5,150.6,76.4,148.9z"/>
	<path d="M70.6,95.1c-3.5,1.1-6.9,2.3-10,3.6c-12.7,5.5-21,12.6-21,18.3s8.2,12.9,21,18.3c3.1,1.3,6.5,2.5,10.1,3.7
		c2-7.1,4.7-14.4,8-21.9C75.4,109.5,72.7,102.2,70.6,95.1z"/>
</g>
<g>
	<path class="st0" d="M208.5,117c0-11.7-14.7-22.8-37.2-29.7c5.2-22.9,2.9-41.2-7.3-47c-2.3-1.4-5-2-8-2h-0.1
		c-4.9,0-10.6,1.8-16.7,5.1c-6.1,3.3-12.7,8.1-19.2,14.2c-13.1-12.2-26.1-19.2-36-19.2v0.1c-3,0-5.8,0.6-8.2,2
		c-10.1,5.8-12.4,24.1-7.2,46.9c-22.4,6.9-37,18-37,29.7s14.7,22.8,37.2,29.7c-5.2,22.9-2.9,41.2,7.3,47c2.3,1.4,5.1,2,8.1,2
		c9.9,0,22.9-7.1,36-19.3c13.1,12.2,26.1,19.2,36,19.2c3,0,5.8-0.6,8.2-2c10.1-5.8,12.4-24.1,7.2-46.9
		C193.9,139.8,208.5,128.7,208.5,117z M155.9,46.3L155.9,46.3c1.8,0,3,0.3,4.1,0.9c4.9,2.8,7,13.5,5.4,27.3c-0.4,3.4-1,7-1.8,10.6
		c-7.1-1.7-14.8-3.1-22.9-3.9c-4.9-6.7-9.9-12.7-15-18C137.5,52.3,148.4,46.3,155.9,46.3z M88,135.6c1.7,2.9,3.5,5.6,5.2,8.3
		c-5.1-0.8-10.1-1.7-14.8-2.8c1.3-4.7,3-9.5,4.9-14.2C84.8,129.8,86.3,132.7,88,135.6z M78.3,92.9c4.8-1.1,9.7-2,14.9-2.8
		c-1.8,2.8-3.5,5.6-5.2,8.5s-3.2,5.8-4.7,8.7C81.4,102.5,79.7,97.6,78.3,92.9z M87.6,117.1c2.2-4.8,4.8-9.7,7.5-14.4
		c2.8-4.9,5.7-9.5,8.7-13.8c5.4-0.5,10.8-0.7,16.3-0.7c5.4,0,10.9,0.3,16.2,0.7c3,4.3,5.9,8.9,8.7,13.7c2.7,4.7,5.2,9.5,7.5,14.4
		c-2.3,4.8-4.8,9.6-7.5,14.4c-2.8,4.9-5.7,9.5-8.7,13.8c-5.4,0.5-10.8,0.7-16.3,0.7c-5.4,0-10.9-0.3-16.2-0.7
		c-3-4.3-5.9-8.9-8.7-13.7C92.4,126.8,89.9,122,87.6,117.1z M151.9,135.5c1.7-3,3.3-5.9,4.7-8.8c1.9,4.8,3.6,9.7,5,14.4
		c-4.7,1.2-9.7,2.1-14.9,2.9C148.5,141.2,150.2,138.4,151.9,135.5z M151.9,98.5c-1.7-2.9-3.4-5.7-5.2-8.4c5.2,0.8,10.1,1.7,14.8,2.9
		c-1.3,4.7-3,9.5-4.9,14.2C155.1,104.3,153.6,101.4,151.9,98.5z M129.9,80.4c-3.2-0.1-6.6-0.3-9.9-0.3c-3.4,0-6.7,0.1-10,0.3
		c3.2-4.2,6.6-8.1,9.9-11.5C123.3,72.4,126.6,76.2,129.9,80.4z M79.9,47.4c1.1-0.6,2.5-0.9,4.1-0.9v-0.1c7.5,0,18.5,6,30.3,16.8
		c-5.1,5.3-10.1,11.3-14.9,18c-8.2,0.9-15.9,2.2-22.9,4c-0.8-3.6-1.4-7.1-1.9-10.5C72.9,60.9,75,50.2,79.9,47.4z M70.7,139
		c-3.6-1.2-7-2.4-10.1-3.7c-12.8-5.4-21-12.6-21-18.3s8.3-12.8,21-18.3c3.1-1.3,6.5-2.5,10-3.6c2.1,7.1,4.8,14.4,8.1,22
		C75.4,124.6,72.7,131.9,70.7,139z M84,187.7c-1.6,0.1-3-0.3-4-0.9c-4.9-2.8-7-13.5-5.4-27.3c0.4-3.4,1-7,1.8-10.6
		c7.1,1.7,14.8,3.1,22.9,3.9c4.9,6.7,9.9,12.7,15,18C102.5,181.7,91.5,187.7,84,187.7z M120.1,165.2c-3.4-3.5-6.7-7.3-10-11.5
		c3.2,0.1,6.6,0.3,9.9,0.3c3.4,0,6.7-0.1,10-0.3C126.7,157.9,123.4,161.7,120.1,165.2z M160.2,186.6c-1.1,0.6-2.5,0.9-4.1,0.9
		c-7.5,0-18.5-6-30.3-16.8c5.1-5.3,10.1-11.3,14.9-18c8.2-0.9,15.9-2.2,22.9-4c0.9,3.8,1.5,7.3,1.9,10.6
		C167.2,173.1,165.1,183.8,160.2,186.6z M179.4,135.3c-3.1,1.3-6.5,2.5-10,3.6c-2.1-7.1-4.8-14.4-8.1-22c3.3-7.5,6-14.8,8-21.9
		c3.6,1.1,7,2.3,10.1,3.7c12.8,5.4,21,12.6,21,18.3S192.2,129.9,179.4,135.3z"/>
	<circle class="st0" cx="120" cy="117" r="16.5"/>
</g>
</svg>
