<?xml version="1.0" encoding="utf-8"?>

<svg version="1.1" xmlns="http://www.w3.org/2000/svg" xmlns:xlink="http://www.w3.org/1999/xlink" x="0px" y="0px" viewBox="0 0 634.3 392" style="enable-background:new 0 0 634.3 392;" xml:space="preserve">
<style type="text/css">
	.xp1{fill-rule:evenodd;clip-rule:evenodd;fill:#CC2229;}
</style>

<g id="Layer_2">
	<g>
		<path class="xp1" d="M202.3,147.9l-31,73.1h-4.5c5-11,13.2-33.3-7.6-33H13.5c-16.4,0,3.3,17.8,7.3,17h119.5l-1.9,4H19.7
			c-17.9-0.1,1.2,14.7,8.2,15h105.3l-1.1,3H27.5c-18.5,0.7,3.1,15.3,8.1,16h102c4.6,5.2,12.5,8.4,18.7,7h2.9l-4.8,13h11.5l12.4-30
			h47.4l12.1,29.9l10.2,0.3L202.3,147.9z M182.3,221l19.6-48.2l19.2,48.2H182.3z"/>
		<path class="xp1" d="M265.6,263h-14.1l-47.1-119l7.5-17.1L265.6,263z M319,222h-44c3.5,11.4,19.5,15.1,27.5,6h15.1
			c-3.8,11.1-15.9,18.4-27.2,18.4c-16.4,0-29.8-13.4-29.8-30.1c0-17.1,13-31,30-31C311.5,185.3,320.8,203.6,319,222z M305.5,210
			c-2.1-6.7-8.1-10.6-14.9-10.6c-6.5,0-13.2,4.2-15.2,10.6H305.5z M352.1,200c-4.7,0-10.1,2.4-11.3,7.3c-0.4,1.8-0.7,4.2-0.7,7.1
			V244h-13v-55h12v4.4c3.2-4.4,12.2-6.4,12.2-6.4h0.8V200z M415.2,216.5c0,16.5-13.2,29.5-29.4,29.5c-16,0-29-13.3-29-29.5
			c0-16.8,13.1-29.8,29.6-29.8C402.7,186.6,415.2,200.2,415.2,216.5z M402,216.5c0-9.2-7-16.7-16.1-16.7c-8.6,0-15.8,8.1-15.8,16.7
			c0,8.9,6.9,16.5,15.8,16.5C395.1,232.9,402,225.9,402,216.5z M478.1,263h-13v-24.5c-4.3,5.5-9.6,7.8-16.4,7.8
			c-16,0-27.1-14.2-27.1-30c0-15.8,12.6-29.1,27.7-29.1c7,0,13,2.8,16.6,9.1l0.2-7.3h11.9V263z M465.4,216.4
			c0-8.7-6.8-16.6-15.6-16.6c-9.3,0-16.2,6.9-16.2,16.4c0,9.6,6.6,16.8,16.2,16.8C458.8,232.9,465.4,225.3,465.4,216.4z M537.1,244
			h-12v-6c-3,5.4-8.3,7.8-14.3,7.8c-15.2,0-22.7-11.3-22.7-26.1V188h13v27.4c0,2.5,0.1,4.7,0.3,6.4c0.7,6.5,3.9,10.6,10.6,10.6
			c9.7,0,11.1-9,11.1-17.1V188h14V244z M561.1,244h-13v-56h13V244z M629.1,216.4c0,15.9-11.5,29.6-27.6,29.6
			c-6.5,0-16.4-7.8-16.4-7.8V263h-13v-74h12v6.8c3.3-5.8,10.1-8.3,16.7-8.3C617.6,187.4,629.1,200,629.1,216.4z M616,216.3
			c0-8.9-6.9-16.5-15.8-16.5c-9.2,0-16.1,7.3-16.1,16.6c0,9.1,6.6,16.6,15.6,16.6C609,232.9,616,225.7,616,216.3z M554.1,163.2
			c4.8,0,8.7,4,8.7,8.8s-3.9,8.8-8.7,8.8c-4.8,0-8.7-4-8.7-8.8S549.3,163.2,554.1,163.2z"/>
	</g>
</g>
</svg>
