<?xml version="1.0" encoding="utf-8"?>
<svg version="1.1" xmlns="http://www.w3.org/2000/svg" xmlns:xlink="http://www.w3.org/1999/xlink" x="0px" y="0px"
	 viewBox="0 0 634.3 392" style="enable-background:new 0 0 634.3 392;" xml:space="preserve">
<style type="text/css">
	.xp50{fill-rule:evenodd;clip-rule:evenodd;fill:#636363;}
	.xp51{fill-rule:evenodd;clip-rule:evenodd;fill:none;}
	.xp52{fill-rule:evenodd;clip-rule:evenodd;fill:#7C7C7C;}
</style>

<g id="Layer_2">
	<g>
		<path class="xp50" d="M192.8,302c-18.3-3.7-33.5-11.1-38.4-32c10.7,0,21.1,0,31.9,0c6.6,9.1,15.9,10.9,26.2,6.7
			c10.4-4.3,13.4-13.2,12.9-25.4c-9.4,10.4-20.3,13.6-32.9,11.5c-12.4-2.1-22.7-7.7-30.3-17.9c-14.8-19.9-12.2-51.8,5.6-68.3
			c16.3-15.1,41.1-16.3,56.6-2.6c2.9-1,0.4-4.3,3-6.1c7.9,0,16.6,0,26.2,0c-0.7,33.6,1.9,66.9-1.4,100
			c-1.7,16.8-16.9,28.7-36.5,32.5c-2,0.4-3.9,1-5.8,1.5C204.2,302,198.4,302,192.8,302z M203.1,237.1c13.5,0,23.1-9.9,23-23.6
			c-0.2-13.7-10.2-24.2-23-24c-12.6,0.2-22.5,10.6-22.6,23.6C180.4,226.9,190,237.1,203.1,237.1z"/>
		<path class="xp50" d="M32.1,260.7C46,226.8,60,192.9,73.9,159c2.8-6.9,5.6-13.8,8.5-21c8.3,0,16.5,0,25.3,0
			c16.3,41,32.8,82.2,49.4,124c-12,0-22.8,0-34.3,0c-2.2-6-4.3-11.9-6.4-18c-14.6,0-28.3,0-43.2,0c-2.2,6-4.5,12.3-7,19
			c-11.5,0-22.8,0-34,0C32.1,262.5,32.1,261.2,32.1,260.7z M108.2,219.2c-4.2-13.9-8.6-27.8-13.3-43.5c-4.7,15.8-8.8,29.4-13.1,43.6
			C89.4,219.3,106,219.3,108.2,219.2z"/>
		<path class="xp50" d="M601.6,219.9c-0.8,6.7-2.7,13.2-6.2,18.9c-4.7,7.6-11.3,14.7-19.4,18.7c-5,2.5-10.8,4.1-16.3,4.9
			c-27.8,4.3-52.5-12.5-57.6-39.8c-5-26.8,12-52.4,38.5-57.9c10.4-2.1,22.5-1.3,32.3,2.9c13.6,5.9,24.3,18.6,27.8,33
			c1,4,1.6,8.4,1.5,12.5C602,215.4,601.9,217.6,601.6,219.9z M551.8,236.9c12.5-0.1,22.4-10.4,22.5-23.5
			c0.1-12.8-10.1-23.8-22.3-23.9c-12.6-0.2-22.9,10.7-22.7,24.2C529.4,226.9,539.2,237,551.8,236.9z"/>
		<path class="xp50" d="M231.4,90.9c0.7-0.4,0.9-0.5,1.5-0.9c19.4,11.7,40.1,9.9,61.2,6.8c16.4-2.4,31.5,1.4,42.3,14.9
			c9.7,12.2,10.2,26.2,6.6,41.8c-18.8-9.3-37.9-7-57-4.7c-30.6,3.6-54.2-17.3-54.5-48.2C231.4,97.5,231.4,94.2,231.4,90.9z"/>
		<path class="xp50" d="M381.1,222c0,12.9,0,25.2,0,38c-10.2,0-19.9,0-30,0c0-41.2,0-82.2,0-124.1c22.4,0.6,44.5-2.2,66.1,2.6
			c18.5,4.1,29.3,22.3,27.6,44.4c-1.5,20.1-15.5,35.2-35,37.3C400.7,221.3,391.4,221.5,381.1,222z M382.1,193.5
			c11.1-1,22.6,3.4,30.5-7.1c3.8-5.1,3.9-11.6-0.2-16.5c-8.2-9.8-19.5-5.8-30.3-6.6C382.1,173.5,382.1,182.9,382.1,193.5z"/>
		<path class="xp50" d="M501.1,164.8c0,9.2,0,17.6,0,26.4c-1.8,0.5-3.4,1.1-5.1,1.3c-12.7,1.7-16.7,6.1-16.8,19.1
			c-0.1,15.9,0,31.9,0,48.4c-9.1,0-17.8,0-27,0c0-30.5,0-61,0-92c8.3,0,16.3,0,24.8,0c0.3,2.3,0.7,4.6,1.2,8.1
			C484,168,490.9,163.5,501.1,164.8z"/>
		<path class="xp50" d="M261.1,259c0-30.7,0-61.1,0-92c8.5,0,16.7,0,25.1,0c0.3,2.7,0.6,5.2,0.9,8.5c6.5-6.6,13.9-9.1,23-8.4
			c0,7.7,0,15.3,0,23.4c-1.7,0.4-3.7,1-5.6,1.1c-10.9,0.8-16.2,6.6-16.1,17.5c0.1,16.4,0,32.8,0,49.9C279.1,259,270.3,259,261.1,259
			z"/>
		<path class="xp50" d="M318.1,168c9.1,0,17.8,0,27,0c0,30.8,0,61.2,0,92c-9,0-17.7,0-27,0C318.1,229.6,318.1,199.2,318.1,168z"/>
		<path class="xp51" d="M203.1,237.1c-13.1,0-22.7-10.2-22.6-24.1c0.1-13,10-23.4,22.6-23.6c12.7-0.2,22.8,10.3,23,24
			C226.2,227.2,216.6,237.1,203.1,237.1z"/>
		<path class="xp52" d="M336.5,139.6c1.8-0.1,3.6-0.3,5.4-0.4"/>
	</g>
</g>
</svg>
