<?xml version="1.0" encoding="utf-8"?>

<svg version="1.1" xmlns="http://www.w3.org/2000/svg" xmlns:xlink="http://www.w3.org/1999/xlink" x="0px" y="0px"
	 viewBox="0 0 634.3 392" style="enable-background:new 0 0 634.3 392;" xml:space="preserve">
<style type="text/css">
	.xp53{fill:#0D582F;}
</style>

<g id="Layer_2">
	<g>
		<path class="xp53" d="M52.9,229l6.9-15h32.5l6.9,15h21l-31.8-69H63.8l-31.8,69H52.9z M76.1,179.3L87,203H65.1L76.1,179.3z"/>
		<path class="xp53" d="M432.8,229l6.9-15h32.5l6.9,15h21l-31.8-69h-24.6l-31.8,69H432.8z M456,179.3L467,203h-21.9L456,179.3z"/>
		<rect x="501.1" y="160" class="xp53" width="18" height="69"/>
		<polygon class="xp53" points="548.1,229 548.1,177.9 580.8,229 602.1,229 602.1,160 584.1,160 584.1,207.6 552.4,160 546.5,160
			531.1,160 531.1,229 		"/>
		<polygon class="xp53" points="430.1,160 359.1,160 359.1,172 386.1,172 386.1,230 404.1,230 404.1,172 430.1,172 		"/>
		<path class="xp53" d="M349,167c-7.1-5.3-16.9-7-26.9-7c-0.1,0-0.2,0-0.3,0c-0.1,0-0.2,0-0.3,0c-10,0-19.8,1.7-26.9,7
			c-8.8,6.6-13.7,18-13.7,29c0,9.7,2.3,20,9.2,26.5c7.4,6.9,19.8,9.5,31.4,9.5c0.1,0,0.2,0,0.3,0c0.1,0,0.2,0,0.3,0
			c11.5,0,24-2.7,31.4-9.5c7-6.5,9.2-16.9,9.2-26.5C362.8,185,357.8,173.6,349,167z M343.8,197c-0.1,2.9-0.6,11.6-5,16.4
			c-4.5,5-10.5,6.1-13.7,6.3c-0.8,0.1-1.9,0.2-3.7,0.2c-0.9,0-1.7,0-2.5-0.1c-2.8-0.1-9.5-0.9-14.5-6.4c-3.6-4-4.6-10.7-4.9-14.5
			c-0.1-1-0.3-2.3-0.3-3.7c0-1.4,0.1-2.6,0.2-3.6c0.3-3.8,1.3-10.5,4.9-14.5c3.6-4,8.2-5.5,11.5-6.1c0.9-0.2,2.9-0.6,5.6-0.6
			c3.5,0,6.2,0.7,6.2,0.7l-0.2,0c3.3,0.6,7.6,2.2,11.1,6c4.3,4.8,4.9,13.6,5,16.4c0,0.5,0.1,1,0.1,1.6
			C343.9,195.8,343.9,196.4,343.8,197z"/>
		<path class="xp53" d="M152.1,189v12h15h7v16c-2.9,0-6.1-0.1-9,0c-2,0-4,0-6,0c-1,0-5.8,0.5-10,0c-2.8-0.4-5.2-0.8-6-1.3
			c-2.3-1.2-4.3-2.7-5.9-4.7c-0.8-1.1-1.5-2.4-1.8-3.7c-0.5-2.1-0.2-4.4-0.2-6.5c0-1.8,0-3.6-0.1-5.3c0-1.8,0.1-3.6,0.1-5.3
			c0-2.1-0.3-4.4,0.2-6.5c0.3-1.3,0.9-2.6,1.8-3.7c1.6-2,3.6-3.5,5.9-4.7c0.8-0.4,3.2-1.8,6-2.2c4.2-0.5,10,0,11,0c2,0,8,0,10,0
			c5,0.1,4-0.1,9,0c2.3,0,4.7,0,7,0c1.6,0,4.3,0,6,0v-13h-52c-2.9,0.6-7.6,3.2-10.3,4.7c-2.5,1.4-5,3.3-6.9,5.3
			c-5.5,5.8-6.8,12.9-7.1,20.3l0,0c0,0.3,0,0.5,0,0.8c0,1.5,0,2.9,0,4.4c0,1.5,0,2.9,0,4.4c0,0.3,0,0.5,0,0.8l0,0
			c0.3,7.3,1.5,14.4,7.1,20.3c1.9,2.1,4.4,4,6.9,5.3c2.7,1.5,6.3,3.1,9.2,3.7h52v-1l0,0v-28v-10.9V189H152.1z"/>
		<path class="xp53" d="M268.1,203.4c-0.6-0.3-1.4-0.5-2.4-0.7l0-0.1c0.1-0.1,0.3-0.1,0.4-0.2c2.2-1.2,3.8-3.3,4.9-5.4
			c3.9-5.8,3.6-16.7,3.6-16.8c0-0.1,0-0.3,0-0.5c0-0.4-0.1-0.8-0.1-1.1c-0.1-1.4-0.3-2.7-0.4-4.1c-0.1-0.8-0.2-1.6-0.4-2.4
			c0,0,0-0.2-0.1-0.4c-0.6-3-1.6-6-3.6-8.3c-0.3-0.3-3.1-3-6-3.4l-3.4-0.1h-40.4h-17.6h-0.4v69h18v-26h12.2h17.4
			c0.5,0.1,1,0.3,1.4,0.5c4.1,2.3,6.2,6.9,6.7,11.4c0.4,3.9,0,8,0.1,11.9c0,0.1,0,3.2,0,3.2h17.2c0-3.9-0.1-7.7,0-11.6
			c0.1-4.6-1-9-4-12.6C270.2,204.9,269.2,204,268.1,203.4z M253.3,191h-33.1v-19h9.9h17.8h4.2c3.9,3.6,3.8,10.2,3.8,10.2
			C255.8,182.2,255.9,187.3,253.3,191z"/>
	</g>
</g>
</svg>
