<?xml version="1.0" encoding="utf-8"?>
<!-- Generator: Adobe Illustrator 24.3.0, SVG Export Plug-In . SVG Version: 6.00 Build 0)  -->
<svg version="1.1" xmlns="http://www.w3.org/2000/svg" xmlns:xlink="http://www.w3.org/1999/xlink" x="0px" y="0px"
	 viewBox="0 0 634.3 392" style="enable-background:new 0 0 634.3 392;" xml:space="preserve">
<style type="text/css">
	.xp2{fill:#4C7335;}
	.xp3{fill:#FFFFFF;}
	.xp4{clip-path:url(#SVGID_2_);fill:#B21E3B;}
	.xp5{clip-path:url(#SVGID_2_);fill:#E4E76E;}
	.xp6{clip-path:url(#SVGID_5_);}
	.xp7{clip-path:url(#SVGID_6_);}
	.xp8{fill:#EE3525;}
</style>

<g id="Layer_2">
	<g>
		<path class="xp2" d="M318.2,242.8c9.2,0,12.2,6.9,14,14.5c-8.4,2.7-18.6,5.3-27.5,6.9C304.7,261,305.8,242.8,318.2,242.8
			 M300.3,245L300.3,245c-6.5,6.5-9.9,15.5-9.9,26c0,18.1,12.8,30.8,31.2,30.8c14,0,22.8-7,23.2-7.3l0.2-0.1l-0.1-0.2
			c-0.4-0.9-2.3-5.3-5.5-4.3c-3.7,1.8-7.3,2.6-11.3,2.6c-15.5,0-21.3-12.7-22.4-20.4c10-2.4,25-6.4,39.7-13.6l0.3-0.1
			c0,0,0.8-0.4,0.8-0.4l-0.3-1.2c-1-4.2-2.5-9-5.8-13c-4.2-5.1-10.4-7.7-18.4-7.7C313.9,236,306,239.3,300.3,245"/>
		<path class="xp2" d="M318.2,242.8c9.2,0,12.2,6.9,14,14.5c-8.4,2.7-18.6,5.3-27.5,6.9C304.7,261,305.8,242.8,318.2,242.8
			 M300.3,245L300.3,245c-6.5,6.5-9.9,15.5-9.9,26c0,18.1,12.8,30.8,31.2,30.8c14,0,22.8-7,23.2-7.3l0.2-0.1l-0.1-0.2
			c-0.4-0.9-2.3-5.3-5.5-4.3c-3.7,1.8-7.3,2.6-11.3,2.6c-15.5,0-21.3-12.7-22.4-20.4c10-2.4,25-6.4,39.7-13.6l0.3-0.1
			c0,0,0.8-0.4,0.8-0.4l-0.3-1.2c-1-4.2-2.5-9-5.8-13c-4.2-5.1-10.4-7.7-18.4-7.7C313.9,236,306,239.3,300.3,245"/>
		<path class="xp2" d="M446,242.8c9.2,0,12.2,6.9,14,14.5c-8.4,2.7-18.6,5.3-27.5,6.9C432.5,261,433.6,242.8,446,242.8 M428.1,245
			L428.1,245c-6.5,6.5-9.9,15.5-9.9,26c0,18.1,12.8,30.8,31.1,30.8c14,0,22.8-7,23.2-7.3l0.2-0.1l-0.1-0.2c-0.4-0.9-2.3-5.3-5.5-4.3
			c-3.6,1.8-7.3,2.6-11.3,2.6c-15.5,0-21.3-12.7-22.4-20.4c10-2.4,25-6.4,39.7-13.6c0,0,0.3-0.1,0.3-0.1l0.8-0.4l-0.3-1.2
			c-1-4.2-2.5-9-5.8-13c-4.2-5.1-10.4-7.7-18.4-7.7C441.7,236,433.8,239.3,428.1,245"/>
		<path class="xp2" d="M446,242.8c9.2,0,12.2,6.9,14,14.5c-8.4,2.7-18.6,5.3-27.5,6.9C432.5,261,433.6,242.8,446,242.8 M428.1,245
			L428.1,245c-6.5,6.5-9.9,15.5-9.9,26c0,18.1,12.8,30.8,31.1,30.8c14,0,22.8-7,23.2-7.3l0.2-0.1l-0.1-0.2c-0.4-0.9-2.3-5.3-5.5-4.3
			c-3.6,1.8-7.3,2.6-11.3,2.6c-15.5,0-21.3-12.7-22.4-20.4c10-2.4,25-6.4,39.7-13.6c0,0,0.3-0.1,0.3-0.1l0.8-0.4l-0.3-1.2
			c-1-4.2-2.5-9-5.8-13c-4.2-5.1-10.4-7.7-18.4-7.7C441.7,236,433.8,239.3,428.1,245"/>
		<path class="xp2" d="M504.7,242.8c9.2,0,12.2,6.9,14,14.5c-8.4,2.7-18.6,5.3-27.5,7C491.2,261,492.3,242.8,504.7,242.8 M486.8,245
			L486.8,245c-6.5,6.5-9.9,15.5-9.9,26c0,18.1,12.8,30.8,31.1,30.8c14,0,22.8-7,23.2-7.3l0.2-0.1l-0.1-0.2c-0.4-0.9-2.3-5.3-5.5-4.3
			c-3.7,1.8-7.3,2.6-11.3,2.6c-15.5,0-21.3-12.7-22.4-20.4c10.1-2.4,25-6.4,39.7-13.6l0.3-0.1l0.8-0.4l-0.3-1.2c-1-4.2-2.5-9-5.8-13
			c-4.2-5.1-10.4-7.7-18.5-7.7C500.4,236,492.5,239.3,486.8,245"/>
		<path class="xp2" d="M504.7,242.8c9.2,0,12.2,6.9,14,14.5c-8.4,2.7-18.6,5.3-27.5,7C491.2,261,492.3,242.8,504.7,242.8 M486.8,245
			L486.8,245c-6.5,6.5-9.9,15.5-9.9,26c0,18.1,12.8,30.8,31.1,30.8c14,0,22.8-7,23.2-7.3l0.2-0.1l-0.1-0.2c-0.4-0.9-2.3-5.3-5.5-4.3
			c-3.7,1.8-7.3,2.6-11.3,2.6c-15.5,0-21.3-12.7-22.4-20.4c10.1-2.4,25-6.4,39.7-13.6l0.3-0.1l0.8-0.4l-0.3-1.2c-1-4.2-2.5-9-5.8-13
			c-4.2-5.1-10.4-7.7-18.5-7.7C500.4,236,492.5,239.3,486.8,245"/>
		<path class="xp2" d="M378.5,243c16.2,0,18,17.1,18,24.4c0,9.7-2.3,25.9-18,25.9c-4.2,0-8.8-1.7-12.1-4.4v-41.5
			C369.6,244.7,374.3,243,378.5,243 M344.9,208.3v3.6c0,3.7,2.5,4,3.9,4.2c1.7,0.2,2.8,0.4,2.8,4.3v81.3h4.3c0,0,6.9-6,7.1-6.2
			c5.6,3.8,12.9,6.2,19,6.2c18.3,0,31.1-13.9,31.1-33.9c0-19.5-12.4-33.1-30.2-33.1c-5.8,0-11.5,1.5-16.6,4.2v-31.2L344.9,208.3
			L344.9,208.3z"/>
		<path class="xp2" d="M147,240.6V236l-20.4,0.6v3.8c0,3.2,2.3,3.7,3.7,3.9l0.5,0.1c0.9,0.2,2,0.5,2,4.2v65.5c0,3.8-1.1,4-2.8,4.2
			c-1.5,0.2-4,0.5-4,4.3v3.6h29.1v-3.6c0-3.9-2.7-4.1-4.3-4.3c-1.9-0.1-3.1-0.2-3.1-4.2v-17l0-8.1c0,0,0-41.4,0-41.6
			c3.3-2.7,7.9-4.4,12.1-4.4c16.2,0,18,17.1,18,24.4c0,9.7-2.3,25.9-18,25.9c-1.7,0-3.4-0.3-5.2-0.8c-0.1,0-0.8-0.2-0.8-0.2
			c-1.1-0.3-2-0.2-2.6,0.4c-1.2,1.2-1,4-0.6,6.1l0,0.1l0.1,0c3.7,1.6,7.7,2.4,12.5,2.7c8.5,0,16-3,21.6-8.6
			c6.2-6.2,9.5-15.1,9.5-25.3c0-19.5-12.4-33.1-30.2-33.1C156.1,234.7,150.8,237.8,147,240.6"/>
		<path class="xp2" d="M147,240.6V236l-20.4,0.6v3.8c0,3.2,2.3,3.7,3.7,3.9l0.5,0.1c0.9,0.2,2,0.5,2,4.2v65.5c0,3.8-1.1,4-2.8,4.2
			c-1.5,0.2-4,0.5-4,4.3v3.6h29.1v-3.6c0-3.9-2.7-4.1-4.3-4.3c-1.9-0.1-3.1-0.2-3.1-4.2v-17l0-8.1c0,0,0-41.4,0-41.6
			c3.3-2.7,7.9-4.4,12.1-4.4c16.2,0,18,17.1,18,24.4c0,9.7-2.3,25.9-18,25.9c-1.7,0-3.4-0.3-5.2-0.8c-0.1,0-0.8-0.2-0.8-0.2
			c-1.1-0.3-2-0.2-2.6,0.4c-1.2,1.2-1,4-0.6,6.1l0,0.1l0.1,0c3.7,1.6,7.7,2.4,12.5,2.7c8.5,0,16-3,21.6-8.6
			c6.2-6.2,9.5-15.1,9.5-25.3c0-19.5-12.4-33.1-30.2-33.1C156.1,234.7,150.8,237.8,147,240.6"/>
		<path class="xp2" d="M215.2,240.6V236l-20.4,0.6v3.8c0,3.2,2.3,3.7,3.6,3.9l0.5,0.1c0.9,0.2,2,0.5,2,4.2v65.5c0,3.8-1.1,4-2.8,4.2
			c-1.5,0.2-4,0.5-4,4.3v3.6h29.1v-3.6c0-3.9-2.7-4.1-4.3-4.3c-1.9-0.1-3.1-0.2-3.1-4.2v-17l0-8.1c0,0,0-41.4,0-41.6
			c3.3-2.7,7.9-4.4,12.1-4.4c16.2,0,18,17.1,18,24.4c0,9.7-2.3,25.9-18,25.9c-1.7,0-3.4-0.3-5.2-0.8c-0.1,0-0.1-0.1-0.1-0.1
			c0,0-0.6-0.2-0.6-0.2c-1.1-0.3-2-0.2-2.6,0.4c-1.2,1.2-1,4-0.6,6.1l0,0.1l0.1,0c3.7,1.6,7.7,2.4,12.5,2.7c8.5,0,16-3,21.6-8.6
			c6.2-6.2,9.5-15.1,9.5-25.3c0-19.5-12.4-33.1-30.2-33.1C224.2,234.7,218.9,237.8,215.2,240.6"/>
		<path class="xp2" d="M215.2,240.6V236l-20.4,0.6v3.8c0,3.2,2.3,3.7,3.6,3.9l0.5,0.1c0.9,0.2,2,0.5,2,4.2v65.5c0,3.8-1.1,4-2.8,4.2
			c-1.5,0.2-4,0.5-4,4.3v3.6h29.1v-3.6c0-3.9-2.7-4.1-4.3-4.3c-1.9-0.1-3.1-0.2-3.1-4.2v-17l0-8.1c0,0,0-41.4,0-41.6
			c3.3-2.7,7.9-4.4,12.1-4.4c16.2,0,18,17.1,18,24.4c0,9.7-2.3,25.9-18,25.9c-1.7,0-3.4-0.3-5.2-0.8c-0.1,0-0.1-0.1-0.1-0.1
			c0,0-0.6-0.2-0.6-0.2c-1.1-0.3-2-0.2-2.6,0.4c-1.2,1.2-1,4-0.6,6.1l0,0.1l0.1,0c3.7,1.6,7.7,2.4,12.5,2.7c8.5,0,16-3,21.6-8.6
			c6.2-6.2,9.5-15.1,9.5-25.3c0-19.5-12.4-33.1-30.2-33.1C224.2,234.7,218.9,237.8,215.2,240.6"/>
		<path class="xp2" d="M540.5,255.3c0,12.2,10.8,15.8,20.3,18.9c8.2,2.7,15.9,5.2,15.9,12.7c0,7.6-8.7,10.4-14.6,10.4
			c-6,0-8.9-1.4-8.9-4.4c0-0.5,0.2-1.1,0.3-1.6c0.2-0.6,0.3-1.2,0.3-1.8c0-4.1-4.7-6.3-8.2-6.3c-4,0-8.2,2.7-8.2,7.4
			c0,9.9,16.8,13,25,13c13.4,0,27.6-7.5,27.6-21.3c0-12.7-11.3-16.4-21.2-19.6c-8.4-2.7-15.6-5.1-15.6-11.9c0-5.8,6.8-8.9,11.7-8.9
			c2,0,6.5,0.3,6.5,3.1l-0.3,2.8c0,4,4,6.2,7.8,6.2c3.9,0,7.9-2.4,7.9-6.8c0-9.1-13-11.5-19.8-11.5
			C556.1,235.6,540.5,241.7,540.5,255.3"/>
		<path class="xp2" d="M284.1,287c0,10.7,7.8,3.5,7.8,10.2v4.7h-30.6v-4.7c0-6.9,8.1,0.6,8.1-10.2v-64c0-10.9-8.1-3.4-8.1-10.3V208
			l22.8-0.6V287L284.1,287z"/>
		<path class="xp2" d="M530.5,224.3c0,2.9,2.4,5.3,5.3,5.3c0,0,0.7-0.1,1.1-0.1c0,2.7-1,6-3.4,8.8l-0.4,0.5l2,2l0.5-0.5
			c4.4-4.4,6.7-9,6.7-13.5c0-3.8-2-7.9-6.2-7.9C532.9,218.9,530.5,221.3,530.5,224.3"/>
		<path class="xp2" d="M77.1,214.8c0.1,0.2,0.1,0.4,0.1,0.4c2.9,8.6,8.6,25.3,14.3,41.3H62.4C62.7,255.8,76.7,215.9,77.1,214.8
			 M77.7,187.3L77.7,187.3l-0.7,0.5c0,0-0.7,0.5-0.7,0.5c-2.9,1.9-5.7,3.9-5.7,6.5c0,1.4,0.7,3.4,1.2,4.7c0,0,0.1,0.4,0.2,0.5
			c-0.1,0.2-27.5,77.8-27.5,77.8c-3.7,10.2-6.8,11.3-8.9,12c-1.5,0.5-3.4,1.2-3.4,5.2v4.6h27.5V295c0-4.3-2-5.2-4-5.8
			c-1.8-0.5-2.7-0.7-2.7-3.2c0-2.2,1.4-6.4,2.2-8.6c0,0,0.1-0.2,0.1-0.2s0,0,2.4-7.1c0,0,0.7-2.2,0.8-2.5h37.2
			c0.1,0.3,2.6,7.1,2.6,7.1c13.4,30.4,42.4,26.1,42.7,26.1l0.2,0l-0.4-11.3c-19.2,0-22.8-12.9-33.4-41.7l-8.6-23.6L85.9,188
			c-0.2-0.6-1.3-3.5-3-3.6C82.2,184.4,81.6,184.5,77.7,187.3"/>
		<path class="xp3" d="M232.9,128.9c-2.9-6.2-8.1-11.5-15.9-12.9c-4.7-0.8-8-0.5-16.2,1.5c-5.9,1.4-10.9,1.2-17-0.3
			c-13.8-3.5-19-11.1-34.3-8.2c-9.4,1.8-16.1,9-20.6,20.8c-3.8,10.1-5.2,30.8,6.8,53.2c5.7,10.6,15.3,16,27.9,16.1
			c12-0.3,15-2.6,21.9-3.1c6.3-0.4,11.5,3.5,20.6,2.3c7.3-0.7,16.1-7.8,21.1-15.1C240.5,164,239.6,143.2,232.9,128.9"/>
		<g>
			<defs>
				<rect id="SVGID_1_" x="32.1" y="65.8" width="570" height="260.5"/>
			</defs>
			<clipPath id="SVGID_2_">
				<use xlink:href="#SVGID_1_"  style="overflow:visible;"/>
			</clipPath>
			<path class="xp4" d="M212.3,216.2c-9.1,2.5-15.2-0.4-21.7,0c-7.2,0.5-9.9,3.3-22.4,3.7c-13.1-0.1-23-7.8-28.9-20.1
				c-12.5-25.8-9.7-48.1-6.9-60c4.1-17.5,13.2-26.3,29.5-23.4c9.5,1.7,17.5,7.8,28.5,9.2c5.5,0.7,11.4-0.5,18.3-2.2
				c5.3-1.3,10.1-1.4,14.8-0.3c7.5,1.8,12.5,4.9,16.4,13.2c7.5,16.1,7.3,37.7-7.4,61.6C227.2,206.4,220,214.1,212.3,216.2"/>
			<path class="xp5" d="M188,100.2c0,0-0.3-7,3.9-14.9c4.3-7.9,13.8-13.1,20-14.2c6.2-1.1,10.1-1.7,12.2-4.2c1.6-2,3-1.2,3,0.8
				c0,1.4-0.5,4.9-1,8.2c-0.5,3.3-2.1,11.3-5.6,16.8c-5.3,8.2-12.3,10.1-18.4,10.7C196,103.9,190.9,101.7,188,100.2"/>
		</g>
		<g>
			<defs>
				<polygon id="SVGID_3_" points="206.7,46.3 169,85.8 208.4,123.5 246.1,84.1 206.7,46.3 				"/>
			</defs>
			<defs>
				<path id="SVGID_4_" d="M226,65.9c-0.9,3.9-4.4,12.4-16,21.9c-12.8,10.5-22.1,12.3-22.1,12.3c2.9,1.6,8,3.8,14,3.2
					c6.1-0.6,13.1-2.5,18.4-10.7c3.5-5.4,5.1-13.5,5.6-16.8c0.5-3.3,1-6.8,1-8.2C227.1,66.7,226.7,66,226,65.9L226,65.9L226,65.9z"
					/>
			</defs>
			<clipPath id="SVGID_5_">
				<use xlink:href="#SVGID_3_"  style="overflow:visible;"/>
			</clipPath>
			<clipPath id="SVGID_6_" class="xp6">
				<use xlink:href="#SVGID_4_"  style="overflow:visible;"/>
			</clipPath>
			<g class="xp7">
				<defs>
					<rect id="SVGID_7_" x="186.2" y="64.5" width="42.2" height="40.1"/>
				</defs>
				<clipPath id="SVGID_8_">
					<use xlink:href="#SVGID_7_"  style="overflow:visible;"/>
				</clipPath>
				<g style="clip-path:url(#SVGID_8_);">

						<image style="overflow:visible;" width="16" height="14" xlink:href="29CA7864.jpg"  transform="matrix(4.2223 0 0 -4.2223 173.9114 116.1051)">
					</image>
				</g>
			</g>
		</g>
		<path class="xp8" d="M206.8,199.5c-9,1.2-14.3-2.7-20.6-2.3c-7,0.5-9.9,2.7-21.9,3.1c-12.6-0.1-22.2-5.5-27.9-16.1
			c-12-22.4-10.6-43.1-6.8-53.2c4.4-11.8,11.2-19,20.6-20.8c15.3-2.9,20.5,4.8,34.3,8.2c6.1,1.5,11.1,1.7,17,0.3
			c8.3-2,11.6-2.3,16.3-1.5c7.8,1.4,13,6.7,15.9,12.9c6.6,14.3,7.6,35.1-5.7,54.2C222.9,191.7,214.1,198.8,206.8,199.5 M240,127.8
			c-4.8-11.3-12.4-18-22.5-19.6c-6.7-1-10.6,1.5-17.2,2.3c-4.4,0.6-8.5,0.5-12.6-1c-10.5-3.7-18.7-11.1-29.6-12.6
			c-13.8-1.9-25.3,9-29.9,16.1c-11,16.7-10.9,49,1.2,74.8c0,0,2.7,5.2,4.3,7.7c4.8,7.7,13.1,16.5,29.5,17.3c12-0.4,18.5-4,23.3-4.5
			c4.6-0.5,10.8,2.9,20.7,1.3c12.3-2,26.5-22.8,26.5-22.8C243.9,171.2,248.9,149,240,127.8"/>
		<path class="xp3" d="M163.1,127.8c0,0-12.7,4.6-17.1,19.8C141.5,163.3,135.7,131.6,163.1,127.8"/>
		<path class="xp2" d="M592.1,239.2c0.3-0.6,0.7-1.2,1.2-1.6c0.5-0.4,1-0.8,1.7-1c0.6-0.2,1.3-0.4,2-0.4c0.7,0,1.3,0.1,2,0.4
			c0.6,0.2,1.2,0.6,1.7,1c0.5,0.4,0.9,1,1.1,1.6c0.3,0.6,0.4,1.3,0.4,2.1c0,0.8-0.1,1.5-0.4,2.1c-0.3,0.6-0.7,1.2-1.1,1.6
			c-0.5,0.4-1.1,0.8-1.7,1c-0.6,0.2-1.3,0.4-2,0.4c-0.7,0-1.4-0.1-2-0.4c-0.6-0.2-1.2-0.6-1.7-1c-0.5-0.4-0.9-1-1.2-1.6
			c-0.3-0.6-0.4-1.3-0.4-2.1C591.6,240.5,591.8,239.8,592.1,239.2 M593.3,242.9c0.2,0.5,0.5,0.9,0.8,1.3c0.3,0.4,0.8,0.6,1.2,0.8
			c0.5,0.2,1,0.3,1.5,0.3c0.5,0,1-0.1,1.5-0.3c0.5-0.2,0.9-0.5,1.2-0.8c0.3-0.4,0.6-0.8,0.8-1.3c0.2-0.5,0.3-1,0.3-1.6
			c0-0.6-0.1-1.1-0.3-1.6c-0.2-0.5-0.5-0.9-0.8-1.3c-0.3-0.3-0.7-0.6-1.2-0.8c-0.5-0.2-1-0.3-1.5-0.3c-0.5,0-1,0.1-1.5,0.3
			c-0.5,0.2-0.9,0.5-1.2,0.8c-0.3,0.4-0.6,0.8-0.8,1.3c-0.2,0.5-0.3,1-0.3,1.6C593,241.8,593.1,242.4,593.3,242.9 M597,238.4
			c0.7,0,1.3,0.1,1.7,0.4c0.4,0.3,0.6,0.7,0.6,1.3c0,0.3,0,0.5-0.1,0.7c-0.1,0.2-0.2,0.3-0.3,0.4c-0.1,0.1-0.3,0.2-0.5,0.3
			c-0.2,0.1-0.4,0.1-0.6,0.1l1.5,2.5h-1.2l-1.4-2.4H596v2.4h-1.1v-5.7H597L597,238.4z M597,240.8c0.3,0,0.6-0.1,0.8-0.1
			c0.2-0.1,0.3-0.3,0.3-0.7c0-0.2,0-0.3-0.1-0.4c-0.1-0.1-0.2-0.2-0.3-0.2c-0.1,0-0.2-0.1-0.4-0.1c-0.1,0-0.3,0-0.4,0h-1v1.5H597
			L597,240.8z"/>
	</g>
</g>
</svg>
