<?xml version="1.0" encoding="utf-8"?>

<svg version="1.1" xmlns="http://www.w3.org/2000/svg" xmlns:xlink="http://www.w3.org/1999/xlink" x="0px" y="0px"
	 viewBox="0 0 634.3 392" style="enable-background:new 0 0 634.3 392;" xml:space="preserve">
<style type="text/css">
	.xp12{fill-rule:evenodd;clip-rule:evenodd;}
	.xp13{fill-rule:evenodd;clip-rule:evenodd;fill:#CC2539;}
</style>

<g id="Layer_2">
	<g>
		<polygon class="xp12" points="33.1,244 33.1,213 47.1,213 53.3,232.5 59.1,213 73.1,213 73.1,244 63.1,244 63.1,229.8 63.7,224.1
			63.6,224.1 57.1,244 49.1,244 43.3,224.1 43.2,224.1 44.1,234 44.1,244 		"/>
		<path class="xp12" d="M95.1,213c-10.7,0-18,5.1-18,15c0,10.8,7.3,16,18,16c10.1,0,18-5.2,18-16C113.1,219.7,107.3,213,95.1,213z
			 M95.1,237c-5.4,0-7-4.9-7-9c0-4,1-8,7-8s7,4,7,8S101.1,237,95.1,237z"/>
		<polygon class="xp12" points="148.1,213 148.1,221 138.1,221 138.1,244 127.1,244 127.1,221 117.1,221 117.1,213 		"/>
		<path class="xp12" d="M170.1,213c-10.7,0-18,5.1-18,15c0,10.8,6.3,16,17,16c10.1,0,18-5.2,18-16C187.1,219.7,182.3,213,170.1,213z
			 M169.5,237.5c-5.4,0-7.3-4.5-7.3-8.5c0-4,2.2-9.3,7.2-9.3c4.9-0.1,7.8,5,7.8,9.3C177.1,234.2,174.3,237.5,169.5,237.5z"/>
		<path class="xp12" d="M223.1,238c0-6.4-1-8-5-8c4-1,5-4.4,5-8c0-6.1-2.5-9-14-9h-17v31h11v-11h6c5,0,4,1.9,4,6v5h12v-1
			C223.8,243,223.1,242.1,223.1,238z M209.1,227h-6v-7h6c2.6,0,4,1,4,3C213.1,226,212.6,227,209.1,227z"/>
		<path class="xp12" d="M248.1,222c-0.1-0.9-1.4-1.8-2.2-2.2c-0.8-0.4-0.7-0.8-1.8-0.8c-2.5,0-4.7,0.9-4.7,2
			c0,4.7,19.6,1.8,19.6,13.2c0,7.3-6.6,9.7-15.9,9.7c-9,0-14-3-14-9h10c0.2,1.1,0.5,1.5,1.4,2.1c0.9,0.5,2.5,0.9,3.6,0.9
			c2.8,0,4.3-1,4.2-2.5c-0.2-5.5-19.2-1.5-19.2-13.5c0-6.7,6.5-9,15-9c9.4,0,14,3,14,9h-10.6L248.1,222z"/>
		<path class="xp12" d="M301.1,213h-12l-12,31h11l1-4h11l2,4h11L301.1,213z M291.1,234l4-12l4,12H291.1z"/>
		<polygon class="xp12" points="339.1,230 339.1,213 350.1,213 350.1,244 339.1,244 327.1,227 327.1,244 317.1,244 317.1,213
			327.1,213 		"/>
		<path class="xp12" d="M371.1,213h-15v31h15c10.9,0,17-3.1,17-15C388.1,218.6,382.1,213,371.1,213z M370.1,237h-3v-17h3
			c6,0,8,2.4,8,9C378.1,235,375.3,237,370.1,237z"/>
		<path class="xp12" d="M424.1,213h-15v31h15c11,0,17-3.1,17-15C441.1,218.6,435.1,213,424.1,213z M422.1,237h-2v-17h2c6,0,8,2.4,8,9
			C430.1,235,427.3,237,422.1,237z"/>
		<path class="xp12" d="M477.2,237.9c0-6.4-2.4-6.7-6.1-7.9c4-1,6-4.4,6-8c0-6.1-3.5-9-15-9h-16v31h11v-11h3c5.3,0,6,1.9,6,6
			c0,2.8,0.7,4.3,1,5h11v-1C476.8,243,477.2,242,477.2,237.9z M463.1,227h-6l-0.1-6.9l6.1-0.1c2.6,0,3,0.7,3,3
			C466.1,225.2,466.6,227,463.1,227z"/>
		<rect x="483.1" y="213" class="xp12" width="12" height="31"/>
		<polygon class="xp12" points="499.1,213 510.1,213 516.6,233.8 523.1,213 534.1,213 522.1,244 511.1,244 		"/>
		<polygon class="xp12" points="539.1,244 539.1,213 567.1,213 567.1,220 550.1,220 550.1,225 564.1,225 564.1,232 550.1,232
			550.1,237 567.1,237 567.1,244 		"/>
		<path class="xp12" d="M591.1,222c-0.1-0.9-1.2-1.8-2.1-2.2c-0.8-0.4-1.9-0.8-2.9-0.8c-2.5,0-3,1.9-3,3c0,4.7,19,0.6,19,12
			c0,7.3-5.6,10-15,10c-9,0-16-3-16-9h11c0.2,1.1,0.7,1.5,1.6,2.1c0.9,0.5,2.1,0.8,3.2,0.8c2.8,0,4.2-0.4,4.2-1.9
			c0-4.8-19.2-1.9-19.2-14c0-6.7,6.7-9,15.2-9c9.4,0,14.9,3.1,15,9H591.1z"/>
		<path class="xp12" d="M116.2,176c4.7-2.1,6.1-8,5.9-13.3c-0.5-10.4-7.6-15.7-19.9-15.7h-69v13h16v32h-16v11h75
			c8.4,0,15-4.7,15.4-14.4C123.8,181.7,122.5,178.5,116.2,176z M61.1,160h42c4.1,0,7.9,0.9,8,5c0.2,6.2-3.7,4.9-8,5h-42V160z
			 M103.1,192h-42v-10h43c4-0.3,8,1.4,8,3.5C112.3,192.5,109.3,191.7,103.1,192z"/>
		<path class="xp12" d="M215.1,192l-32-44.7l-8.7,0.2L141.1,192h-15v12h46v-12h-17l5-6h35l5,6h-15v12h46v-12H215.1z M171.1,174
			l7.2-12.1l7.8,12l0.3,0H171.1z"/>
		<polygon class="xp12" points="234.1,204 234.1,192 251.1,192 251.1,160 234.1,160 234.1,147 283.1,147 283.1,160 264.1,160
			264.1,192 312.1,192 312.1,180 325.1,180 325.1,204 		"/>
		<path class="xp12" d="M407.8,153.7c-2.5-1.6-6.6-6.7-19.7-6.7h-59v13h14v32h-14v12h59c14.7,0,18.3-2.8,23.4-9.1
			c1.3-1.6,5.9-8.9,5.9-19C417.4,163,409.8,155,407.8,153.7z M389.1,191.9h-33l-0.1-0.1v-31.5h32.3c13.3,0.3,15.7,7.6,15.7,15.3
			C404.1,185.3,401.1,191.8,389.1,191.9z"/>
		<path class="xp12" d="M463.8,147.3c-16.4,0-44.2,7.4-44.2,29.1c0,20.9,24.7,27.6,44.6,27.6c17.1,0,42-6.2,42-27.6
			C506.1,155.2,480.2,147.3,463.8,147.3z M464.3,193.5c-10.1,0-31.2-5.4-31.4-17.1c-0.2-12.6,18-17.8,31.2-17.8
			c12.7,0,28.7,7.5,28.7,17.8C492.8,187.4,475.5,193.5,464.3,193.5z"/>
		<path class="xp12" d="M576.1,180c0,0,3.4,0.2,9.6,0.1c3.1-0.1,7.5-2.1,10.2-5.2c2.6-3,3.6-7.1,3.6-10.2c0-3.3-1.7-8.2-4.1-11.3
			c-5.4-6.5-12.6-6.4-16.3-6.4h-72v13h15v32h-15v12h46v-12h-18v-12h17c4.5,0.3,9.6,0.1,14.8,8.4l3.3,4.7c0,0,3.8,4.2,5.3,5.6
			c1.5,1.4,5,3.7,8,4.9c1.7,0.7,7.2,1.4,8.6,1.5c1.4,0.1,11,0,11,0v-13C603.1,192,591,206.7,576.1,180z M535.1,170v-10h42
			c5.1,0,8,1.2,8,5c0,5.8-2.1,5-7,5H535.1z"/>
		<path class="xp13" d="M33.1,139h570v-15h-570V139z M33.1,268h570v-15h-570V268z"/>
	</g>
</g>
</svg>
