<?xml version="1.0" encoding="utf-8"?>

<svg version="1.1" xmlns="http://www.w3.org/2000/svg" xmlns:xlink="http://www.w3.org/1999/xlink" x="0px" y="0px"
		 viewBox="0 0 634.3 392" style="enable-background:new 0 0 634.3 392;" xml:space="preserve">
<style type="text/css">
	.xp70{fill-rule:evenodd;clip-rule:evenodd;fill:#000;}
	.xp71{fill:#000;}
</style>

<g id="Layer_2">

			<path class="xp70" d="M317.1,20c-96.4,0-176,79.6-176,176c0,96.3,79.6,176,176,176c96.3,0,176-79.7,176-176
				C493.1,99.6,413.4,20,317.1,20z M439,306.8C408.2,341,363.2,361,317.1,361c-40.3,0-79.9-15.2-109.8-42.1
				C173,288,153.1,242.1,153.1,196c0-40.3,15-78.9,42-108.9C226,52.9,271,32,317.1,32c40.3,0,79.9,16,109.8,43
				c34.4,30.9,54.2,74.8,54.2,121C481.1,236.3,466.1,276.9,439,306.8z"/>
			<g>
				<path class="xp71" d="M344.7,86.7c0-7.4-4.4-12.6-11.5-14.2c5.1-2.2,8.5-5.3,8.5-11.1c0-11.7-11-13.2-20.4-13.2h-33.5v54.4h37.8
					C336,102.5,344.7,98.3,344.7,86.7z M301.6,57.9h19.8c3.8,0,7.5,1,7.3,5.7c-0.4,4.1-3.6,5.3-7.3,5.3h-19.8V57.9z M301.6,92.5v-14
					h19.8c5.2,0,9.5,0.6,9.5,6.8c0,5.8-4.3,7.3-9.5,7.3h-19.8V92.5z"/>
				<path class="xp71" d="M302.7,151.9h27.6l5,10.8h15.1l-26.5-54.2l0,0h-14.6l-26.7,54.2h15.1L302.7,151.9z M316.3,122.4l0.1,0.2
					v-0.2l9.1,19.8h-18.4L316.3,122.4z"/>
				<polygon class="xp71" points="332.5,169 317.1,190 299.7,169 282.5,169 309.1,202.3 309.1,224 323.1,224 323.1,202.3 349.7,169
									"/>
				<path class="xp71" d="M456.6,202.1c8.8-1.9,14.4-7,14.4-16.7c0-12.7-10.7-16.4-21.6-16.4h-37.2v55h14v-22h16.1l14.5,22h16.4
					L456.6,202.1z M447.3,192h-21.2v-13h21.2c4.4,0,8.7,1.2,8.7,6.5C456.1,190.8,451.6,192,447.3,192z"/>
				<polygon class="xp71" points="345.7,238.9 345.7,229.2 290.6,229.2 290.6,283.4 347,283.4 347,273.6 304.3,273.6 304.3,260.5
					344.3,260.5 344.3,250.7 304.3,250.7 304.3,238.9 				"/>
				<path class="xp71" d="M214.3,193.1c5-2.1,8.9-5.2,8.9-11.1c0-11.6-11.3-13-20.7-13h-33.3v55h38c10.2,0,18-4.4,18-16
					C225.1,200.7,221.3,194.7,214.3,193.1z M182.1,179h19.7c4.3,0,7.3,1,7.1,5.6c-0.2,4.4-2.8,5.4-7.1,5.4h-19.7V179z M201.7,213
					h-19.6v-14h19.6c5.1,0,9.3,0.6,9.3,6.8C211,211.5,206.7,213,201.7,213z"/>
				<path class="xp71" d="M348.2,305.9c0-12.5-10.4-16.2-21-16.2h-36.6V344h13.7v-21.6l0,0l0,0h15.6l14.3,21.6h16.2l-16.2-21.6
					C342.9,320.6,348.2,315.4,348.2,305.9z M325.6,312.5h-21.3v-13h21.3c4.5,0,8.8,1.2,8.8,6.6C334.4,311.2,330,312.5,325.6,312.5z"
					/>
				<polygon class="xp71" points="365.1,201 401.1,201 401.1,191 365.1,191 365.1,179 402.1,179 402.1,169 351.1,169 351.1,224
					404.1,224 404.1,214 365.1,214 				"/>
				<path class="xp71" d="M268.2,169.1h-14.6L227.1,224h16l4-11h27l5,11h16L268.2,169.1z M252.1,202l9-19l9,19H252.1z"/>
			</g>

</g>
</svg>
