<?xml version="1.0" encoding="utf-8"?>

<svg version="1.1" xmlns="http://www.w3.org/2000/svg" xmlns:xlink="http://www.w3.org/1999/xlink" x="0px" y="0px"
	 viewBox="0 0 634.3 392" style="enable-background:new 0 0 634.3 392;" xml:space="preserve">
<style type="text/css">
	.xp15{fill:#00ACEC;}
	.xp16{fill:#FFFFFF;}
</style>

<g id="Layer_2">
	<g>
		<path class="xp15" d="M253.1,192.3c0-5.5,4.5-10,9.9-10c5.5,0,9.9,4.5,9.9,10c0,5.5-4.4,9.9-9.9,10
			C257.5,202.3,253.1,197.8,253.1,192.3z M271.4,192.3c0.2-4.5-3.3-8.2-7.7-8.4c-0.2,0-0.4,0-0.6,0c-4.9,0-8.4,3.5-8.4,8.4
			c0,4.9,3.5,8.4,8.4,8.4C267.9,200.7,271.4,197.2,271.4,192.3z M260.3,197.8h-1v-11h4.7c2.9,0,3.8,1.1,3.8,3.1
			c0,2.1-1.5,2.9-3.4,3.1l3.3,4.9h-1.9l-3.2-5h-2.4V197.8z M262.5,191.7c1.7,0,4.1,0.3,4.1-2c0-1.7-1.4-2-2.9-2h-3.4v4h2
			 M426.9,192.3c0-5.5,4.5-10,9.9-10c5.5,0,9.9,4.5,9.9,10c0,5.5-4.4,10-9.9,10C431.3,202.3,426.9,197.8,426.9,192.3z M445.1,192.3
			c0.2-4.5-3.3-8.2-7.7-8.4c-0.2,0-0.4,0-0.6,0c-4.4-0.2-8.2,3.3-8.4,7.8c0,0.2,0,0.4,0,0.6c0,4.9,3.5,8.4,8.4,8.4
			c4.4,0.2,8.2-3.3,8.3-7.8C445.2,192.7,445.2,192.5,445.1,192.3z M434.5,197.8h-1v-11h4.7c2.9,0,3.8,1.1,3.8,3.1
			c0,2.1-1.5,2.9-3.4,3.1l3.3,4.9h-1.9l-3.2-5h-2.4L434.5,197.8L434.5,197.8z M436.7,191.7c1.7,0,4.1,0.3,4.1-2c0-1.7-1.4-2-2.9-2
			h-3.4v4h2 M231.3,201.8v-50.2h50.1V72.2h-50.1V22h-78.1v50.2h-50.1v79.4h50.1v50.2H231.3"/>
		<path class="xp16" d="M146.2,94.8l32.9,3.2c6.2,0.9,6.9,6.9,5.2,10.5l-22.5,42.4l0-0.1c-11.9-9.3-18.8-23.6-18.8-38.7
			C143,106,144.2,100.2,146.2,94.8v-0.5 M192.4,69.2c-5.8,0-7.6,6.6-5.1,10c2.3,3,2.8,3.9,2.6,6.7c-0.1,2.4-2.3,5.3-7.3,5.4h-34.9
			C155.9,74,173.2,63,192.3,63"/>
		<path class="xp15" d="M151.3,102l24.9,2.3c1.8,0.1,1.9,0.9,1.5,1.9l-17.4,33.4c-6.6-7.7-10.2-17.5-10.2-27.6
			C150.1,108.6,150.5,105.3,151.3,102 M180.6,71.1c-2.5,4.2-0.5,9.6,1.9,12.1c0.4,0.5,0.2,0.9-0.2,1h-22
			C165.6,78,172.6,73.4,180.6,71.1"/>
		<path class="xp16" d="M238.1,94.8L205.3,98c-6.2,0.9-6.9,6.9-5.2,10.5l22.5,42.4l0-0.1c11.9-9.3,18.8-23.6,18.8-38.7
			C241.2,106,240.1,100.2,238.1,94.8L238.1,94.8 M192.1,69.2c5.8,0,7.6,6.6,5.1,10c-2.3,3-2.8,3.9-2.6,6.7c0.1,2.4,2.3,5.3,7.3,5.4
			h34.9C228.6,74,211.3,63,192.3,63"/>
		<path class="xp15" d="M233.3,102l-24.9,2.3c-1.8,0.1-1.9,0.9-1.5,1.9l17.4,33.4c6.3-7.4,10.2-17,10.2-27.6
			C234.4,108.6,234,105.3,233.3,102 M204,71.1c2.5,4.2,0.5,9.6-1.9,12.1c-0.4,0.5-0.2,0.9,0.2,1h22C219,78,211.9,73.4,204,71.1"/>
		<path class="xp16" d="M192.2,161.3c10,0,19.3-3,27-8.1v0l-24-35.9c-1.7-2.3-4.4-2.5-6.1,0l-24,35.9v0
			C173,158.4,182.2,161.3,192.2,161.3"/>
		<path class="xp15" d="M380,203.4c34.3-19,55-49.2,65.7-82.4c11.1-34.4,9.1-75.5-3.8-100.9C422.4,30,402.9,35.3,380,35.4
			c-22.9,0.1-42.4-5.5-61.9-15.4c-12.9,25.4-14.9,66.6-3.8,101C325,154.2,345.7,184.5,380,203.4"/>
		<path class="xp16" d="M379.9,187.7c28.1-17.5,43.1-42.5,52.7-70.7c8.5-25.1,10.6-54.4,1.2-77.3c-14,4.8-22.3,6.3-29.9,7.5
			c-7.1,1.1-13.5,1.8-23.9,1.9h-0.1c-8,0-16-0.7-23.9-1.9c-7.6-1.2-15.9-2.7-29.9-7.5c-9.4,22.9-7.3,52.3,1.2,77.3
			C336.9,145.3,351.9,170.3,379.9,187.7h0.5"/>
		<path class="xp15" d="M380,180.7c19.1-12,40.7-39.4,49.3-75.3c4.6-19.1,5.9-40.5-0.1-57.5c-8.6,2.3-16.5,4.2-24.8,5.3
			c-8.2,1.1-16.4,1.9-24.4,2h-0.1c-8.2-0.1-16.3-0.8-24.4-2c-8.3-1.1-16.2-3-24.8-5.3c-6,17-4.7,38.4-0.1,57.5
			C339.3,141.4,360.9,168.7,380,180.7h0.5"/>
		<path class="xp16" d="M384.3,115.8l0.4-13.5c0,0-1.9-0.8-4.7-1c-3.7-0.2-5.2-0.4-5.2-0.4l0.1,1.2c0,0-2,0.5-2.3,1
			c-0.1,0.2-0.5,0.5-0.1,1.3c2,3.6,3.1,5.3,4.1,10.2C379.3,114.9,381.2,115.2,384.3,115.8"/>
		<path class="xp16" d="M363,113.7c-0.4,6.2,4.2,9.9,10.6,11c6.9,1,11,1.5,12.9,1.9c0.5,0.2,0.9,0.7,1.1,1.3c0.1,0.6,0,1-0.4,1.4
			c-0.4,0.5-0.9,0.6-0.9,0.6l-0.2,7.4c0,0,2.5-0.1,4.9-1.6c2.3-1.4,3.7-3.2,4.2-5.3c0.6-2.6,0.2-4.6-1.6-7.1
			c-1.2-1.6-3.3-2.9-5.4-3.6c-3.2-1.1-9.2-1.8-13.7-2.5c-0.7-0.1-1.8-0.5-1.9-1.5c-0.1-1.1,1.3-1.4,1.3-1.4s-0.3-1.1-0.9-2.8
			c-0.7-1.6-1.4-3.2-2.3-4.7C367.6,108.2,363.2,109.5,363,113.7"/>
		<path class="xp16" d="M383.9,128.5l-0.2,12.3l-5.7-2.9l-0.6-10.1C380.3,128.1,381.4,128.2,383.9,128.5"/>
		<path class="xp16" d="M368.9,135.2c-1.8,4.3-0.2,8.3,4.3,10.2c1.9,0.8,4.6,1.6,6.7,2.4c2,0.8,5.7,3.3,6,4.3
			c0.2,0.7-0.4,1.2-0.4,1.2l-0.2,5.2c0,0,1.9-0.5,3.5-1.8c1.7-1.3,2.6-3.3,2.6-5.5c0-2.9-1.3-4.6-5.4-7c-3.1-1.8-7.4-3.6-10.4-4.9
			c-0.2-0.1-1.2-0.7-0.9-1.8c0.2-0.5,0.8-0.8,0.8-0.8l-0.5-6.1c0,0-1.6,0.5-2.7,1.1C371.4,132.6,369.6,133.7,368.9,135.2"/>
		<path class="xp16" d="M383.5,153.2c0-0.4-0.1-0.5-0.3-0.8c-0.7-0.7-1.4-1.3-2.2-1.8c-0.9-0.5-2.9-1.2-2.9-1.2s0.3,13.2,0.6,20.3
			c0.1,1.6,0.7,2.1,2.2,2.1c1.8,0,2.2-0.8,2.2-1.8C383,167.9,383.4,158.3,383.5,153.2 M385.5,65.3c0.7,0.5,0.7,0.6,0.9,1.6
			c0.5,2.2-0.4,5.4,0,6.9c0.2,0.5,0.7,0.5,1.1,0.3c3-1.6,5.1-4.4,8.1-5.7c1.4-0.6,5.5,1.4,4.6,4.4c-0.4,1.4-0.8,1.4-1.7,2.2
			c-1.9,1.7-4.4,3.6-6.9,5.9c-1.6,1.5-3.1,2.4-4.3,4.2c-0.2,0.4-0.8,1.6-0.8,1.6c-4.2-0.9-8.6-0.9-11.8-1.6l-0.2-3.6
			c0,0,4.2,0,4.7-2.6c0-0.1-0.1-0.9-0.6-1.3c-0.7-0.4-1.4-0.8-2.1-1c3.2,0.5,6,1.7,9.3,3.1c0.2-0.4-0.3-1.6-0.6-1.9
			c-0.4-0.5-1-0.9-2.1-1.2c-2-0.5-6.8-1.1-6.8-1.1l4.1-0.2c1-0.2,2.1-0.6,2.3-0.9c0.4-0.9-1.2-2.3-2.1-3.6c-0.5-0.7-1.1-2-2-2.8
			c-1.1-1.3-4.3-2.5-4.3-2.5s-0.3-2.2,0.3-3.2c0.4-0.8,2.1-0.9,2.7-0.6C379.5,63.3,382.2,64.7,385.5,65.3"/>
		<path class="xp16" d="M399.4,99.3c-0.6-3.2-3.9-6.3-6.8-7.8c-7.5-3.9-15.7-2.5-23.4-5c-2.2-0.7-4.8-1.8-5.4-4.3
			c-0.4-1.6-0.4-3.2,0.8-3.9c1.8-1,3.1,0.6,5.9,1.3c1.8,0.4,3.7,0.4,5.1,0c0.6-0.2,1.5-0.4,1.6-0.8c0-0.5-1-0.8-1.4-1
			c-0.9-0.4-1.6-0.4-2.6-0.8c-1.5-0.6-3.2-1.7-4.8-2.6c1.5-0.3,3.9-0.4,5.4-0.2c1.2,0.1,4.8,0.1,5.9-0.2c0.2-0.1,0.8-0.3,0.5-0.7
			c-0.4-0.7-1.1-1-1.6-1.6c-1.1-1.4-2-2.9-3.7-3.6c-4.9-1.9-10.4-2.4-15.3,0.2c-6.6,3.6-9.3,11.7-6.1,18.5c2.7,5.5,7.7,8.2,13.7,9.8
			c2.9,0.7,5.4,1.2,8.6,1.5c3.6,0.4,6.9,0.6,10.4,1.4c0.8,0.2,2,0.7,2.4,1.5c0.6,1.4,0.3,3-1.4,3.7c0,3.1-0.4,9.5-0.4,9.5
			S401.9,112.8,399.4,99.3L399.4,99.3z M375.5,70.4c-0.3-0.1-0.7-0.2-1-0.1c-0.6,0.5-1.1,0.9-1.8,1c-1.4,0.2-1.2-1-2.1-1.7
			c-0.6-0.4-1.1,0.1-1.7-0.8C370.9,68.8,374,68.9,375.5,70.4L375.5,70.4z"/>
		<path class="xp15" d="M191.6,125.5c0.4-0.5,0.9-0.5,1.4,0l16.5,25.3c-5.4,2.4-11.3,3.7-17.2,3.7c-5.9,0-11.8-1.2-17.2-3.7
			L191.6,125.5c0.5-0.5,1-0.5,1.4,0"/>
		<path class="xp16" d="M374.5,157.6c-0.8,0.8-2.5,2.4-2.2,5.9c0.2,2.2,0.7,2.9,1.4,4.3c0.5,1,1.4,1.5,1.8,0c0.2-0.9-0.6-1.7-0.3-3.5
			c0.3-1.9,1.2-2.2,1.2-2.2l-0.3-5.8C375.6,156.7,375,157.1,374.5,157.6"/>
		<path d="M144.2,252h28.6c2.9,0.1,6.1,0.2,9,1.5c5.5,2.7,5.6,8.1,5.6,9.3c0,2.9-1.1,5.7-3.1,7.7c-3.4,3.6-7.9,4.1-11.1,4.4
			c3.5,0.1,9.3,0.4,13.7,4.9c1.7,1.7,3.8,4.6,3.8,9.4c0,3.3-1.1,6.8-3.8,9.6c-4.1,4.1-9.3,4.3-13.8,4.4h-28.9v-2h7V253h-7V252
			L144.2,252z M163.2,254l-0.1,20.1h4.8c3.2,0,5.8-1,6.8-2.4c1.2-1.5,1.9-3.9,1.9-7.7c0-8.3-2.6-9.9-8.2-10L163.2,254L163.2,254z
			 M163.2,276.1l0.1,25.1h5.5c2.5-0.1,5.2-0.4,7.5-2.6c3-3.1,3-8.3,3-10.1c0-5.6-1.2-8.6-3.5-10.3c-1.7-1.3-4.6-2.1-9-2.1H163.2
			 M203.6,251.7c3.4-0.1,4.4-0.1,7.6-0.3v49.8h5v2h-21v-2h5V254h-5v-2h8 M222.7,267.9c3.8-0.1,5-0.1,8.5-0.3l-0.1,23.5
			c0,2.8,0.1,4.9,0.7,6.3c0.9,2.3,2.9,3.3,5.3,3.3c2.1,0,3.9-0.8,5.3-2.1c2.8-2.9,2.8-6.6,2.8-9.9l-0.2-18.6h-4.8v-1.9
			c0,0,10.5-0.1,16-0.3v33.3h5v2h-5.5c-4.6,0-6.3,0.1-9.8,0.3l-0.2-5.7c-1.5,1.9-5.1,6.2-13.3,6.2c-5.4,0-8.8-2.1-10.2-4.9
			c-1.1-2.1-1-4.7-1-7l-0.1-22.1h-4.9v-2h7 M298.1,292.7c-1.9,3.6-5.8,11-16.8,11c-11.3,0-18.2-8.7-18.2-18.8
			c0-9.7,6.6-18.3,18.3-18.3c7.3,0,11.3,3.1,13,5c4,4.2,4.2,8.6,4.2,11.7h-24.3c0.1,6.2,0.2,11.8,3.3,15.1c1.7,1.7,4.1,2.5,6.5,2.5
			c7.9,0,10.9-6.6,11.9-9L298.1,292.7L298.1,292.7z M287.5,281.2c0.1-5.7,0.1-12.4-6.4-12.4c-6.2,0-6.5,6.2-6.7,12.4h12.9
			 M350.5,299.6c-5.4,2-12.1,4.4-20.5,4.4c-15,0-26.1-10.8-26.1-26.6c0-17,12.8-26.9,27.3-26.9c4.4,0,11.3,1,18.2,4.4v14.2h-1.5
			c-0.4-2.4-0.9-7-5.4-11.4c-2.8-3-6.7-4.6-10.8-4.7c-3.9,0-7.7,1.6-10.3,4.2c-3.6,3.7-5.2,9.5-5.2,20.2c0,10.3,1.2,16.7,5,20.5
			c2.1,2.2,5.5,4,9.5,4c3.9,0,8.4-1.5,12.2-5.5c4.4-4.5,4.9-8.4,5.2-11.2h2.3v14.1 M370.4,301.2h5v2h-21v-2h5v-31.1h-5v-1.9
			c0,0,11.7-0.1,15.9-0.3l0.1,7.2c0.4-1.7,1.4-3.3,2.7-4.6c1.8-1.8,4.2-2.9,6.8-2.9c4.7,0,6.7,3.7,6.7,7c0,4.4-2.9,5.2-4.6,5.2
			c-0.7,0-4.6-0.4-4.6-4.8c0-0.4,0.2-2.2,0.2-2.6c0-1.5-1.1-1.5-1.3-1.5c-1,0-2.3,1.2-3.3,2.6c-2.4,3.9-2.6,9.6-2.7,13.6l0.1,14.2
			 M425.5,285.7c0,11.5-9.2,18.3-19,18.3c-10.7,0-18.5-7.7-18.5-18.6c0-11.5,8.3-18.3,18.3-18.5
			C418.2,266.7,425.5,275.1,425.5,285.7z M399.1,284c0,11.5,0.7,18,7.7,18c7.1,0,7.6-6.7,7.6-16.3c0-8.8-0.4-16.9-7.6-16.9
			C400,268.9,399.1,275.8,399.1,284 M433.6,290.2c0.3,2.1,0.5,3.8,1.7,6c1.1,2.3,4.1,5.9,9.3,5.9c4.3,0,7.1-2.4,7.1-5.3
			c0-3.3-3.2-4.6-7.8-6.2c-6.4-2.4-11.9-4.3-11.9-12c0-9.1,8-11.2,13-11.2c4,0,7.2,1.1,10.6,2.3l0.1,9.4h-2.2
			c-0.2-1.3-0.6-2.6-1.1-3.9c-0.9-1.9-3.7-5.4-8.3-5.4c-3.9,0-5.6,2.6-5.6,4.4c0,2.2,1.9,3.2,2.7,3.5c1.1,0.5,6.9,2.6,8.2,3.1
			c4.4,1.8,9,4.3,9,10.9c0,7.6-5.9,12.6-14.6,12.6c-4.8,0-8.4-1.3-12.2-2.7l-0.2-11.5H433.6 M464.6,290.2c0.3,2.1,0.5,3.8,1.7,6
			c1.2,2.3,4.1,5.9,9.3,5.9c4.3,0,7.1-2.4,7.1-5.3c0-3.3-3.2-4.6-7.8-6.2c-6.4-2.4-11.9-4.3-11.9-12c0-9.1,8-11.2,13-11.2
			c4,0,7.2,1.1,10.6,2.3l0.1,9.4h-2.2c-0.2-1.3-0.6-2.6-1.1-3.9c-0.9-1.9-3.7-5.4-8.3-5.4c-3.9,0-5.7,2.6-5.7,4.4
			c0,2.2,1.9,3.2,2.7,3.5c1.2,0.5,6.9,2.6,8.2,3.1c4.4,1.8,9,4.3,9,10.9c0,7.6-5.9,12.6-14.6,12.6c-4.8,0-8.4-1.3-12.2-2.7
			l-0.1-11.5h2.1 M144.2,320.3h28.6c2.9,0.1,6.1,0.2,9,1.5c5.5,2.7,5.6,8.1,5.6,9.3c0,2.9-1.1,5.7-3.1,7.7
			c-3.4,3.6-7.9,4.1-11.1,4.4c3.6,0.2,9.3,0.4,13.7,4.9c1.7,1.7,3.8,4.6,3.8,9.4c0,3.3-1.1,6.8-3.8,9.6c-4.1,4.1-9.3,4.3-13.8,4.4
			h-28.9v-2h7v-48.2h-7V320.3L144.2,320.3z M163.2,322.3l-0.2,20.1h4.8c3.2,0,5.8-1,6.8-2.4c1.2-1.5,1.9-3.9,1.9-7.7
			c0-8.3-2.6-9.9-8.2-10L163.2,322.3L163.2,322.3z M163.2,344.4l0.2,25.1h5.5c2.5-0.1,5.2-0.4,7.5-2.6c3-3.1,3-8.3,3-10.1
			c0-5.6-1.2-8.6-3.5-10.3c-1.7-1.3-4.6-2.1-9-2L163.2,344.4 M203.6,320.2c3.4-0.1,4.4-0.1,7.6-0.3v49.7h5v2h-21v-2h5v-47.2h-5v-2h8
			 M222.8,336.4c3.8-0.1,4.9-0.1,8.5-0.3l-0.1,23.3c0,2.8,0.1,4.9,0.7,6.4c0.9,2.3,2.9,3.3,5.3,3.3c2,0,3.9-0.7,5.3-2.1
			c2.8-2.9,2.8-6.6,2.8-9.9l-0.1-18.6h-4.9v-1.9c0,0,10.5-0.1,16-0.3v33.3h5v2h-5.5c-4.7,0-6.3,0.1-9.8,0.3l-0.2-5.7
			c-1.5,2-5.1,6.3-13.3,6.3c-5.4,0-8.8-2.1-10.2-4.9c-1.1-2.1-1-4.8-1-7l-0.1-22h-4.9v-2h7 M297.5,362c-1.9,3.6-5.8,11-16.8,11
			c-11.3,0-18.2-8.7-18.2-18.8c0-9.7,6.5-18.3,18.3-18.3c7.3,0,11.3,3.1,13,5c4,4.2,4.2,8.5,4.2,11.7h-24.3
			c0.1,6.2,0.2,11.8,3.3,15.1c1.7,1.7,4.1,2.6,6.5,2.5c7.9,0,10.9-6.7,11.9-9L297.5,362L297.5,362z M286.9,349.5
			c0.1-5.7,0.2-12.4-6.4-12.4c-6.2,0-6.5,6.2-6.7,12.4h13.6 M305.7,353.5c0.4,2.1,0.7,3.9,1.9,6.4c4.3,8.9,12,9.1,13.6,9.1
			c5.6,0,10.4-3.4,10.4-8.6s-3.9-6.9-14.7-11.4c-1.7-0.7-3.3-1.4-4.9-2.2c-1.9-1-8-4.6-8-12.8c0-8.9,7-14.8,17-14.8
			c6.2,0,11,2.1,13.6,3.1l0.7,12h-2.3c-1-3.7-1.6-5.8-4.1-8.3c-2.5-2.6-5.8-4.4-9.3-4.4c-5.4,0-8.3,3.7-8.3,7.4c0,4.6,4.1,6.5,6,7.4
			c2.4,1.1,4.8,2,7.3,3c6.2,2.5,14,6.2,14,16c0,9.2-7.2,16-19.2,16c-6.1,0-10.8-1.7-15.5-3.4l-0.4-14.7h1.8 M349.5,320.2
			c3.7,0,4.6-0.1,7.9-0.3l-0.1,21.5c1.4-2.2,2.7-4.2,6.8-5.5c1.7-0.6,3.4-0.8,5.3-0.8c5.3,0,7.9,2.1,9.1,3.2c2.7,2.7,2.9,5.9,3,8.7
			l0.1,22.5h4.9v2h-21v-2h6l0.1-22.6c0-2.9,0-8.6-5.7-8.6c-2.1,0-4,0.9-5.5,2.3c-2.5,2.5-2.7,5.8-2.9,10l0.2,18.9h5.9v2h-22v-2h5
			v-47.2h-5v-2h8 M404.4,336.3v33.3h5v2h-21v-2h5v-31.1h-5v-1.9C388.4,336.5,399.5,336.5,404.4,336.3L404.4,336.3z M392.9,325.6
			c0-3.1,2.6-5.8,5.8-5.8c3.1,0,5.7,2.6,5.7,5.8c0,3.2-2.5,5.8-5.7,5.8C395.6,331.3,393,328.7,392.9,325.6 M446.8,362
			c-1.9,3.6-5.8,11-16.8,11c-11.3,0-18.2-8.7-18.2-18.8c0-9.7,6.5-18.3,18.3-18.3c7.3,0,11.3,3.1,13,5c4,4.2,4.1,8.5,4.2,11.7H423
			c0.1,6.2,0.2,11.8,3.3,15.1c1.7,1.7,4.1,2.6,6.5,2.5c7.9,0,10.9-6.7,11.9-9L446.8,362z M436.1,349.5c0.1-5.7,0.1-12.4-6.4-12.4
			c-6.2,0-6.5,6.2-6.7,12.4h13.4 M457.9,320.2c3.4-0.1,4.4-0.1,7.6-0.3v49.7h5v2h-21v-2h5v-47.2h-5v-2h9 M500.5,320.3
			c4.3,0,5.7-0.1,9-0.3v49.5h5v2c0,0-11.2,0.1-16,0.3v-4.6c0,0-4.1,5.3-10.9,5.3c-10.9,0-15.3-9.9-15.3-18
			c0-11.5,6.8-18.8,16.2-18.8c4.5,0,6.9,1.5,8.6,3.1c0.7,0.6,1.3,1.5,1.3,2.4v-18.9h-6v-2L500.5,320.3L500.5,320.3z M486.3,340.5
			c-2.1,2.2-2.5,6.5-2.5,13.4c0,8.4,0.2,15.4,6.9,15.4c2.1,0,4.1-0.8,5.6-2.3c2-2,2.5-4.6,2.5-13.8c0-6.6,0-14.6-7.7-14.5
			C489.3,338.6,487.6,339.3,486.3,340.5 M488.1,263.1c0-5.5,4.5-10,10-10c5.5,0,9.9,4.5,9.9,10c0,5.5-4.4,9.9-9.9,10
			C492.5,273.1,488.1,268.7,488.1,263.1z M506.4,263.1c0.2-4.4-3.3-8.2-7.7-8.4c-0.2,0-0.4,0-0.6,0c-4.5-0.2-8.2,3.3-8.4,7.8
			c0,0.2,0,0.4,0,0.6c0,4.9,3.5,8.4,8.4,8.4C502.9,271.6,506.4,268.1,506.4,263.1z M495.5,269.1h-1v-11h4.7c2.9,0,3.8,1.1,3.8,3.1
			c0,2.1-1.5,2.9-3.4,3.1l3.3,4.9h-1.9l-3.2-5h-2.4L495.5,269.1L495.5,269.1z M497.7,262.1c1.7,0,4.1,0.3,4.1-2.1c0-1.7-1.4-2-2.9-2
			h-3.4v4h2 M511.2,328.7c0-5.5,4.5-10,10-10c5.5,0,9.9,4.5,9.9,10c0,5.5-4.5,10-9.9,10C515.7,338.7,511.2,334.2,511.2,328.7z
			 M529.5,328.7c0.2-4.5-3.3-8.2-7.7-8.4c-0.2,0-0.4,0-0.6,0c-4.9,0-8.4,3.5-8.4,8.4c0,4.9,3.5,8.4,8.4,8.4
			C526,337.1,529.5,333.6,529.5,328.7z M518.6,334.4h-1v-11h4.7c2.9,0,3.8,1.1,3.8,3.1c0,2.1-1.5,2.9-3.4,3.1l3.3,4.9h-1.9l-3.2-5
			h-2.4L518.6,334.4L518.6,334.4z M520.7,328.4c1.7,0,4.1,0.3,4.1-2.1c0-1.7-1.4-2-2.9-2h-3.4v4h2"/>
	</g>
</g>
<g id="guides">
</g>
</svg>
