<?xml version="1.0" encoding="utf-8"?>

<svg version="1.1" xmlns="http://www.w3.org/2000/svg" xmlns:xlink="http://www.w3.org/1999/xlink" x="0px" y="0px"
	 viewBox="0 0 634.3 392" style="enable-background:new 0 0 634.3 392;" xml:space="preserve">
<style type="text/css">
	.xp17{fill-rule:evenodd;clip-rule:evenodd;fill:#36367C;}
</style>

<g id="Layer_2">
	<path class="xp17" d="M67.8,260.9c-11.8-8.5-18.1-14.7-24-23.8c-8.6-13.2-13.2-29.2-13.2-45c0-45.7,36.8-82.6,82.5-82.6
		c45.5,0,82.5,37,82.5,82.5c0,18.8-6.5,37.4-17.7,51.4c-4.7,5.9-8.7,9.4-19.5,17.5v-48.5h8v33.2c6.2-7.1,9.2-11.5,12.1-16.7
		c6.1-10.8,9.4-24.2,9.4-37c0-41.7-33.5-75.6-74.9-75.6c-41.5,0-74.9,33.9-74.9,76.1c0,19.3,6.8,36.3,21.1,53.2v-33h8.5V260.9z
		 M84,269.3c-1.6-0.3-5.3-2.1-8.2-3.6v-53H84V269.3z M100.5,273.6c-3-0.5-3.2-0.5-4.2-0.9c-0.9-0.2-1.2-0.2-4-0.9V158.9h8.2V273.6z
		 M117,274.3c-1.2,0.2-1.6,0.2-3.3,0.2c-2.6,0-3.5,0-4.9-0.2V158.9h8.2V274.3z M133.7,271.7c-2.6,0.9-4.9,1.4-8.2,2.1V158.9h8.2
		V271.7z M133.7,152.8l-20.7-16l-20.7,16l-4.5-5.9l25.2-19.6l25.2,19.6L133.7,152.8z M150.5,266.1c-2.6,1.2-4.1,1.9-8.3,3.8v-57h8.3
		V266.1z M241.9,144.2v-22.1c2.4-0.9,3.7-1,5.4-1c6.3,0,9.9,4.2,9.9,11.2c0,8.2-3.5,12-11,12H241.9z M238,117.8h-10.7v3.7l5.9,1
		v50.7l-5.9,1v3.5h10.1c1.7,0,7,0.2,7,0.2h5.5c5.8,0,8.9-0.4,11.5-1.4c5.8-2.3,9.4-7.9,9.4-14.5c0-8.6-4.9-14.3-14-16.2
		c7.2-3.5,10.5-7.9,10.5-14c0-8.9-6.6-14.7-16.6-14.7c-0.7,0-2.8,0.2-5.4,0.3L238,117.8z M241.9,148.5h3.8c10.1,0,14.8,4,14.8,12.6
		c0,8.2-5.1,13.2-13.2,13.2c-2.4,0-3.7-0.3-5.4-1.4V148.5z M294.9,134.2c-10.5,0-17.6,9.4-17.6,23c0,12.7,6.8,21.4,16.7,21.4
		c10.5,0,17.6-9.2,17.6-23C311.7,142.7,304.9,134.2,294.9,134.2z M294.6,138.3c4.9,0,7.7,5.8,7.7,16.2c0,13.1-2.8,19.7-8,19.7
		c-4.9,0-7.7-6.3-7.7-17.4C286.6,145.1,289.5,138.3,294.6,138.3z M349,155.8c-0.2-14.5-4.9-21.4-14.6-21.4
		c-10.1,0-16.2,8.7-16.2,23.2c0,13.6,5.9,21.1,16.4,21.1c6.8,0,9.9-2.3,14.3-10.1l-3.8-1.6c-2.6,4-4.9,5.6-8,5.6
		c-6.3,0-9.2-4.9-10.1-16.7H349z M326.8,151.5c1-9.1,3.1-13.1,7.2-13.1s5.8,3.7,6.1,13.1H326.8z M247.4,266.8v-3.7l-5-1v-50.8l5.2-1
		v-3.7h-20.1v3.8l5.7,0.9v51l-5.7,1v3.5H247.4z M292.7,266.8v-3.7l-4.5-1v-27c0-7.2-3.7-11.3-10.3-11.3c-3.8,0-6.3,1-11.5,5.1v-5.2
		h-2.6l-10.6,2.8v3.5l5,0.7v31.7l-5,1v3.5h18v-3.7l-4.5-1v-28.4c3.3-2.8,5.5-3.8,8.1-3.8c3.3,0,4.8,2.3,4.8,7.1v25.5l-4.5,0.9v3.5
		H292.7z M333.6,229.5v-5.1l-8.7,0.1c-0.7,0.3-1.4,0.3-1.6,0.3c-0.9,0-2.1-0.2-3.8-0.7c-3.1-0.7-3.8-0.9-5.6-0.9
		c-8.2,0-14.5,6.3-14.5,14.5c0,5.4,1.9,8.7,7.1,12c-5.6,3.5-7.8,6.3-7.8,9.4c0,2.4,1.4,4,4.9,5.4c-5.1,3.3-6.8,5.6-6.8,9.1
		c0,5.4,6.1,8.9,15.5,8.9c12.6,0,20.7-5.9,20.7-15.2c0-6.4-3.8-9.6-12-9.9l-10.5-0.5c-2.6-0.2-3.7-0.7-3.7-1.7s1.2-2.4,3.3-3.8
		c1.6,0.5,3,0.7,4.7,0.7c8.4,0,14.6-5.9,14.6-13.9c0-3.3-0.7-5.4-3.1-8.6L333.6,229.5L333.6,229.5z M314.3,226.9
		c4.2,0,6.3,3.7,6.3,11.3c0,6.4-1.9,9.8-5.9,9.8c-4.2,0-5.9-3.3-5.9-10.6C308.7,230.2,310.4,226.9,314.3,226.9z M311.7,265.4
		c13.4,0.9,15.3,1.6,15.3,5.2c0,4.2-5.4,7.1-12.6,7.1c-5.8,0-9.2-2.3-9.2-6.1c0-2.6,0.9-4.4,3.1-6.4L311.7,265.4z M347,240.6
		c1-9.2,3.3-13.1,7.3-13.1s5.8,4,5.9,13.1H347z M393.1,177.8v-3.7l-4.5-0.9v-26.4c0-7.8-3.5-11.9-10.2-11.9c-3.6,0-6.4,1.2-11.3,5.1
		v-26.3h-2.2l-11,2.3v3l5,1v53.2l-5.4,1v3.5h18v-3.7l-4.3-0.9v-28.1c3.5-2.9,5.4-3.8,8-3.8c3.6,0,5,2.3,5,8.5v23.6l-4.3,0.9v3.5
		H393.1z M412.3,134.8h-2.7l-10.3,2.8v2.8l5,0.9v32l-5,1v3.5h19.4v-3.7l-6.1-0.9v-22.9c0,0,2.4-5.8,5.3-7.3l4.5,2.4
		c2.3-1.7,3.3-3.3,3.3-5.2c0-3.1-1.9-5.1-5-5.1c-3.1,0-4.9,1.6-8.4,7.5V134.8L412.3,134.8z M438.2,113.8c-3,0-5.5,2.4-5.6,5.4
		c0,0,0,0.1,0,0.1c0,3.1,2.4,5.6,5.6,5.6c3.1,0,5.6-2.4,5.6-5.6c0-3-2.4-5.5-5.4-5.6C438.3,113.8,438.3,113.8,438.2,113.8z
		 M447.9,177.8v-3.7l-5-0.9V135h-2l-11,2.8v3l4.7,1v31.4l-4.7,1v3.5H447.9z M369.3,244.6c-0.4-5.8-0.5-8.5-1.2-10.8
		c-2.1-6.8-6.6-10.5-13.6-10.5c-10.1,0-16.2,8.5-16.2,23c0,13.4,5.9,21.3,16.4,21.3c6.8,0,10.5-2.6,14.5-10.1l-3.8-1.6
		c-2.6,4-4.9,5.6-8.2,5.6c-6.3,0-9.2-4.9-10.1-16.9H369.3z M392.7,266.8v-3.7l-4.7-1v-59.5h-2.3l-11.2,2.4v3l5,0.5v53.8l-5,1v3.5
		H392.7z M438,266.8v-3.7l-4.7-1v-26.9c0-7.1-3.7-11.2-10.2-11.2c-4,0-6.8,1.2-11.6,5.1v-26.5h-2.1l-11.2,2.4v3l5,0.9v53.4l-5,1v3.5
		H416v-3.7l-4.3-1v-27.9c3.5-2.9,5.5-4,8-4c3.6,0,5,2.3,5,8.5v23.7l-4.3,0.9v3.5H438z M474.6,244.6c-0.3-5.8-0.5-8.5-1.2-10.8
		c-2.1-6.8-6.6-10.5-13.6-10.5c-10.1,0-16.2,8.5-16.2,23c0,13.4,5.9,21.3,16.4,21.3c6.8,0,10.5-2.6,14.5-10.1l-3.8-1.6
		c-2.6,4-4.9,5.6-8.2,5.6c-6.3,0-9.2-4.9-10.1-16.9H474.6z M452.3,240.6c1-9.2,3.3-13.1,7.3-13.1s5.8,4,5.9,13.1H452.3z
		 M514.9,137.8c4.2,0,6.3,3.7,6.3,11.3c0,6.4-1.9,9.8-5.9,9.8c-4.2,0-5.9-3.3-5.9-10.6C509.3,141.1,511.1,137.8,514.9,137.8z
		 M493.5,177.8v-3.7l-4.5-1v-27c0-7.1-3.7-11.3-10.3-11.3c-3.8,0-6.3,1-11.5,5.1v-5.2h-2.6l-10.6,2.8v3.5l5,0.7v31.7l-5,1v3.5h18
		v-3.7l-4.5-1v-28.4c3.3-2.8,5.5-3.8,8.1-3.8c3.3,0,4.9,2.3,4.9,7.1v25.5l-4.5,0.9v3.5H493.5z M534.4,140.4v-5.1l-8.8,0.1
		c-0.7,0.2-1.4,0.2-1.6,0.2c-0.9,0-2.1-0.2-3.8-0.7c-3.1-0.7-3.8-0.9-5.6-0.9c-8.2,0-14.5,6.3-14.5,14.5c0,5.4,1.9,8.7,7.1,12
		c-5.6,3.5-7.8,6.3-7.8,9.2c0,2.4,1.4,4.2,4.9,5.6c-4.9,3.1-6.8,5.6-6.8,9.1c0,5.4,6.1,8.9,15.5,8.9c12.5,0,20.7-5.9,20.7-15.2
		c0-6.4-3.8-9.6-12-9.9l-10.5-0.5c-2.6-0.2-3.7-0.7-3.7-1.9c0-0.9,1.2-2.3,3.3-3.7c1.6,0.5,3,0.7,4.7,0.7c8.4,0,14.6-5.9,14.6-13.9
		c0-3.3-0.7-5.4-3.1-8.5H534.4z M509,176.2c17.3,1,18.7,1.4,18.7,5.4s-5.4,7.1-12.6,7.1c-5.8,0-9.2-2.3-9.2-6.1
		C505.9,180,506.7,178.3,509,176.2z M570,155.8c-0.2-14.5-4.9-21.4-14.6-21.4c-10.1,0-16.2,8.7-16.2,23.2c0,13.6,5.9,21.1,16.4,21.1
		c6.8,0,9.9-2.3,14.3-10.1l-3.8-1.6c-2.6,4-4.9,5.6-8,5.6c-6.3,0-9.2-4.9-10.1-16.7H570z M547.9,151.5c1-9.1,3.1-13.1,7.2-13.1
		s5.8,3.7,6.1,13.1H547.9z M590.1,134.8h-2.7l-10.3,2.8v2.8l5,0.9v32l-5,1v3.5h19.4v-3.7l-6.1-0.9v-22.9c0,0,2.5-5.8,5.4-7.3
		l4.5,2.4c2.3-1.7,3.3-3.3,3.3-5.2c0-3.1-1.9-5.1-5.1-5.1c-3.1,0-4.9,1.6-8.5,7.5V134.8L590.1,134.8z M490,202.7
		c-3.3,0-5.9,2.6-5.9,5.8c0,3.1,2.4,5.6,5.6,5.6c3.2,0,5.7-2.6,5.8-5.8C495.4,205.3,493,202.7,490,202.7z M499.4,266.8v-3.7l-5-1
		v-38h-2l-11,2.8v2.8l4.7,1v31.6l-4.7,1v3.5h86.2v-3.7l-5-1v-25.6c0-8.7-3.1-12.4-10.6-12.4c-4.5,0-7.5,1.6-12,5.8
		c-2.4-3.8-5.4-5.6-9.7-5.6c-4.2,0-7.5,1.4-11.8,5.1v-5.8h-2.5l-10.8,2.8v3l5,0.9v32.1l-5,1v3.5H523v-3.7l-4-1V234c3-3,5.1-4,7.9-4
		c3.8,0,5.6,2.4,5.6,7.9v24.4l-5,1v3.5h17.7v-3.7l-4.5-1v-27.9c3.5-3.1,5.4-4.2,8.2-4.2c3.7,0,5.2,2.3,5.2,8v24.2l-4.7,1v3.5h18.2
		H499.4z"/>
</g>
</svg>
