<?xml version="1.0" encoding="utf-8"?>

<svg version="1.1" xmlns="http://www.w3.org/2000/svg" xmlns:xlink="http://www.w3.org/1999/xlink" x="0px" y="0px"
	 viewBox="0 0 634.3 392" style="enable-background:new 0 0 634.3 392;" xml:space="preserve">
<style type="text/css">
	.xp54{fill:#231F20;}
	.xp55{fill:#FFFFFF;}
</style>

<g id="Layer_2">
	<g>
		<path class="xp54" d="M124.1,43.4c0-11.3,9.1-20.4,20.4-20.4h345.2c11.3,0,20.4,9.1,20.4,20.4v306.2c0,11.3-9.2,20.4-20.4,20.4
			H144.5c-11.3,0-20.4-9.1-20.4-20.4V43.4L124.1,43.4z"/>
		<path class="xp55" d="M318.9,147h-82.8v-27h83.6c6.4,0,10.6,6.7,11,12.1C331.1,138.5,326.4,147,318.9,147L318.9,147z M424.2,185
			l-64.1,92l-27.5-50h19.9c18.7,0,24.2-6.5,30.5-14.3c5.7-7,6.5-13.3,7.9-22.9c0.7-5.4-0.6-12.3-4.1-19c-2.4-4.7-4.9-6.7-8.7-10.4
			c4.7-3.2,6.8-5.9,9.5-10.9c3.7-6.7,4.1-10.9,4.1-19c-1.3-9.5-1.8-12-7.3-20.7c-3.8-5.9-10.9-13.8-31.9-13.8l-169.4-0.5V227h69
			l-16-29v-26h84.8c6.7,0,10.9,7.4,10.9,12.3c0,6-4.2,13.7-12.1,13.7h-66.2l64.8,114h74l86-127H424.2L424.2,185z"/>
	</g>
</g>
</svg>
