<?xml version="1.0" encoding="utf-8"?>

<svg version="1.1" xmlns="http://www.w3.org/2000/svg" xmlns:xlink="http://www.w3.org/1999/xlink" x="0px" y="0px"
	 viewBox="0 0 634.3 392" style="enable-background:new 0 0 634.3 392;" xml:space="preserve">

<g id="Layer_2">
	<g>
		<path d="M74,229.6c-2.5,1.2-8.2,3.1-15.3,3.1c-16.1,0-26.6-10.9-26.6-27.3c0-16.4,11.2-28.4,28.7-28.4c5.7,0,10.8,1.4,13.4,2.9
			l-2.2,7.4c-2.3-1.2-6-2.5-11.2-2.5c-12.2,0-18.9,9.2-18.9,20.3c0,12.4,7.9,20,18.5,20c5.5,0,9.2-1.3,11.9-2.5L74,229.6z"/>
		<path d="M85.2,194.5c0-6.2-0.1-11.6-0.5-16.5h8.8l0.4,10h0.3c2.5-6.8,8.5-11.2,15.1-11.2c1,0,1.8,0.1,2.7,0.3v8.6
			c-1.1-0.1-2.1-0.2-3.5-0.2c-6.9,0-11.9,5-13.2,11.8c-0.2,1.4-0.3,2.8-0.3,4.4V231h-10L85.2,194.5z"/>
		<path d="M130.5,206.9c0.2,13.1,8.5,18.5,18.2,18.5c6.9,0,11.2-1.2,14.8-2.6l1.8,6.8c-3.4,1.5-9.4,3.4-17.9,3.4
			c-16.3,0-26.2-10.9-26.2-26.9c0-16.2,9.6-28.9,25.1-28.9c17.4,0,21.9,15.3,21.9,25.1c0,2-0.1,3.5-0.3,4.6L130.5,206.9z M158.8,199
			c0.1-6.1-2.5-15.8-13.3-15.8c-9.9,0-14.1,9-14.9,15.8H158.8z"/>
		<path d="M222.1,218.7c0,4.8,0.2,9.5,0.8,13.3h-9l-0.9-7h-0.3c-2.9,4.4-9,8.3-16.8,8.3c-11.1,0-16.8-7.9-16.8-15.9
			c0-13.4,11.8-20.8,33-20.7v-1.1c0-4.6-1.2-13-12.5-12.9c-5.2,0-10.6,1.5-14.4,4.1L183,180c4.5-2.9,11.2-4.8,18.2-4.8
			c16.9,0,21,11.6,21,22.7V218.7z M212.1,204.2c-10.6-0.2-22.6,1.7-22.6,12c0,6.4,4.2,9.3,9,9.3c7.1,0,11.6-4.4,13.1-8.9
			c0.3-1,0.4-2.1,0.4-3.1V204.2z"/>
		<path d="M248.1,165.2V178h15v7h-15v28.8c0,6.6,1.8,10.4,6.9,10.4c2.5,0,4-0.2,5.3-0.7l0.4,7.4c-1.8,0.7-4.6,1.3-8.2,1.3
			c-4.3,0-7.7-1.5-9.9-4.1c-2.5-3-3.6-7.7-3.6-14V185h-8v-7h8v-9.8L248.1,165.2z"/>
		<path d="M276.1,168c-3.6,0-6.1-2.9-6.1-6.3c0-3.4,2.5-6.2,6.3-6.2c3.7,0,6.2,2.8,6.2,6.2c0,3.4-2.4,6.3-6.3,6.3H276.1z M271.1,231
			v-53h10v53H271.1z"/>
		<path d="M303,178l10.5,30.1c1.8,5,3.2,9.4,4.3,13.9h0.3c1.2-4.4,2.8-8.9,4.6-13.9l10.4-30.1h9.9l-20.8,53h-9.2l-20.2-53H303z"/>
		<path d="M354.7,206.9c0.2,13.1,8.5,18.5,18.2,18.5c6.9,0,11.2-1.2,14.8-2.6l1.8,6.8c-3.4,1.5-9.4,3.4-17.9,3.4
			c-16.3,0-26.2-10.9-26.2-26.9c0-16.2,9.6-28.9,25.1-28.9c17.4,0,21.9,15.3,21.9,25.1c0,2-0.1,3.5-0.3,4.6L354.7,206.9z M383,199
			c0.1-6.1-2.5-15.8-13.3-15.8c-9.9,0-14.1,9-14.9,15.8H383z"/>
		<path d="M497.1,192.3c0-5.6-0.1-10-0.4-14.3h9.2l0.6,9h0c2.7-5,8.9-10,17.8-10c7.4,0,19,4.4,19,22.9V232h-10v-30.8
			c0-8.6-3.2-15.9-12.3-15.9c-6.3,0-11.2,4.5-13,9.9c-0.4,1.2-0.6,3-0.6,4.5V231h-10V192.3z"/>
		<path d="M564.4,206.9c0.2,13.1,8.5,18.5,18.2,18.5c6.9,0,11.3-1.2,14.8-2.6l1.8,6.8c-3.4,1.5-9.4,3.4-17.8,3.4
			c-16.3,0-26.3-10.9-26.3-26.9c0-16.2,9.6-28.9,25.1-28.9c17.4,0,21.9,15.3,21.9,25.1c0,2-0.1,3.5-0.3,4.6L564.4,206.9z M592.8,199
			c0.1-6.1-2.5-15.8-13.3-15.8c-9.9,0-14.1,9-14.9,15.8H592.8z"/>
		<g>
			<path d="M448.1,186.7l-22.6,6.9l1.4-16.8c0,0,7-2,20.2-8.1c10.9-5.1,16.4-10.1,17.8-11.4c-6.2-3.4-13.2-5.3-20.7-5.3
				c-24.1,0-43.6,19.8-43.6,44.2c0,22.9,17.1,41.6,38.9,44L448.1,186.7z"/>
			<path d="M471.8,162L459,237.7c16.8-6.2,28.7-22.4,28.7-41.6C487.7,182.4,481.5,170.1,471.8,162z"/>
		</g>
	</g>
</g>
</svg>
