<?xml version="1.0" encoding="utf-8"?>

<svg version="1.1" xmlns="http://www.w3.org/2000/svg" xmlns:xlink="http://www.w3.org/1999/xlink" x="0px" y="0px"
	 viewBox="0 0 634.3 392" style="enable-background:new 0 0 634.3 392;" xml:space="preserve">
<style type="text/css">
	.xp18{fill:#0067CD;}
</style>

<g id="Layer_2">
	<path class="xp18" d="M33.1,120v154h88c4.3-13.8,9.5-28.7,13.7-42.7c0.3-0.3,0.3-1.1,0-1.3H86.1v-13H139c4.5-13.3,8.6-27.1,13-41
		H87.1v-12l69.3-0.2l7.7-24.8c0.1,0,0.1,0.2,0.1,0.3c1.6-6.5,3.8-12.9,5.7-19.3H33.1z"/>
	<path class="xp18" d="M243.1,120v45h45v109h71.3c-12.2-8.2-23-23-28.8-37.7c-7.9-18.8-8.2-45.4-0.4-64.3c0.3-0.4,0-1.2,0.5-1.3
		c0.4-1.8,1.3-3.8,2.2-5.4c3.7-8.1,8.8-15.7,14.4-21.8c0.9-1.2,1.8-2.1,3.1-2.7l-0.3-0.1c1.6-1.8,3.1-3.1,4.7-4.3
		c0.5-0.4,0.7-0.8,1.4-1v-0.3c2-1.6,3.7-3,6-4.3c1-0.7,2-1.3,3.1-1.8c5.5-3.6,12.8-7.3,19.9-9.1H243.1z"/>
	<path class="xp18" d="M454.1,120v154h46v-96c3.2,10.8,7,21.5,10.1,32.2c0.1,0.6,0.2,1.5,0.5,1.7c3.2,10.8,6.1,21.8,9.5,32.6
		c1,3.9,2.3,7.7,3.3,11.6h0.1c1.6,6.1,3.5,12,5.2,18h74.2V120h-46v96c-2.5-7.6-5-15.5-7.3-23.4l-0.1,0.1
		c-7.3-24.2-14.4-48.6-21.6-72.6L454.1,120z"/>
	<path class="xp18" d="M217.5,149c-1,2.9-1.9,6.2-2.8,9.3c-0.1,0-0.1-0.1-0.1-0.1c-3.8,13.4-8.3,27.1-12.1,40.8h29.2
		c-1.5-5.3-3-11-4.4-16h-0.1C224,171.8,220.9,160.4,217.5,149L217.5,149z"/>
	<path class="xp18" d="M192.2,233c-1.2,4-2.2,7.7-3.5,11.6l-0.1-0.2c-2.9,9.9-5.3,19.8-8.4,29.6h73.6c-3.9-13.7-7.9-27.4-11.9-41
		L192.2,233L192.2,233z"/>
	<circle class="xp18" cx="408.6" cy="203.5" r="31.5"/>
</g>
</svg>
