<?xml version="1.0" encoding="utf-8"?>
<!-- Generator: Adobe Illustrator 24.3.0, SVG Export Plug-In . SVG Version: 6.00 Build 0)  -->
<svg version="1.1" xmlns="http://www.w3.org/2000/svg" xmlns:xlink="http://www.w3.org/1999/xlink" x="0px" y="0px"
	 viewBox="0 0 634.3 392" style="enable-background:new 0 0 634.3 392;" xml:space="preserve">
<style type="text/css">
	.xp60{fill-rule:evenodd;clip-rule:evenodd;fill:#E03A3E;}
	.xp61{fill-rule:evenodd;clip-rule:evenodd;fill:#FEC057;}
	.xp62{fill-rule:evenodd;clip-rule:evenodd;fill:#0060A9;}
</style>

<g id="Layer_2">
	<g>
		<path class="xp60" d="M232.4,198.6H229c-2.6,0-4.8,2.1-4.8,4.6V235c0,2.5,2.2,4.7,4.8,4.7h3.4c2.5,0,4.7-2.1,4.7-4.7v-31.8
			C237,200.7,234.9,198.6,232.4,198.6L232.4,198.6z"/>
		<path class="xp60" d="M232.4,245H229c-2.6,0-4.8,2.1-4.8,4.7v31.5c0,2.8,2.2,4.9,4.8,4.9h3.4c2.5,0,4.7-2.1,4.7-4.9v-31.5
			C237,247.2,234.9,245,232.4,245L232.4,245z"/>
		<path class="xp61" d="M213.2,245h-3.4c-2.6,0-4.8,2.1-4.8,4.7v31.5c0,2.8,2.2,4.9,4.8,4.9h3.4c2.5,0,4.7-2.1,4.7-4.9v-31.5
			C217.8,247.2,215.7,245,213.2,245L213.2,245z"/>
		<path class="xp60" d="M270.7,291.3h-3.4c-2.5,0-4.8,2.1-4.8,4.6v31.8c0,2.5,2.3,4.7,4.8,4.7h3.4c2.5,0,4.6-2.1,4.6-4.7v-31.8
			C275.4,293.4,273.3,291.3,270.7,291.3L270.7,291.3z"/>
		<path class="xp60" d="M309.1,106.2h-3.4c-2.5,0-4.8,2.1-4.8,4.6v31.8c0,2.5,2.3,4.7,4.8,4.7h3.4c2.5,0,4.6-2.1,4.6-4.7v-31.8
			C313.7,108.3,311.6,106.2,309.1,106.2L309.1,106.2z"/>
		<path class="xp60" d="M270.7,60h-3.4c-2.5,0-4.8,2.1-4.8,4.7v31.8c0,2.5,2.3,4.7,4.8,4.7h3.4c2.5,0,4.7-2.1,4.7-4.7V64.7
			C275.4,62.2,273.3,60,270.7,60L270.7,60z"/>
		<path class="xp61" d="M194,152.4h-3.4c-2.6,0-4.8,2.1-4.8,4.7v31.8c0,2.5,2.2,4.6,4.8,4.6h3.4c2.5,0,4.6-2.1,4.6-4.6V157
			C198.6,154.5,196.5,152.4,194,152.4L194,152.4z"/>
		<path class="xp61" d="M328.3,106.2h-3.4c-2.5,0-4.8,2.1-4.8,4.6v31.8c0,2.5,2.3,4.7,4.8,4.7h3.4c2.5,0,4.7-2.1,4.7-4.7v-31.8
			C332.9,108.3,330.8,106.2,328.3,106.2L328.3,106.2z"/>
		<path class="xp62" d="M287.5,228.8h-30.1c-0.7,0-1.2-0.5-1.2-1.2v-27.1c0-0.7,0.5-1.2,1.2-1.2h23.8c2.4,0,4.3-1.9,4.3-4.2v-2.7
			c0-2.2-1.9-4.1-4.3-4.1h-23.8c-0.7,0-1.2-0.5-1.2-1.2v-22.4c0-0.7,0.5-1.2,1.2-1.2H286c2.3,0,4.1-1.9,4.1-4.1v-2.9
			c0-2.3-1.9-4.1-4.1-4.1h-37.6c-2.7,0-5.1,2.2-5.1,4.9v77.5c0,2.7,2.4,4.9,5.1,4.9l39.1,0c2.3,0,4.1-1.9,4.1-4.2V233
			C291.6,230.7,289.7,228.8,287.5,228.8L287.5,228.8z"/>
		<path class="xp62" d="M420.2,152.4c17.8,0,27.9,11.9,27.9,28.1V211c0,17.8-10.7,28.7-28.7,28.7h-23.9c-3,0-4.9-1.8-4.9-4.9v-77.5
			c0-2.7,2.2-4.9,4.9-4.9L420.2,152.4L420.2,152.4z M418.3,228.4c11.4,0,17-6,17-17.5V182c0-11.7-5.4-18.4-16.9-18.4l-14,0
			c-0.7,0-1.2,0.5-1.2,1.2v62.3c0,0.7,0.5,1.2,1.2,1.2L418.3,228.4L418.3,228.4z"/>
		<path class="xp62" d="M309.1,198.6h-3.4c-2.5,0-4.8,2.1-4.8,4.6V235c0,2.5,2.3,4.7,4.8,4.7h3.4c2.5,0,4.6-2.1,4.6-4.7v-31.8
			C313.7,200.7,311.6,198.6,309.1,198.6L309.1,198.6z"/>
		<path class="xp62" d="M372.7,152.4h-12.1c-2,0-3.6,1.2-4.1,3l-17,60.3l-16.8-60.3c-0.6-1.8-2.5-3-4.3-3H306c-2.7,0-5.1,2.2-5.1,4.9
			l0,31.5c0,2.5,2.3,4.6,4.8,4.6h3.4c2.5,0,4.6-2.1,4.6-4.6c0,0,0-15.1,0-15.5c0-0.4,0.8-0.6,0.9-0.1c0.2,0.7,18.2,63.1,18.2,63.1
			c0.7,2.3,2.5,3.4,4.5,3.4h3.9c2,0,3.8-1.2,4.4-3.4l18.3-63c0.1-0.3,0.9-0.4,0.9,0.1c0,0.3,0,61.4,0,61.4c0,2.7,2.2,4.9,4.9,4.9
			h2.9c2.7,0,4.9-2.2,4.9-4.9v-77.5C377.6,154.6,375.4,152.4,372.7,152.4L372.7,152.4z"/>
	</g>
</g>
</svg>
