<?xml version="1.0" encoding="utf-8"?>

<svg version="1.1" xmlns="http://www.w3.org/2000/svg" xmlns:xlink="http://www.w3.org/1999/xlink" x="0px" y="0px"
	 viewBox="0 0 634.3 392" style="enable-background:new 0 0 634.3 392;" xml:space="preserve">
<style type="text/css">
	.xp21{fill:#EF3E33;}
</style>

<g id="Layer_2">
	<g>
		<path class="xp21" d="M240.2,114.1v162.9h50V152l33.3,126h51.4l32.1-126v126h52V114.1h-65.8c-16.1-0.2-20.5,13.9-24.3,30.1
			l-19.3,72.3l-19.3-72.3c-3.8-16.1-8.3-30.3-24.3-30.1H240.2z M190.2,228c13.9,0.1,22.5-11.6,22.6-25.6
			c-0.1-14.6-8.7-26.2-22.6-26.3h-36v-17h67.9v-45H95.3v62H56.8c-14.9,0.1-23.7,12-23.9,26.8c0.2,14.3,9,26.2,23.9,26.1h38.5v49h59
			v-50L190.2,228L190.2,228z M544.2,277.9c-45.3-0.2-70.5-36.9-70.1-82.3c-0.4-45.1,24.8-81.8,70.1-81.6h58.7v48h-44.4
			c-18.4,0.2-28,14.9-28,33c0,18.4,9.5,33.2,28,33h44.4v50H544.2z"/>
	</g>
</g>
</svg>
