<?xml version="1.0" encoding="utf-8"?>

<svg version="1.1" xmlns="http://www.w3.org/2000/svg" xmlns:xlink="http://www.w3.org/1999/xlink" x="0px" y="0px"
	 viewBox="0 0 634.3 392" style="enable-background:new 0 0 634.3 392;" xml:space="preserve">
<style type="text/css">
	.xp22{fill:#DA2128;}
	.xp23{fill:#FFFFFF;}
</style>

<g id="Layer_2">
	<g>
		<path class="xp22" d="M36.4,196c0-60.8,125.7-110,280.8-110c155.1,0,280.8,49.2,280.8,110c0,60.8-125.7,110-280.8,110
			C162.1,306,36.4,256.8,36.4,196L36.4,196L36.4,196z"/>
		<polygon class="xp23" points="135.4,155.2 130.5,169.8 115.9,169.8 110.5,185.9 123.5,185.9 118.6,200.5 105.6,200.5 94.7,232.8
			80.5,232.8 106.6,155.2 135.4,155.2 		"/>
		<path class="xp23" d="M144.9,219.9c9.4,0,16.7-19.7,18.8-25.9c2.3-6.9,8.1-25.9-1.4-25.9c-9.4,0-16.5,19-18.8,25.9
			C141.4,200.2,135.4,219.9,144.9,219.9L144.9,219.9z M178.8,194c-9.8,29.2-26.1,40.1-38.8,40.1c-12.7,0-21.6-10.9-11.7-40.1
			c9.8-29.2,26.1-40.2,38.8-40.2C179.8,153.9,188.7,164.8,178.8,194L178.8,194z"/>
		<path class="xp23" d="M201.3,188.4l2.4,0.1c6.5,0,10.7-4.7,12.8-11.2c1.9-5.6,0.9-10.1-6.4-9.7h-1.9L201.3,188.4L201.3,188.4z
			 M172.2,232.8l26.1-77.6h14.2c9.1,0,24.9,1,17.7,22.2c-2.9,8.6-8.5,15.9-16.9,20.1l0.6,35.3h-15.1l-0.4-35.9h-0.2L186,232.8H172.2
			L172.2,232.8z"/>
		<polygon class="xp23" points="280.2,155.2 275.5,169.3 264.7,169.3 243.3,232.8 229.1,232.8 250.4,169.3 239.9,169.3 244.6,155.2
			280.2,155.2 		"/>
		<path class="xp23" d="M324.5,194.8c3.3-9.9,5.7-25.5-6-25.5l-16.7,50C312.9,219.9,321.3,204.5,324.5,194.8L324.5,194.8z M283,233.3
			l25.9-77.6h10.7c2.5,0,33.4-3.9,19,39.4c-7.4,22.1-20.6,38.2-43,38.2H283L283,233.3z"/>
		<path class="xp23" d="M361.1,220.1c9.3,0,16.5-19.7,18.5-25.8c2.3-6.9,7.9-25.8-1.4-25.8c-9.3,0-16.2,18.9-18.5,25.8
			C357.6,200.5,351.8,220.1,361.1,220.1L361.1,220.1z M394.6,194.3c-9.6,29.1-25.7,40.1-38.2,40.1c-12.5,0-21.3-10.9-11.7-40.1
			c9.6-29.1,25.7-40,38.2-40C395.4,154.2,404.2,165.1,394.6,194.3L394.6,194.3z"/>
		<path class="xp23" d="M431.8,194.8c3.3-9.9,5.7-25.5-6-25.5l-16.6,50.1C420.3,219.9,428.6,204.4,431.8,194.8L431.8,194.8z
			 M390.5,233.3l25.8-77.6H427c2.4,0,33.3-3.9,18.8,39.4c-7.4,22.1-20.5,38.2-42.8,38.2H390.5L390.5,233.3z"/>
		<path class="xp23" d="M502.5,189.6l-2,6.1c-5.6,16.7-16.7,38.9-36.2,38.9c-19.5,0-18.3-22.7-12.5-40.1c6-18.1,19-40.9,39.5-40.9
			c11,0,15.7,7.5,15.1,18.6l-15.9,5.8c0.6-3.9,1.5-10.1-3.9-10.1c-9.5-0.6-16.9,18.8-19.4,26.1c-2.7,8.1-8.2,26.1,2.3,26.1
			c7.3,0,12-10.6,13.8-16h-9.1l4.9-14.6H502.5L502.5,189.6z"/>
		<polygon class="xp23" points="551.5,155.7 546.7,169.8 532,169.8 526.3,186.5 539.2,186.5 534.2,201 521.4,201 515.4,218.7
			530.2,218.7 525.4,232.8 496.2,232.8 522.5,155.2 551.6,155.7 		"/>
	</g>
</g>
</svg>
