<?xml version="1.0" encoding="utf-8"?>

<svg version="1.1" xmlns="http://www.w3.org/2000/svg" xmlns:xlink="http://www.w3.org/1999/xlink" x="0px" y="0px"
	 viewBox="0 0 634.3 392" style="enable-background:new 0 0 634.3 392;" xml:space="preserve">
<style type="text/css">
	.xp24{fill-rule:evenodd;clip-rule:evenodd;fill:#28539C;}
	.xp25{fill-rule:evenodd;clip-rule:evenodd;fill:#F4CF53;}
</style>

<g id="Layer_2">
	<g>
		<g>
			<path class="xp24" d="M34.1,129h570v137h-570V129z"/>
			<path class="xp25" d="M222.9,175.1c-12.6-0.2-24.3,9.6-26.9,23.2c-3,13.6,5.6,25,20.1,24.8c14.7-0.5,26-6.1,29.5-23.9
				C248.9,183.5,236.5,175.4,222.9,175.1L222.9,175.1z M226.9,189.9c-1.6,7-3.3,14.3-5.6,21.3c-0.7,2.8-2.6,6.1-5.4,5.6
				c-2.3-0.5-2.3-4.2-2.1-7c1.4-7.5,3.5-15,5.8-22.2c1.2-3.5,2.3-6.6,5.4-6.3C229,181.7,227.4,187.1,226.9,189.9z M169.6,175.1
				c-12.9-0.2-24.3,9.6-27.1,23.2c-2.8,13.6,5.6,25,20.4,24.8c14.5-0.5,26.2-6.1,29.5-23.9C195.5,183.5,182.9,175.4,169.6,175.1
				L169.6,175.1z M173.5,189.9c-1.6,7-3.5,14.3-5.6,21.3c-0.7,2.8-2.6,6.1-5.6,5.6c-2.3-0.5-2.3-4.2-1.6-7c1.2-7.5,3.3-15,5.4-22.2
				c1.6-3.5,2.3-6.6,5.4-6.3C175.7,181.7,174,187.1,173.5,189.9L173.5,189.9z M115.3,210.6c-0.5,1.6-1.6,3.5-4.2,3.3
				c-3.3,0.2-3.3-2.6-3-4.2l5.9-21.8c0.7-2.6,2.3-4.7,6.6-4.5c3,0,5.2,1.6,7.3,3.7l4.9-6.6c-4.5-3.3-9.4-4.7-15-4.9
				c-18.5,0.2-28.3,11.2-30.9,21.6c-3.3,9.6,0,25.1,16.4,25.8h29l6.6-26h-20.1L115.3,210.6L115.3,210.6z M327,173.7
				c0.2-0.2,0.2-0.5,0.2-0.7c-0.5-2.6-0.5-4.7-0.7-7h0.2l-1.2-1.9L310,174.7c0.9,2.8,2.8,5.8,4,8.7L327,173.7z M325.6,211.6
				c1.2-1.4,2.6-2.6,4-4l1.4-1.2l1.6-1.2l1.6-1.2l1.9-1.4l1.6-0.9l2.1-1.2l2.1-1.2l2.3-0.9l0.2-0.2l-3.7-6.8
				c-1.5,1.8-3.2,3.4-4.9,4.9l-3.3-3.3l-1.9-2.3c-0.2-0.9-0.9-1.9-1.2-2.6l-13.3,8.2l8.7,15.7L325.6,211.6L325.6,211.6z
				 M327.5,187.1l-12.4-0.5c0.5,1.6,0.5,3.3,0,5.4c0,0.7-0.2,1.9-0.7,3.3L327.5,187.1L327.5,187.1z M327,176.8l-10.8,8l11.9,0.5
				c-0.2-0.7-0.2-1.4-0.5-2.3l-0.5-2.8C327,178.9,327,177.7,327,176.8L327,176.8z M421.6,202h10.7l2.3-9h-11l2.2-9h16.7l2.3-9h-38.1
				L395,223h38.1l2.5-9h-16.9L421.6,202L421.6,202z M393,176l-13.1,15.7l-4.2-15.7h-23.2l8,26.2l-5.1,20.8h22.4l4.4-19.6l22.2-27.4
				H393z M538.1,176h-32.7l-13.1,47h22.4l5.1-17.3l4.4,17.3h22l-4.7-18c6.6-3.7,9.1-7.5,10.5-15.4
				C553.3,177.6,543.9,176.2,538.1,176L538.1,176z M530.1,185c-0.2,3.7-1.2,7.2-2.1,10.8c-0.7,1.9-0.9,4.2-4.2,4.2H521l3.7-18h3.5
				C529.9,181.8,530.8,183.4,530.1,185L530.1,185z M465.1,176l-28.5,47h10l4.7-8h15.3l1.2,8h21.2l-5.6-47H465.1L465.1,176z
				 M456.7,206l7.5-12.4l1.2,12.4H456.7L456.7,206z M284.5,176h-28.3l-11.9,47h27.4c20.3-0.2,27.6-13.3,29.7-26.2
				C303.2,184,295,176.7,284.5,176z M282.2,188.7l-5.9,21.8c-0.7,2.8-2.1,5.2-5.9,5.5h-3.6l8.8-33h4.7
				C282,183,283.2,185.4,282.2,188.7L282.2,188.7z"/>
			<path class="xp25" d="M361.9,171.8c-0.2-1.6-1.9-2.3-3.3-3c3.3-0.9,6.3-1.4,7-2.3c0.2-0.2-0.5-1.2-2.1-2.5l17-0.2
				c6.1,0,13.5-5.5,13.8-11.1c-1.6,0.9-4.4,2.1-6.8,2.3l-36-0.5c-6.3-0.7-13.3,0-16.8,2.1c-5.4,3.9-4.9,9.9-4,15.9
				c-0.7,6.7,0.9,14.3,5.1,18c2.3-2.3,4.2-4.6,4.9-8.3c0.7,1.2,1.9,1.8,3.3,2.3c0.9-2.3,0.9-4.4,0.9-6.7c0.7,0.9,1.6,1.8,3,2.3
				c1.2-3.2,1.4-6,1.4-8.8C353.7,173.5,358.4,173.7,361.9,171.8L361.9,171.8z M339.2,178.2c-1.4-0.7-2.6-1.9-4.2-2.6
				c0-1.6,0-3.5-0.9-4.9c1.6,1.2,3.5,1.6,5.6,1.9C339.2,174.4,339,176.3,339.2,178.2L339.2,178.2z M349.5,165.1
				c-1.4,2.1-3,2.6-5.6,2.1c-2.3,1.4-4.7,1.2-7.2-0.2c2.3-0.9,4.4-2.1,5.4-4c3,0.7,5.4,0.7,6.3-2.3c2.3,1.4,4.7,1.2,7,0.2
				C354.7,163.4,352.8,164.8,349.5,165.1z M345.3,200.9l-2.1,1.2l-2.1,0.7l-1.9,1.2l-1.6,1.2l-1.6,1.2l-1.9,1.2l-1.2,1.2l-1.6,0.9
				l-2.6,2.6l-2.6,2.6c-3.1,3.3-6.3,6.6-9.6,9.8l-2.3,2.6l-1.4,1.2l-1.4,1.2l-1.4,1.4l-1.4,0.9l-1.9,1.2l-1.4,1.2l-2.1,0.7l-1.6,1.2
				l-2.3,0.9l-1.6,0.9l2.3,3c23.2-9.6,24.3-26.2,48.2-37l-2.1-3.3L345.3,200.9L345.3,200.9z M300.1,234.1l2.1-0.9l1.4-1.2l1.9-0.7
				l1.4-1.2l1.6-1.2l1.2-1.2l2.8-2.1l2.3-2.3c2.8-2.8,5.4-6.1,8.2-8.9l0.5-0.5l-9.6-17.1c-3,6.6-10.8,16.4-11.7,26.7
				c-4.2,3.3-9.8,7-6.3,12.4h0.2l2.1-0.9L300.1,234.1L300.1,234.1z"/>
		</g>
	</g>
</g>
</svg>
