<?xml version="1.0" encoding="utf-8"?>

<svg version="1.1" xmlns="http://www.w3.org/2000/svg" xmlns:xlink="http://www.w3.org/1999/xlink" x="0px" y="0px"
	 viewBox="0 0 634.3 392" style="enable-background:new 0 0 634.3 392;" xml:space="preserve">
<style type="text/css">
	.xp56{fill-rule:evenodd;clip-rule:evenodd;fill:#010202;}
</style>

<g id="Layer_2">
	<g>
		<g>
			<path class="xp56" d="M563.4,135c-0.6,0-1.1,0-1.6,0c-11.9,0-23.8,0-35.7,0c-1.4,0-1.4,0-1.4,1.4c0,12.4,0,24.8,0,37.1
				c0,0.1,0,0.1-0.1,0.4c-1.6-0.1-3.3-0.2-4.9-0.4c-1.5-0.2-3-0.5-4.4-0.9c-5.2-1.4-9.9-3.7-14.2-7c-3.2-2.5-6-5.4-8.3-8.7
				c-2.3-3.4-4.1-7.1-5.1-11.1c-0.2-0.7-0.3-1.3-0.5-2c-0.1-0.3-0.5-0.5-0.7-0.7c-0.1,0.3-0.4,0.5-0.4,0.8c-0.1,0.8,0,1.7,0,2.5
				c0,21.3,0,42.6,0,63.9c0,2.2,0.2,2.4,2.4,2.4c11.6,0,23.2,0,34.7,0c1.8,0,1.8,0,1.8-1.8c0-12,0-24,0-36c0-0.7,0.1-1,0.8-0.8
				c0.6,0.1,1.2,0.1,1.7,0.1c4.9,0.2,9.4,1.6,13.8,3.7c4.3,2,8.1,4.7,11.4,8.2c3.7,3.9,6.5,8.3,8.2,13.4c0.5,1.6,1,3.2,1.5,4.8
				c0.1,0.3,0.4,0.4,0.6,0.6c0.2-0.2,0.5-0.4,0.5-0.7c0.1-0.9,0-1.8,0-2.7c0-21.6,0-43.1,0-64.7c0-1.6,0-1.7,1.7-1.6
				c2.4,0.3,4.8,0.6,7.2,1.1c2.2,0.5,4.4,1.4,6.6,2.1c2.9,1.1,5.5,2.8,8,4.7c3.3,2.6,6.3,5.6,8.6,9.2c2.4,3.8,4.4,7.7,5.3,12.2
				c0.4,1.9,1,3.8,1.4,5.8c0.2,0.9,0,2,0.1,2.9c0.3,2.8-0.4,5.5-1,8.2c-1.2,5.6-3.5,10.9-6.9,15.5c-3.9,5.2-8.8,9.3-14.7,12
				c-4.8,2.2-9.9,3.5-15.2,3.4c-1,0-1.2,0.6-1.3,1.3c-0.1,0.7,0,1.5-0.1,2.2c-0.1,4.7-1.4,9.1-3.4,13.2c-2.8,6-7.1,11-12.4,14.9
				c-3.5,2.5-7.3,4.4-11.5,5.6c-5,1.5-10.1,1.9-15.2,1.4c-5.1-0.5-9.9-2-14.3-4.4c-4.5-2.4-8.4-5.6-11.6-9.5
				c-3.1-3.9-5.4-8.2-6.9-12.9c-1-3.3-1.5-6.7-1.7-10.2c-0.1-1.3-0.2-1.5-1.5-1.5c-7.7-0.3-14.6-2.6-20.9-7
				c-6.1-4.3-10.5-10-13.4-16.8c-0.9-2-1.8-4.2-2.2-6.3c-0.7-3.5-1-7.1-0.8-10.7c0.3-5.3,1.9-10.3,4.2-15.1c2.4-5,5.9-9.2,10.1-12.6
				c3-2.4,6.2-4.3,9.8-5.8c4.3-1.7,8.7-2.6,13.3-2.7c1,0,1.3-0.4,1.4-1.4c0.2-5.2,1.2-10.2,3.4-15c3.3-7.1,8.3-12.7,15-16.8
				c3.3-2.1,6.9-3.5,10.7-4.5c4.4-1.2,8.9-1.5,13.4-1.3c1,0.1,1.9,0.6,2.9,0.8c6.1,1.1,11.7,3.6,16.7,7.4c3.9,3,7.1,6.6,9.6,10.8
				c2.4,4,4,8.5,4.9,13.2c0.3,1.6,0.3,3.2,0.4,4.9C563.3,134,563.4,134.5,563.4,135z"/>
			<path class="xp56" d="M32.1,231c0-6.5,0-13,0-19.4c0-1.4,0-1.4,1.4-1.4c2.5,0,5,0,7.5,0c0.8,0,1.1,0.2,1.1,1
				c0,1.3,0.1,2.6,0.2,3.9c0,0.3,0.3,0.6,0.5,0.9c0.2-0.2,0.5-0.3,0.7-0.5c1.4-1.6,2.5-3.4,4.5-4.5c1.5-0.8,2.9-1.5,4.6-1.5
				c2.6-0.1,5,0.2,7.1,1.8c1.6,1.3,2.9,3,4.2,4.6c0.1,0.2,0.3,0.1,0.4-0.1c1.7-3.3,4.7-5.1,8.2-6.1c0.1,0,0.3-0.1,0.4-0.1
				c2.5-0.3,5-0.2,7.4,0.9c2.1,0.9,3.6,2.4,4.5,4.4c0.8,1.8,1.3,3.9,1.7,5.9c0.4,2.3,0.4,4.7,0.5,7c0.1,7.6,0,15.1,0,22.7
				c0,1.6-0.7,1.3-4,0.9c-0.6-0.1-1.2-0.1-1.7,0c-3.1,0.4-4,0.7-4-1c0-8.7,0-17.5,0-26.2c0-0.1,0-0.3,0-0.4
				c-0.4-3.3-1.6-6.3-4.6-6.2c-1.4,0-2.9,0-4,0.6c-2.5,1.3-3.4,3.7-3.8,6.4c-0.1,0.6-0.1,1.3-0.1,2c0,8,0,16.1,0,24.1
				c0,1.5-0.6,1.2-4.4,0.7c-0.5-0.1-1-0.1-1.5,0c-3.2,0.7-3.7,0.6-3.7-0.9c0-8.4,0.1-16.8,0-25.2c0-2-0.4-4-1.5-5.8
				c-0.7-1.1-1.7-1.9-3.2-1.8c-1.4,0.1-2.9-0.3-4.2,0.7c-2,1.5-3.5,3.3-3.5,5.9c-0.1,8.8-0.1,17.5,0,26.3c0,1-0.3,1.3-1.3,1.3
				c-2.8-0.1-5.5,0-8.3,0c-0.8,0-1.1-0.2-1.1-1C32.1,244.1,32.1,237.6,32.1,231C32.1,231,32.1,231,32.1,231z"/>
			<path class="xp56" d="M99,219.4c-0.1-0.2-0.3-0.4-0.3-0.5c-0.2-1.9-0.3-3.8-0.5-5.7c-0.1-0.8,0.3-1.2,1-1.5
				c2.6-0.8,5.1-1.9,7.7-2.4c2.3-0.4,4.6-0.2,7-0.1c2.5,0.1,4.9,0.7,7.1,2c3.3,1.9,4.9,4.9,5.5,8.5c0.3,1.9,0.4,3.9,0.5,5.8
				c0.1,7.4,0,14.8,0.1,22.2c0,0.9,0.2,1.9,0.4,2.8c0.2,0.7,0,0.9-0.7,0.9c-2.2,0-4.4,0-6.6,0c-1.4,0-1.7-0.5-2-2.3
				c-0.1-0.7,0.3-1.6-0.7-2c-1.1-0.4-1.4,0.7-2,1.1c-2,1.7-4.2,3-6.9,3.3c-2.2,0.3-4.3,0.2-6.3-0.3c-3.9-1-6.3-3.6-7.7-7.2
				c-0.6-1.6-1-3.3-0.8-5.1c0.4-3.4,1.4-6.5,4.2-8.9c2.2-1.9,4.9-2.6,7.5-3.3c1.4-0.4,2.9-0.6,4.4-0.7c2.3-0.2,4.5-0.3,6.8-0.4
				c1.1,0,1.5-0.4,1.3-1.4c-0.3-2.5-0.8-4.9-2.9-6.6c-1.1-0.9-2.5-1.3-3.9-1.4C106.5,215.7,103.8,216.4,99,219.4z M114.5,230.8
				c-1.5,0.1-2.7,0.1-3.8,0.3c-0.7,0.1-1.5,0.4-2.2,0.6c-2.6,0.9-5.7,2.9-5.3,6.7c0.1,0.4,0,0.9,0,1.3c0.1,2.5,1.1,4.2,3.5,5.1
				c3.8,1.4,8,0.1,9.7-3.7c1.3-3,1.6-6.2,1.5-9.5c0-0.3-0.6-0.8-1-0.8C116,230.7,115.1,230.8,114.5,230.8z"/>
			<path class="xp56" d="M171.8,268.4c-0.2-1.2,0.6-1.3,1.4-1.4c0.9-0.1,1.8-0.1,2.7-0.4c1.4-0.4,2.1-1.5,2.1-3c0-16,0-32,0-48.1
				c0-2-1.1-3.2-3.2-3.4c-0.8-0.1-1.5,0-2.3-0.1c-0.3,0-0.8-0.3-0.9-0.6c-0.1-0.6,0.2-0.8,0.8-0.8c1.7-0.1,3.5-0.2,5.2-0.4
				c1.7-0.2,3.5-0.6,5.4-1c0.1,0.5,0.1,1.1,0.2,1.6c0.2,1.1,0.4,2.1,0.6,3.2c0.1,0.3,0.4,0.8,0.7,0.8c0.3,0.1,0.8-0.1,1-0.4
				c1.1-1,2-2,3.1-3c1.3-1.2,2.8-1.8,4.5-1.9c2.4-0.1,4.9-0.3,7.2,0.6c2.6,1,4.7,2.7,6.5,4.8c2.1,2.5,3.2,5.5,4.2,8.5
				c0.5,1.4,0.5,2.9,0.6,4.4c0.1,1.9,0.1,3.8,0,5.7c-0.2,3.9-1.5,7.5-3.5,10.9c-1.1,1.8-2.4,3.4-4.1,4.6c-3.8,2.6-8,3.2-12.3,2
				c-2-0.5-3.6-1.8-4.8-3.5c-0.4-0.6-0.7-1.6-1.6-1.3c-0.9,0.3-0.6,1.3-0.6,2c0,4.7,0,9.5,0,14.2c0,0.9,0.2,1.9,0.7,2.8
				c0.6,1.2,1.8,1.7,3.2,1.6c0.6,0,1.3-0.1,1.9,0.1c0.3,0,0.6,0.4,0.7,0.7c0.1,0.5-0.1,0.8-0.7,0.8c-6.1,0-12.2,0-18.2,0
				C171.9,268.6,171.9,268.5,171.8,268.4z M204.1,231C204.1,231,204.1,231,204.1,231c0-2.1,0-4.1,0-6.2c0.1-3.2-1-6.1-2.5-8.9
				c-1-1.8-2.4-3.4-4.5-3.8c-4.6-1-7-0.2-9.7,3.8c-2.1,3.1-2.5,6.8-2.6,10.4c-0.1,3.9-0.3,7.8,0.5,11.7c0.6,2.9,1.1,5.8,2.9,8.3
				c2.4,3.3,5.3,4.1,9.5,2.9c2.4-0.7,3.9-2.5,4.7-4.8c0.7-1.8,1.5-3.6,1.7-5.4C204.3,236.3,204.1,233.7,204.1,231z"/>
			<path class="xp56" d="M164.4,242.6c0.1,0.4,0.1,0.7,0.2,1c0,1.7,0,3.4,0.1,5.1c0.1,1.1-0.5,1.7-1.4,1.9c-1.5,0.4-3.1,0.6-4.7,0.8
				c-1.6,0.2-3.3,0.3-4.9,0.3c-3.8-0.1-7.5-0.9-10.5-3.4c-1.7-1.4-3.4-2.9-4.5-4.8c-1.8-3.1-3-6.6-2.9-10.3c0-2.5-0.2-5,0.2-7.4
				c0.4-2.4,1.2-4.8,2.2-7c1.7-3.8,4.7-6.3,8.6-8c2.4-1,4.9-1.6,7.6-1.7c2.4-0.1,4.8,0.2,7.2,0.7c2.2,0.5,2.5,0.9,2.4,3.2
				c-0.1,1.3-0.1,2.7-0.1,4c0,0.9-0.4,1.1-1.1,0.7c-2.5-1.3-5.1-1.7-7.9-1.4c-2.7,0.3-5,1.4-6.7,3.7c-1.1,1.6-1.7,3.3-2.1,5.2
				c-0.6,2.3-0.4,4.6-0.4,6.9c0,2.4,0.7,4.8,1.9,6.8c1.3,2.2,3.2,4,5.7,4.9c0.1,0,0.2,0.1,0.3,0.1c3,0,6,0.6,8.9-0.6
				C163,243.2,163.6,243,164.4,242.6z"/>
			<path class="xp56" d="M281.4,230.1c0,1.6,0.1,2.7,0,3.8c-0.5,5-2.1,9.5-5.7,13.2c-2.4,2.5-5.1,4-8.5,4.7c-3.4,0.7-6.4,0.1-9.3-1.5
				c-4.9-2.6-7.8-6.8-9.1-12.2c-0.7-2.9-1.4-5.9-1-8.9c0.4-2.9,1.3-5.7,1.8-8.6c0.5-2.5,1.9-4.5,3.5-6.3c2-2.4,4.6-3.8,7.6-4.7
				c2.4-0.8,4.8-0.7,7.2-0.4c1.6,0.2,3.2,1,4.7,1.7c2.4,1.2,4.2,3.2,5.6,5.5c1.2,1.9,1.8,4.1,2.4,6.3
				C281.3,225.4,281.7,228,281.4,230.1z M255,230.7c0,0,0.1,0,0.1,0c0,1.5,0,3,0,4.5c0,3.3,0.5,6.4,1.8,9.4c1.3,2.8,3,5.2,6.5,5.3
				c1.6,0,3.4,0,4.8-0.6c2.4-1.2,3.9-3.4,4.7-6c0.5-1.7,0.8-3.6,1.1-5.4c0.3-1.8,0.7-3.6,0.7-5.4c0.1-4.4-0.2-8.7-1.5-13
				c-0.7-2.5-1.6-4.8-3.7-6.6c-2.8-2.5-7.4-2.2-9.9,0.4c-2.5,2.6-3.8,5.8-4.3,9.3C255,225.3,255.1,228,255,230.7z"/>
			<path class="xp56" d="M346.1,229.4c-3.9,0-7.8,0-11.7,0c-1,0-1.4,0.2-1.3,1.3c0.3,2.7,0.2,5.4,0.7,8.1c0.7,3.9,2.3,7.5,6,9.7
				c0,0,0.1,0,0.1,0c1.9,1,8.2,0.8,10.1-0.2c3.1-1.6,4.6-4.2,5.6-7.4c0.2-0.6,0.4-1.2,0.6-1.8c0.3-0.8,1.2-1.2,2.3-0.8
				c0.3,0.1,0.5,0.9,0.4,1.3c-0.7,4.3-2.6,7.8-6.5,10.1c-1.8,1.1-3.8,1.7-5.9,2c-1.1,0.2-2.1,0.4-3.2,0.3c-5.3-0.5-9.7-2.5-12.9-7
				c-1.5-2.2-2.6-4.7-3.1-7.2c-0.9-4.2-1.4-8.5-0.2-12.8c0.6-2,0.9-4.2,1.7-6.1c1.4-3.5,3.9-6.2,7.2-8c3-1.6,6.4-2.4,9.9-1.8
				c1.7,0.3,3.4,1,4.9,1.8c2.9,1.5,4.8,4.1,6.3,6.9c0.3,0.6,0.5,1.2,0.7,1.8c0.8,2.8,1.3,5.6,1.2,8.5c0,0.9-0.3,1.2-1.2,1.2
				C353.9,229.4,350,229.4,346.1,229.4C346.1,229.4,346.1,229.4,346.1,229.4z M342.8,226.7c2.7,0,5.5,0,8.2,0c1.2,0,1.6-0.4,1.3-1.6
				c-0.6-2.5-1.3-4.9-1.8-7.4c-0.4-1.9-1.6-3.1-2.8-4.5c-1.4-1.6-3.1-1.5-5-1.5c-2.5-0.1-4.3,1-5.7,2.8c-2.5,3.1-3.6,6.8-3.6,10.8
				c0,1.5,0,1.5,1.5,1.5C337.5,226.8,340.1,226.7,342.8,226.7z"/>
			<path class="xp56" d="M366.5,245c0-2,0-4.1,0-6.1c0-0.6,0-1.2,0.8-1.2c0.8,0,0.8,0.5,0.9,1.2c0.6,4.4,2.5,8.1,6.6,9.9
				c4.2,1.9,9,1.5,12.3-2.8c2.2-2.9,2.1-7.3-1.3-9.4c-2-1.3-4.1-2.3-6.2-3.3c-3.4-1.6-7-2.9-10-5.4c-1.5-1.3-2.4-2.9-2.5-4.9
				c0-1-0.1-2-0.1-3.1c-0.2-4.2,2.8-8,6.6-9.3c4.4-1.6,8.7-1.4,13,0.3c0.2,0.1,0.4,0.3,0.6,0.4c0.9,0.5,1.7,0.1,2.2-0.8
				c0.4-0.8,0.4-2.2,1.8-1.8c0.3,0.1,0.4,1.4,0.4,2.2c0,3.2,0,6.4-0.1,9.6c0,0.6,0.1,1.2-0.8,1.3c-0.9,0.1-0.7-0.5-0.9-1
				c-0.6-1.5-1.2-3.1-2-4.5c-0.5-0.9-1-1.9-1.8-2.6c-2.4-2.3-6.8-2.6-9.8-0.9c-1.6,0.9-2.8,2-3.6,3.7c-1.1,2.5-0.1,6,2.1,7.5
				c3.2,2.2,6.9,3.4,10.4,5c3,1.4,6,2.9,7.7,6c0.6,1,0.8,2.3,1,3.5c0.4,4-0.7,7.5-3.8,10.1c-1.9,1.6-4,2.7-6.6,3.1
				c-2.9,0.4-5.7,0.4-8.5-0.4c-1.3-0.3-2.4-1.1-3.6-1.7c-1.6-0.9-2.2-0.8-3,0.8c-0.3,0.5-0.5,1-0.9,1.4c-0.2,0.2-0.6,0.4-0.9,0.5
				c-0.1-0.3-0.3-0.6-0.3-0.9C366.5,249.1,366.5,247.1,366.5,245z"/>
			<path class="xp56" d="M402.1,245c0-2,0-4.1,0-6.1c0-0.3,0.2-0.6,0.3-0.9c0.4,0.2,0.9,0.3,1,0.6c0.4,0.9,0.6,1.8,0.8,2.7
				c1.2,4.1,3.8,7.1,8,8.2c3.3,0.8,6.5,0.4,9.2-2.1c1.5-1.4,2.7-3,2.8-5.1c0.2-3.2-1.4-5.3-4.3-6.8c-3-1.5-6.1-2.8-9.1-4.3
				c-1.7-0.8-3.3-1.8-4.9-2.8c-1.9-1.2-2.9-3-3.2-5.3c-0.4-4.2,0.3-7.8,3.7-10.6c2.1-1.7,4.5-2.6,7.1-2.7c1.8-0.1,3.7,0,5.5,0.2
				c1.2,0.2,2.3,0.9,3.4,1.4c1.8,0.8,2.4,0.6,3-1.2c0.2-0.6-0.1-1.7,1.2-1.5c1.2,0.2,0.6,1.2,0.6,1.8c0.1,3.4,0,6.8,0,10.2
				c0,0.6,0.1,1.2-0.8,1.2c-0.9,0-0.9-0.5-1-1.1c-0.6-2.7-1.3-5.3-3.5-7.2c-1.4-1.2-3.1-1.6-5-1.8c-2.6-0.2-4.8,0.5-6.7,2
				c-0.5,0.4-0.9,1-1.3,1.5c-1.5,1.9-1.2,6.1,0.5,7.9c1.7,1.7,3.9,2.6,6,3.5c2.1,0.9,4.3,1.8,6.4,2.9c1.5,0.8,3,1.6,4.4,2.7
				c2.5,1.9,3.4,4.5,3.4,7.6c0,3.5-1.3,6.4-3.8,8.8c-1.8,1.7-3.9,2.9-6.4,3.1c-1.6,0.1-3.2,0.3-4.9,0.3c-2.7,0-5.2-0.7-7.4-2.3
				c-1.3-0.9-2.2-0.6-2.9,0.8c-0.2,0.5-0.5,1-0.9,1.4c-0.2,0.3-0.6,0.4-0.9,0.6c-0.1-0.3-0.3-0.6-0.3-1
				C402.1,249.1,402.1,247,402.1,245z"/>
			<path class="xp56" d="M295.5,231.8c0.1,2,0,4.7,0.4,7.4c0.5,3.6,1.9,6.9,5.1,9.1c2.2,1.6,4.8,1.7,7.3,1c4-1.2,5.7-4.4,6.6-8.2
				c0.2-0.7,0.2-1.4,0.4-2.1c0.1-0.3,0.5-0.6,0.8-0.8c0.1-0.1,0.4,0,0.5,0c1.9,0,2.2,0.4,1.7,2.2c-1,3.7-2.7,7.1-5.9,9.4
				c-1.2,0.9-2.8,1.4-4.2,1.8c-1.3,0.4-2.8,0.6-4.2,0.4c-5.9-0.5-10.5-3.3-13.2-8.6c-2.3-4.4-2.9-9.3-2.7-14.3c0.2-3.9,1-7.5,2.5-11
				c1.4-3.4,3.9-5.8,7.4-7.5c3.1-1.5,6.3-1.7,9.6-1.5c1.1,0.1,2.2,0.7,3.3,1.2c0.4,0.1,0.6,0.5,1,0.7c1.9,1.3,2.3,1.2,3.3-0.8
				c0.3-0.6,0.7-1.1,1.1-1.6c0.2-0.2,0.7-0.2,1-0.2c0.1,0,0.3,0.5,0.3,0.7c0,4.1,0,8.2-0.1,12.3c0,0.2-0.3,0.6-0.6,0.7
				c-0.5,0.1-0.9,0-1.1-0.7c-0.8-2.9-1.8-5.6-4-7.9c-2.5-2.5-5.5-2.5-8.6-2.1c-1.7,0.2-2.6,1.9-3.8,2.9c-2,1.7-2.5,4.2-3.3,6.5
				C295.2,224.3,295.7,227.7,295.5,231.8z"/>
			<path class="xp56" d="M229.2,234.5c0,3.8,0,7.6,0,11.5c0,2.5,1,3.6,3.5,3.8c0.6,0.1,1.3,0,1.8,0.2c0.3,0.1,0.5,0.6,0.7,0.9
				c-0.3,0.2-0.6,0.6-0.8,0.6c-1.8-0.1-3.5-0.4-5.3-0.5c-2.4-0.1-4.9-0.1-7.3,0c-1.6,0.1-3.2,0.4-4.8,0.4c-0.3,0-0.6-0.4-0.9-0.6
				c0.3-0.3,0.5-0.8,0.9-0.9c0.7-0.2,1.4-0.1,2.2-0.2c1.9-0.2,3.2-1.5,3.3-3.4c0-0.5,0-0.9,0-1.4c0-7.6,0-15.3,0-22.9
				c0-2.1,0-4.2-0.1-6.3c0-2.1-1.2-3.2-3.3-3.2c-0.7,0-1.3,0-2,0c-0.7,0-1-0.3-1-0.9c0-0.7,0.4-0.8,1-0.8c2.5-0.3,5-0.6,7.5-1
				c0.7-0.1,1.4-0.3,2.1-0.4c0.2,0,0.7,0.3,0.7,0.5c0.3,1.4,0.4,2.9,0.7,4.4c0.1,0.4,0.3,0.8,0.4,1.2c0.4-0.3,0.9-0.5,1.1-0.8
				c1.4-1.8,2.8-3.5,5-4.5c3.3-1.4,6.5-1.2,9.3,1c2.3,1.8,2.6,5.7,1.5,7.8c-0.5,0.9-2.3,1.7-3.8,1.2c-0.4-0.1-0.8-0.3-1.2-0.5
				c-1.4-0.6-1.7-1.6-1.2-3.4c0.7-2.1-1-4.2-3-3.7c-0.9,0.2-1.8,0.5-2.4,1.1c-1.4,1.1-2.4,2.5-3.2,4.2c-2.2,4.8-1.1,9.7-1.4,14.6
				C229.2,233.1,229.2,233.8,229.2,234.5z"/>
			<path class="xp56" d="M378.1,284c0,1.9,0,3.7,0,5.6c-0.1,3.9-2.2,6-6.1,5.9c-1.1,0-2.2-0.2-3.3-0.4c-0.7-0.2-1.1-1.2-0.8-1.8
				c0.1-0.2,0.4-0.3,0.7-0.3c1.4,0.1,2.8,0.2,4.2,0.2c1,0.1,1.7-0.5,2-1.4c0.3-0.8,0.4-1.8,0.5-2.7c0-0.2-0.2-0.5-0.4-0.7
				c-0.2,0.1-0.4,0.2-0.6,0.3c-0.5,0.3-1,0.9-1.5,1c-2.5,0.4-4.4-0.1-5.2-3c-0.6-2.2-0.5-4.4-0.1-6.5c0.3-1.3,2.1-2.9,3.5-2.9
				c1.2,0,2.4-0.1,3.4,0.8c0.2,0.1,0.6,0,0.9-0.1c0.4-0.1,0.6-0.5,1-0.5c1.5-0.3,1.7-0.1,1.7,1.4C378.1,280.5,378.1,282.3,378.1,284
				C378.1,284,378.1,284,378.1,284z M370.3,283.6c0.1,0.8,0.1,1.6,0.2,2.4c0.1,1.1,0.9,2.2,1.8,2.3c0.9,0.1,2.4-0.8,2.6-1.8
				c0.3-1.8,0.7-3.6,0-5.4c-0.4-1.1-1.4-1.8-2.6-1.6c-1.2,0.1-1.7,0.8-1.8,2C370.4,282.2,370.3,282.8,370.3,283.6z"/>
			<path class="xp56" d="M273,277.4c-0.2,0.3-0.4,0.6-0.6,0.9c-1.1,1.4-2.1,2.7-3.2,4.1c-0.5,0.6-0.5,1,0,1.6
				c1.4,1.9,2.7,3.8,4.1,5.7c0.1,0.1,0.1,0.3,0.1,0.4c-2.2,0.7-3.3,0.3-4.4-1.7c-0.7-1.2-1.4-2.3-2.1-3.5c-0.1-0.2-0.3-0.3-0.5-0.5
				c-0.1,0.2-0.3,0.5-0.3,0.7c0,1.3,0,2.7,0,4c0,0.8-0.3,1.1-1.1,1.1c-2-0.1-2.1,0.4-2.1-2c0-5.2,0-10.5,0-15.7
				c0-0.9,0.2-1.3,1.2-1.3c2.4,0.1,2-0.1,2,2c0,2.6,0,5.2,0,7.7c0,0.3,0.2,0.6,0.2,0.9c0.2-0.2,0.5-0.3,0.7-0.6
				c0.7-0.9,1.4-1.9,2.1-2.9C270.1,277.2,270.7,277,273,277.4z"/>
			<path class="xp56" d="M213.9,280.8c0-2.8,0-5.5,0-8.3c0-0.8,0.2-1.1,1-1.1c2.4,0,2-0.1,2,2.1c0,1.4,0,2.8,0,4.3
				c0,0.3,0.1,0.5,0.2,0.8c0.2-0.1,0.5-0.2,0.7-0.4c1.8-1.8,5.1-1.1,5.9,1.4c0.2,0.7,0.4,1.5,0.4,2.3c0.1,2.5,0,5,0,7.4
				c0,0.9-0.2,1.1-1.1,1.1c-2.1,0-1.8,0.1-1.8-1.8c0-1.9,0-3.9,0-5.8c0-0.8-0.2-1.6-0.4-2.3c-0.3-1-2.4-1.1-3.1-0.2
				c-0.4,0.5-0.7,1.2-0.7,1.9c-0.1,2.3-0.1,4.7,0,7c0,1-0.3,1.5-1.3,1.3c-0.2,0-0.4,0-0.7,0c-0.9,0.1-1.2-0.3-1.1-1.1
				c0-1.4,0-2.8,0-4.3C213.9,283.5,213.9,282.1,213.9,280.8z"/>
			<path class="xp56" d="M419.8,278.9c0.4-0.3,0.7-0.5,1-0.7c1.3-0.9,2.8-1.2,4.1-0.5c1.3,0.7,2.5,1.8,2.4,3.6c0,1.6,0,3.2,0,4.9
				c-0.1,3.3-3.4,5-6.1,3.4c-1.2-0.7-1.6-0.4-1.6,1c0,1.3,0,2.7,0,4c0,1-0.6,1.1-1.3,1.1c-0.7,0-1.2-0.2-1.2-1.1
				c0-5.2,0-10.5-0.1-15.7c0-0.5-0.2-1.2,0.6-1.3c0.8-0.1,1.5-0.2,2,0.7C419.6,278.4,419.7,278.6,419.8,278.9z M425.2,283.8
				c-0.2-0.9-0.3-1.7-0.5-2.5c-0.4-1.4-1.4-2.2-2.5-2.1c-1.1,0.1-2.4,1.4-2.5,2.6c-0.1,1.3-0.1,2.6,0,3.9c0.1,1,1.5,2.4,2.4,2.5
				c1.1,0.1,2.2-0.6,2.6-1.9C424.9,285.6,425,284.7,425.2,283.8z"/>
			<path class="xp56" d="M239.5,284c0-1.8,0-3.6,0-5.3c0-0.8,0.2-1.1,1-1.1c0.8,0.1,1.9-0.4,1.8,1.1c0.3,0,0.7,0.1,0.8,0
				c1.1-1.5,2.7-1.3,4.2-1c1.8,0.4,2.2,2.1,2.4,3.5c0.2,2.9,0.1,5.7,0.1,8.6c0,0.3-0.5,0.7-0.8,0.8c-0.4,0.1-0.9,0-1.3,0
				c-0.8,0.1-1.1-0.3-1.1-1.1c0-2.5,0-5.1,0-7.6c0-1.4-0.4-1.9-1.5-2c-1.3-0.1-2.2,0.4-2.3,1.6c-0.2,2.5-0.2,5-0.4,7.5
				c0,0.5-0.1,1.4-0.3,1.4c-0.7,0.2-1.5,0.1-2.2,0c-0.1,0-0.3-0.5-0.3-0.8C239.4,287.8,239.5,285.9,239.5,284L239.5,284z"/>
			<path class="xp56" d="M233.1,284.6c-1,0-2,0-2.9,0c-0.8,0-0.9,0.4-0.8,1c0.4,1.7,1.4,2.8,3.4,2.7c0.9-0.1,1.9-0.4,2.8-0.6
				c0.2,0,0.6,0.2,0.7,0.3c0.3,1.3,0.2,1.5-1.5,2.1c-2.4,1-5.8,0-7.2-2.1c-1.2-1.8-1.4-3.8-1-5.8c0.2-1.1,0.8-2.2,1.4-3.2
				c1.2-2,3.2-2,5.2-1.8c1.7,0.2,2.7,1.4,3.2,3c0.3,1.1,0.5,2.2,0.7,3.4c0.1,0.7-0.2,1-0.9,1C235.1,284.6,234.1,284.6,233.1,284.6
				C233.1,284.6,233.1,284.6,233.1,284.6z M231.1,282.8C231.1,282.8,231.1,282.8,231.1,282.8c0.5,0,1,0.1,1.5,0
				c0.3-0.1,0.8-0.5,0.8-0.7c0-0.6-0.2-1.2-0.4-1.8c-0.3-0.8-1.4-1.3-2.1-1.1c-1.1,0.3-2.3,1.9-2,3c0.3,1,1.2,0.5,1.8,0.6
				C230.8,282.8,231,282.8,231.1,282.8z"/>
			<path class="xp56" d="M413.8,284c0,1.6,0,3.2,0,4.8c0,0.4-0.3,1.2-0.4,1.2c-0.6,0-1.6,0-1.9-0.4c-0.7-0.9-1.2-0.8-1.9-0.2
				c-1.1,0.9-2.6,1-3.8,0.4c-1.4-0.6-2-2-2-3.6c0-2.7,0-5.3,0-8c0-0.3,0.4-0.7,0.7-0.8c0.3-0.1,0.7,0,1.1-0.1
				c0.9-0.1,1.2,0.4,1.1,1.4c-0.2,2.1-0.1,4.2-0.1,6.4c0,0.3,0,0.7,0,1c0.2,0.9,0.3,1.8,1.4,2.1c0.9,0.2,2-0.4,2.5-1.4
				c0.2-0.6,0.4-1.2,0.4-1.8c0-2.2,0-4.4,0-6.5c0-0.7,0.1-1.2,0.9-1.1c0.8,0.1,1.9-0.4,1.9,1.1C413.7,280.4,413.7,282.2,413.8,284
				C413.7,284,413.8,284,413.8,284z"/>
			<path class="xp56" d="M280.1,289.1c0,0.8,0,1.4,0,2c0,1,0,2,0,2.9c0,1,0.3,1.6,1.4,1.6c0.1,0,0.3,0.1,0.4,0.4c-1.9,0-3.8,0-5.6,0
				c0-0.1,0-0.2,0.1-0.2c1.6-0.5,1.7-0.6,1.7-2.3c0-4.3,0-8.7,0-13c0-1.7-0.2-2-1.8-2.5c0.3-0.1,0.6-0.2,0.9-0.2
				c0.4,0,0.8,0.1,1.2-0.1c0.8-0.3,1.2-0.2,1.4,0.7c0.1,0.6,0.4,0.8,1,0.3c2-1.8,4.8-1.7,6.3,0.4c1.5,2.1,1.9,4.4,1.3,7
				c-0.4,1.4-0.8,2.8-2,3.7c-2,1.4-3.6,1.4-5.4-0.3C280.8,289.4,280.6,289.3,280.1,289.1z M287,283.8c-0.2-1.1-0.4-2.2-0.5-3.3
				c-0.2-1.2-1.1-2.5-2.1-2.6c-1.6-0.3-2.7,0.2-3.3,1.8c-1,2.8-1,5.7,0.1,8.5c0.4,1,1.8,1.8,2.7,1.7c1.2-0.1,2.2-0.9,2.5-2.2
				C286.6,286.5,286.8,285.2,287,283.8z"/>
			<path class="xp56" d="M400.6,284c0.1,1.5-0.1,3.1-1.1,4.4c-0.8,1.1-1.8,1.7-3.1,1.7c-0.8,0-1.6,0-2.4,0c-1.9,0-3.4-1.8-3.8-3.4
				c-0.5-1.9-0.5-3.8,0-5.8c0.3-1.1,2.2-3.1,3.3-3.3c4.2-0.9,7.3,1.5,7.1,5.7C400.6,283.5,400.6,283.7,400.6,284z M398.1,283.7
				c-0.1,0-0.1,0-0.2,0c0-0.6,0-1.2,0-1.9c-0.1-1.3-1-2.4-2.3-2.6c-0.8-0.2-2.3,0.5-2.6,1.4c-0.8,2-1,4.2,0,6.2
				c0.4,0.9,1.2,1.6,2.3,1.6c1.1,0,1.9-0.5,2.2-1.6C397.8,285.8,397.9,284.7,398.1,283.7z"/>
			<path class="xp56" d="M193.1,287.6c1.3,0.2,2.5,0.6,3.6,0.6c0.6,0,1.3-0.5,1.6-1c0.2-0.3-0.1-1.1-0.5-1.4
				c-0.8-0.7-1.7-1.2-2.6-1.7c-1.7-1-2.5-2.4-2.1-4c0.4-1.7,1.7-2.8,3.7-2.9c1.1,0,2.2,0,3.2,0.2c1.1,0.2,0.5,1.2,0.5,1.8
				c0,0.1-0.7,0.3-1,0.3c-0.8,0-1.5-0.2-2.3-0.1c-0.5,0.1-1.2,0.5-1.3,0.9c-0.1,0.4,0.3,1.1,0.6,1.4c1.1,0.8,2.3,1.5,3.4,2.3
				c2.1,1.4,1.7,4.7-0.6,5.7c-1.8,0.8-3.7,0.8-5.6,0.3c-0.8-0.2-0.9-0.6-0.8-1.2C193,288.4,193.1,288,193.1,287.6z"/>
			<path class="xp56" d="M211.6,287.8c0.5,2.1,0.2,2.5-1.8,2.6c-1.4,0-2.7,0.1-4-0.6c-1.8-0.9-2.6-2.5-2.9-4.3
				c-0.3-2.3-0.2-4.5,1.4-6.4c1-1.1,2.2-1.8,3.7-1.8c1,0,2,0,2.9,0.1c1.2,0.2,0.8,1.1,0.7,1.8c-0.1,0.9-0.7,0.5-1.2,0.3
				c-2.6-0.6-4.3,0.6-4.4,3.4c-0.1,1.6-0.2,3.1,1.1,4.4c1,0.9,2.7,1.3,3.9,0.7C211.1,287.8,211.4,287.9,211.6,287.8z"/>
			<path class="xp56" d="M257.9,290.4c-3.6,0.2-5.9-2.4-6.1-5.6c-0.1-2.5,0.1-4.7,2.2-6.5c1.6-1.4,5.2-1.4,6.3-0.7
				c0.3,0.2,0.2,1.1,0.2,1.7c0,0.1-0.6,0.4-0.9,0.3c-2.1-0.5-3.7,0-4.3,1.5c-0.6,1.7-0.6,3.4,0,5.1c0.4,1.4,2.8,2.7,4.5,1.8
				c0.6-0.3,1-0.2,1,0.6c0,1.4-0.3,1.8-1.7,1.8C258.7,290.4,258.3,290.4,257.9,290.4z"/>
			<path class="xp56" d="M305.8,277.3c2.4,0,4.4,1.7,4.8,4.1c0.3,1.7,0.4,3.3,0,4.9c-0.6,2.5-2.9,4.9-6.2,4c-0.9-0.3-2-0.9-2.5-1.7
				c-1.8-2.9-2-6-0.2-9.1C302.7,277.9,303.7,277.4,305.8,277.3z M309.1,283.7c-0.3-1.4-0.5-2.9-0.9-4.4c-0.3-1.2-1.9-2.1-2.9-1.8
				c-1.4,0.4-2.1,1.5-2.5,2.8c-0.6,2.3-0.7,4.6-0.1,7c0.4,1.4,1.4,2.7,2.4,2.7c1.8,0.1,2.7-0.5,3.2-2.3
				C308.8,286.5,308.8,285.2,309.1,283.7z"/>
			<path class="xp56" d="M381.5,284c0-1.7,0-3.4,0-5.1c0-0.4,0.3-1,0.7-1.1c0.5-0.2,1.1-0.3,1.4,0.5c0.1,0.2,0.6,0.5,0.9,0.4
				c0.4,0,0.7-0.4,1.1-0.6c0.5-0.2,1.1-0.3,1.7-0.5c0.1,0.7,0.1,1.3,0.1,2c0,0.1-0.4,0.3-0.6,0.3c-2,0.3-2.9,1.4-2.9,3.5
				c0,1.8,0,3.7,0,5.6c0,1.1-0.5,1.2-1.3,1.2c-0.9,0-1.2-0.2-1.2-1.2C381.5,287.3,381.5,285.7,381.5,284
				C381.5,284,381.5,284,381.5,284z"/>
			<path class="xp56" d="M329.5,277.5c3.3-0.9,5.8,2.3,5.4,5.3c0,0.2-0.6,0.5-0.9,0.5c-2,0.1-3.9,0.1-5.9,0c-0.8,0-1.3,0.3-1.1,1.1
				c0.2,1.1,0.3,2.1,0.6,3.1c0.8,2,2.5,2.1,4.3,1.9c1.3-0.1,2-1,2.4-2.2c0.1-0.3,0.3-0.5,0.5-0.8c0.5,0.9,0,1.5-0.4,2
				c-2.4,2.9-6.6,2.3-8.2-1.1c-1-2.1-1.5-4.2-0.4-6.4c0.3-0.6,0.4-1.3,0.8-1.8C327.1,278.2,328.1,277.4,329.5,277.5
				c-1.4,0.7-2,2.1-2.5,3.5c-0.3,1,0.1,1.6,1.1,1.6c1.3,0,2.7,0,4,0c0.9,0,1.2-0.5,1.2-1.3C333.1,279,332.4,277.8,329.5,277.5z"/>
			<path class="xp56" d="M290.3,277.4c1.1-0.1,2.1-0.3,3.2-0.3c0.2,0,0.4,0.5,0.5,0.7c0.1,0.2,0.2,0.5,0.3,0.7
				c0.2-0.1,0.6-0.2,0.7-0.4c0.6-1.1,1.7-1.2,2.7-1.1c1.4,0.1,2.1,1,1.8,2.4c-0.1,0.3-0.6,0.8-0.9,0.8c-0.3,0-0.6-0.5-0.8-0.9
				c-0.3-0.5-0.4-1-0.6-1.5c-0.6,0.3-1.2,0.4-1.7,0.8c-0.9,0.8-1,2-1,3.1c-0.1,2-0.1,4.1-0.1,6.1c0,1.5,0.4,1.8,1.8,2.2
				c-1.8,0-3.6,0-5.6,0c0.3-0.1,0.5-0.2,0.6-0.2c0.8-0.3,1.3-0.8,1.3-1.8c-0.1-2.8,0-5.7,0-8.5c0-1.3-0.1-1.4-1.5-1.3
				c-0.3,0-0.6-0.2-0.8-0.4C290.3,277.6,290.3,277.5,290.3,277.4z"/>
			<path class="xp56" d="M357.1,277.1c0,1,0,2.1,0,3.1c-0.1,0-0.1,0-0.2,0.1c-0.2-0.4-0.4-0.9-0.7-1.3c-0.8-1.4-3-1.9-4.4-1
				c-1.5,1-1.5,3.1,0.1,4c1.2,0.7,2.6,1.2,3.9,1.9c1.6,0.9,2.3,2.1,2,3.4c-0.4,1.8-1.9,3.4-3.6,3.4c-1.1,0-2.2-0.2-3.3-0.6
				c-1-0.3-1-0.5-1.9,0.4v-3.6c0.5,1.8,1.7,2.8,3.5,3.2c2.2,0.5,4-1,3.6-3.1c-0.3-1.5-1.7-1.9-2.9-2.4c-1-0.4-2-0.8-2.8-1.5
				c-1-0.8-1.4-2.2-0.9-3.5c0.7-1.9,2.5-3,4.2-2.6c0.7,0.1,1.4,0.4,2.1,0.5C356.3,277.6,356.7,277.3,357.1,277.1z"/>
			<path class="xp56" d="M345.1,277.9c0,0.6,0,1.3,0,2.1c-0.6-0.5-1.1-1.1-1.6-1.5c-1.6-1-3.9,0-3.9,1.9c0,0.9,0.6,1.6,1.4,2
				c1.3,0.6,2.6,1.2,3.8,2c1.2,0.8,1.4,2.6,0.5,3.8c-1.3,1.8-3.2,2.2-5.6,1.2c-0.5-0.2-1-0.2-1.6-0.2c0-0.5,0-1.3,0-2.3
				c0.4,0.5,0.6,0.7,0.7,0.9c0.8,1.8,3.4,1.9,4.7,1.2c1.4-0.7,1.3-3.1-0.2-3.9c-0.8-0.5-1.7-0.8-2.5-1.2c-1.1-0.6-2.2-1.2-2.4-2.5
				c-0.3-2.2,1.6-3.9,3.9-3.6C343.2,277.9,344.1,277.9,345.1,277.9z"/>
			<path class="xp56" d="M320.1,278.1c-2.7-0.9-4.6,0.4-4.7,3.2c0,1.7,0,3.5,0,5.2c0,2.3,1.4,3.1,2.8,3.3c1.4,0.3,3.1-1.1,3.6-2.7
				c0.1-0.2,0.2-0.5,0.2-0.7c0,0,0.1-0.1,0.2-0.1c0.3,0.7-0.2,2.1-1,2.9c-2.2,1.9-4.2,1.9-6.4-0.8c-2.3-2.9-2.1-6.9,0.1-9.4
				c1-1.1,2.2-2,3.8-1.7C319.2,277.4,319.6,277.8,320.1,278.1L320.1,278.1z"/>
			<path class="xp56" d="M319.9,278.1c0,0,0.1,0,0.1,0c0.8,0.3,1.7,0.5,2.1-0.7c0,0.9,0,1.8,0,2.8
				C321.3,279.4,320.6,278.8,319.9,278.1C319.9,278.1,319.9,278.1,319.9,278.1z"/>
		</g>
	</g>
</g>
</svg>
