<?xml version="1.0" encoding="utf-8"?>

<svg version="1.1" xmlns="http://www.w3.org/2000/svg" xmlns:xlink="http://www.w3.org/1999/xlink" x="0px" y="0px"
	 viewBox="0 0 634.3 392" style="enable-background:new 0 0 634.3 392;" xml:space="preserve">
<style type="text/css">
	.xp28{fill-rule:evenodd;clip-rule:evenodd;fill:#1B9B94;}
	.xp29{fill-rule:evenodd;clip-rule:evenodd;}
</style>

<g id="Layer_2">
	<g>
		<g>
			<path class="xp28" d="M160.3,154c0-23.5-19.1-42.6-42.6-42.6S74.9,130.5,74.9,154H160.3z M160.3,238c0,23.5-19.1,42.8-42.6,42.8
				S74.9,261.5,74.9,238L160.3,238L160.3,238z M113.1,195.8c-21.5,2.2-38.4,20.9-38.4,42.8c-23.5,0-42.6-19.1-42.6-42.6
				c0-23.7,19.1-42.8,42.6-42.8C74.7,175.4,91.6,193.8,113.1,195.8L113.1,195.8z M122.6,195.8c21.5,2.2,38.4,20.9,38.4,42.8
				c23.5,0,42.6-19.1,42.6-42.6c0-23.7-19.1-42.8-42.8-42.8C160.7,175.4,144.1,193.8,122.6,195.8L122.6,195.8z"/>
			<path class="xp29" d="M410,167.9h9.4c3.3,0,10.3-0.2,10.3,8.3c0,8.3-4.8,10.7-10.3,10.7H410v2.8l28.7,44.3h24.1l-25.2-37.1
				c13.3-6.4,13.9-16,13.9-23c0-20.2-16.6-22.8-23-22.8h-38.9V234H410L410,167.9L410,167.9L410,167.9z"/>
			<path class="xp29" d="M520.1,211.2c-5.6,6.1-12.2,6.8-22.5,6.8c-12.7,0-23-10.8-23-25.7c0-14.9,10.3-27.2,23-27.2
				c9.4,0,17.1,2.2,22.5,7.7v-20c-5.8-3.7-13.9-5.5-22.5-5.5c-24.6,0-44.3,14.9-44.3,45c0,28.8,19.8,44.3,44.3,44.3
				c8.6,0,17.8-1.3,23.5-4.2L520.1,211.2L520.1,211.2z M526.1,234v-83h20v36l26.2-36H596l-25.4,38.2l30.1,44.8h-24.9l-29.7-43.9V234
				L526.1,234L526.1,234z M240.1,234h20v-54.4l24.8,56.8l25.2-57.3V234h20v-83h-29.9l-15.6,36.7L268.7,151h-28.6L240.1,234
				L240.1,234z M335.1,151h50v17h-29v15h27v17h-27v17h29v17h-50L335.1,151L335.1,151z"/>
		</g>
	</g>
</g>
</svg>
