<?xml version="1.0" encoding="utf-8"?>

<svg version="1.1" xmlns="http://www.w3.org/2000/svg" xmlns:xlink="http://www.w3.org/1999/xlink" x="0px" y="0px"
	 viewBox="0 0 634.3 392" style="enable-background:new 0 0 634.3 392;" xml:space="preserve">
<style type="text/css">
	.xp30{fill-rule:evenodd;clip-rule:evenodd;fill:#3258A1;}
	.xp31{fill-rule:evenodd;clip-rule:evenodd;fill:#EAC13D;}
</style>

<g id="Layer_2">
	<g>
		<path class="xp30" d="M169.1,259v12c-0.7,0-3,0-3,0v-25h13v2c-3.2-0.1-6.8,0-10,0v9c3,0,9,0,9,0v2h-6H169.1z M207.1,249.9
			c7.3,10.4-2.3,27.4-14.4,17.2C184.8,257,194.9,239.8,207.1,249.9z M209.9,268.2c12.1-14-6.5-30.5-20.1-19.3
			C176.9,262.7,196.7,279.4,209.9,268.2z M242,251h-0.3c-5.3-8.7-18.2-2.8-17,7c-1.1,10.2,11.1,15.5,17.5,7.8l0.5,0.3
			c-0.4,0.7-0.3,2-0.5,2.9c-28.9,14.3-28.8-35.2,0.8-21.7C242.4,248.4,242.5,249.7,242,251z M250.7,245.7c1,0.5,2.4,0.2,3.4,0.3
			c0,0,0.8,0,1-0.3c-0.1,2.9,0.1,14.5,0,17.5c-0.2,2.5,0.9,4.3,2.6,5.5c6.6,3.2,13.8-1.1,12.4-9.1c-0.1-4.2,0.2-9.8-0.4-13.8
			c0.3,0.3,0.8,1.3,0.8,1.3h1.8c0,0,0.5-1,0.5-1.3c-2.6,9.7,4.5,26.5-11.5,25.8C246.5,272.7,252.7,254.7,250.7,245.7z M281.7,266
			h0.3c2.6,7.8,15.9,4.2,10.8-3.7c-1.4-1.7-8.8-3.6-9.7-5.5c-6.3-8.2,6.4-14.2,12.9-9.5c-0.5,1.2-0.9,2.4-1.1,3.7h-0.5
			c-1-7.5-13.7-3-8.7,3.2c1.7,1.9,8.8,3.7,10,5.5c6.5,8.4-7.7,17.1-14.5,10.3C281.2,268.6,281.7,267.3,281.7,266z M336.8,249.9
			c7.3,10.4-2.3,27.4-14.4,17.2C314.7,256.9,324.7,239.8,336.8,249.9z M339.7,268.2c12.2-14.1-6.4-30.4-20.1-19.3
			C307.4,263,325.8,279.3,339.7,268.2z M351.4,271.4c0.9-7.8,1-19.9,0.4-26.4h1.6c5.5,6.4,11.7,13.2,17.7,19.3
			c0-3.8,0.1-14.9-0.3-18.6c0.6,0.4,2.1,0.4,2.8,0c-0.7,4-0.5,21.5-0.5,26.3h-1.6c-3.3-5.2-13.2-14.8-17.4-19.7
			c0,5.4-0.1,14,0.4,19.1C353.6,270.7,352.5,270.9,351.4,271.4z M395.7,271.2c0.5-7.8,0.8-18.1-0.2-25.5c1.2,0.4,3.8,0.5,4.9,0
			c-0.3,5.8-0.6,17.6,0,23.3c2.8-0.1,6.8,0.4,9.7-0.6v2.8C406,270.8,399.9,270.9,395.7,271.2z M418.5,271.4
			c-0.4-6.9-0.5-18.6,0-25.5c0.4,0.4,2.4-0.1,3.1,0.1c0.3,0.2,0.8,0.2,1-0.1c-0.7,6.5-0.7,18.9,0,25.5
			C421.8,270.8,419.4,270.8,418.5,271.4z M438.1,259c0.1,3.3-0.2,8.8,0.2,12.4c-1.1-0.6-3.3-0.6-4.4,0c0.3-6.8,0.3-18.6,0-25.5
			c5.1,0.2,8.9,0.2,13.9,0c0,0.3-0.3,0.5,0.3,0.8v1c-0.3,0.3-0.3,0.3-0.3,0.5c-3.1-0.5-6.6-0.3-9.7-0.3v9c2.1-0.1,7,0.2,9-0.2v2.5
			C444.6,258.8,440.5,259.1,438.1,259z M456.6,271.3c0.6-8,0.7-17.4,0-25.3c3.2-0.1,10.2,0.2,13.5-0.3v0.8c-1,0.4-0.9,0.8,0,1.3v0.5
			c-3.3-0.4-6.7-0.5-10-0.3v9c3,0,6.1-0.1,9.1-0.5c-0.3,0.3-0.3,0.5-0.1,0.8v1.8c-3-0.3-6.4,0.1-9,0v11c3.3,0,6.7,0.1,10-0.8v2.1
			C466.2,270.8,460.5,270.8,456.6,271.3z"/>
		<path class="xp31" d="M33.1,216l283.7,7.3l284-7.3v-3.4l-284-7.3l-283.7,7.3L33.1,216L33.1,216z"/>
		<path class="xp30" d="M131.1,118.4h27.3V169l33.8,0v15h-61L131.1,118.4z M475.1,185c-21.2,0-39-4.5-39-22v-45h26v42
			c0,8.4,6.2,11,13,11c6.5,0,13-2.6,13-11v-42h26v45C514.1,180.5,496.3,185,475.1,185z M569.2,135.9h27.7
			c-0.8-15.9-22.5-19.6-39-19.6c-16.2,0-37.7,5.5-37.7,21.7c0,12,11.8,15.7,20.1,17.5c5.8,1,15.4,2.9,20.2,3.9
			c6.8,1.3,10.5,2.6,10.5,6.8c0,4.2-3.9,6.3-12,6.3c-7.6,0-12.5-2.3-13.8-7.5l-28.1-0.1c0.1,18.1,24.3,21.5,42.4,21.5
			c18.1,0,39.8-4.2,39.8-21.7c0-9.7-6.3-16-21.5-19.1c-7.7-1.5-15.3-3-23-4.4c-5.8-0.8-7.6-2.9-7.6-5.8c0-2.6,2.6-5.8,10.5-5.8
			C564.2,129.6,567.8,131.7,569.2,135.9L569.2,135.9z M407.1,160c19.5,0,24-13.2,24-21c0-7.3-3.7-21-24-21h-53v66h26v-24H407.1z
			 M380.1,145v-12l17.2-0.2c4.5,0,8.1,1.8,8.1,6c0,3.7-2.3,6.2-8.3,6.2H380.1z M225.2,120l0.9-2h27l-28,44v22h-26l-0.2-22.2
			L171.1,118h26l1.3,2l12.3,21.7c1,1.3,1,1.3,2.1,0L225.2,120z M307.2,183.6l0.6-1.3l13.8-32.4c0.5-0.8,1.6-0.7,1.5,0.1v34h22v-66
			h-27l-0.5,2l-16.4,37.4c-0.8,1.3-1.3,1.3-1.8,0L282.9,120l-0.8-2h-26v66h22v-34c0.2-0.8,0.5-0.8,0.7-0.1l13.8,32.4l0.5,1.7h14
			L307.2,183.6L307.2,183.6z M125.1,151c0,21.9-19.1,35-45.7,35C53,186,34,172.9,34,151s19.1-35,45.4-35
			C106,116,125.1,129.1,125.1,151z M97.7,151c0-13.3-6.8-21.4-18.3-21.4c-11.2,0-18,8.1-18,21.4c0,13.1,6.8,21.4,18,21.4
			C90.9,172.4,97.7,164,97.7,151z"/>
		<path class="xp31" d="M34.7,216l284.2,7.3l284.2-7.3v-3.4l-284.2-7.3l-284.2,7.3L34.7,216L34.7,216z"/>
	</g>
</g>
</svg>
