<?xml version="1.0" encoding="utf-8"?>

<svg version="1.1" xmlns="http://www.w3.org/2000/svg" xmlns:xlink="http://www.w3.org/1999/xlink" x="0px" y="0px"
	 viewBox="0 0 634.3 392" style="enable-background:new 0 0 634.3 392;" xml:space="preserve">
<style type="text/css">
	.xp32{fill:#FFFFFF;}
	.xp33{fill:#4484BF;}
</style>

<g id="Layer_2">
	<g>
		<g>
			<polygon class="xp32" points="388.6,161.6 388.6,161.6 314.7,161.6 311.9,171.6 341.8,171.6 290.5,246.8 364.3,246.8 367.2,237.2
				336.8,236.7 			"/>
			<path class="xp32" d="M161.6,119.5H99.4L97,129.5h14.4c0.3,0.3-33.4,116.9-33.4,117.3h33.4l12.4-39.6c39.3,1.5,78.8-7.8,78.3-55.3
				h0C202.1,126.6,183.5,119.5,161.6,119.5z M133.4,197.4h-6.7l20.1-67.8c10.4-0.7,21,0.8,20.5,13.4
				C167.4,163,157.3,197.8,133.4,197.4z"/>
			<path class="xp32" d="M207.4,285l33.4-113.1h24.4l-22,75.1h33.4l24.8-85.5h-57.7c6.7-21.5,13.8-85.8,45.3-85.8
				c6.7,0,14.3,2.4,17.6,8.6c-24.2-0.5-25.6,33.8-1.4,34.8c11.4,0,19.5-10.5,19.5-21.4c0-20-21.5-27.2-37.7-27.2
				c-46.2,0-62.9,39.6-73.9,77.7l-52,178.8c-12.6-4.4-25.1-11.2-37.4-18.3c42.3,25.6,99,42.8,162.7,46.9c-32-2.2-64-8-94.4-17.1
				C195.4,319.8,202.1,303.1,207.4,285z"/>
			<path class="xp32" d="M436.4,157c-32.5,0-57.8,26.3-57.8,58.3c0.1,52.1,80.2,42.7,91.3,1h-34.4c-2.9,8.1-6.7,23.9-17.7,23.9
				c-5.7,0-9.6-2.9-9.6-9.6c0-7.6,2.9-16.2,5.3-23.4h58.8C482.8,179.3,465.1,155.7,436.4,157z M440.7,197.4h-23.9
				c2.4-9.5,6.7-29.6,19.1-29.6C451.5,169.3,442.5,187.4,440.7,197.4z"/>
			<path class="xp32" d="M572.7,175.8c-2.5-25.6-34.7-16.5-43.1,0.5l4.3-14.7h-45.4l-3.8,10l13.4,0.5l-22,75h33.4
				c4.8-15.8,12.9-61.2,29.6-73.6h1C534,198.8,572.1,202,572.7,175.8z"/>
			<path class="xp33" d="M152.6,129.5h-5.7l-20.1,67.8h6.7c23.9,0.5,33.9-34.4,33.9-54.5C167.4,133.4,162.1,129.5,152.6,129.5z"/>
			<path class="xp33" d="M588.5,196.1c0-49.9-38.7-94.5-99.4-124c-51.7-23.6-113.6-34.7-159.7-36.4c-4.5-0.1-9.1-0.2-13.7-0.2
				c-2.3,0-4.6,0-6.9,0.1C251.9,36.9,166.5,53.5,108.5,92C-2.8,166.4,48.4,286.9,161.2,327l52-178.8c11-38.1,27.6-77.7,73.9-77.7
				c16.2,0,37.7,7.2,37.7,27.2c0,11-8.1,21.4-19.5,21.4c-24.2-1-22.8-35.3,1.4-34.8c-3.3-6.2-11-8.6-17.6-8.6
				c-31.5,0-38.6,64.4-45.3,85.8h57.7L276.6,247h-33.4l22-75.1h-24.4c-10.4,38.2-39.9,129.4-48.7,166.5
				C312.4,379.9,575.4,352.2,588.5,196.1z M202.1,151.9c0.5,47.5-39,56.8-78.3,55.3l-12.4,39.6H78.1c0-0.4,33.6-116.9,33.4-117.3H97
				l2.4-10.1C128.9,123.9,202.7,102.8,202.1,151.9L202.1,151.9z M364.3,246.8h-73.9l51.4-75.1h-30l2.9-10.1h73.9v0l-51.8,75.1
				l30.5,0.5L364.3,246.8z M472.2,207.2h-58.8c-2.4,7.2-5.3,15.8-5.3,23.4c0,6.7,3.8,9.6,9.6,9.6c11,0,14.8-15.8,17.7-23.9h34.4
				c-11.1,41.7-91.1,51.2-91.3-1C375.1,148.4,492.8,130.3,472.2,207.2z M539,178.2c0-1.4,0.5-3.3,0.9-4.7h-1
				c-16.7,12.4-24.9,57.8-29.6,73.6H476l22-75l-13.4-0.5l3.8-10h45.4l-4.3,14.7c8.5-17,40.6-26.1,43.1-0.5
				C572.9,198.1,540.5,201,539,178.2z"/>
			<path class="xp33" d="M435.9,167.8c-12.4,0-16.7,20-19.1,29.6h23.9C442.5,187.4,451.5,169.3,435.9,167.8z"/>
		</g>
	</g>
</g>
</svg>
