<?xml version="1.0" encoding="utf-8"?>

<svg version="1.1" xmlns="http://www.w3.org/2000/svg" xmlns:xlink="http://www.w3.org/1999/xlink" x="0px" y="0px"
	 viewBox="0 0 634.3 392" style="enable-background:new 0 0 634.3 392;" xml:space="preserve">
<style type="text/css">
	.xp57{fill-rule:evenodd;clip-rule:evenodd;}
</style>

<g id="Layer_2">
	<g>
		<path class="xp57" d="M127.1,161.8c0.3-0.1,0.5-0.2,0.6-0.2c0.5,0,1,0,1.5,0c4.6,0,9.3,0,13.9,0c2.3,0,4.6,0.1,7,0.1
			c0.4,0,0.8,0,1.2,0c1.2,0,2.5,0,3.7,0.2c2.4,0.4,3.6,1.7,3.5,4.2c0,0.5-0.1,1-0.3,1.5c-0.4,1.2-0.9,2.4-1.3,3.6
			c0,0.1-0.1,0.2-0.1,0.3c-0.6,1.9-1.2,3.8-1.8,5.7c-0.2,0.6-0.4,1.2-0.6,1.8c-0.3,0.9-0.5,1.7-0.8,2.6c-0.1,0.3-0.1,0.6-0.2,0.8
			c-0.9,1.8-1.2,3.9-2,5.7c-0.5,1.3-0.9,2.7-1.3,4c-0.5,1.7-1,3.3-1.6,5c-0.5,1.7-1.1,3.4-1.7,5.1c-0.3,0.8-0.6,1.6-1,2.4
			c-0.7,1.1-1.7,1.9-2.8,2.6c-0.6,0.3-1.3,0.6-1.9,0.9c-0.6,0.3-1.3,0.4-1.9,0.4c-1.6,0-3.2,0-4.8,0c-3.2,0-6.4,0.1-9.6,0.1
			c-1.4,0-2.8,0-4.2,0c-3.6,0-7.3,0-10.9,0c-1,0-2-0.2-3-0.3c-0.9,0.2-1.5,0.8-1.8,1.8c-0.9,2.6-1.7,5.3-2.6,7.9
			c-0.6,1.9-1.2,3.7-1.8,5.5c0,0.1-0.1,0.2-0.1,0.2c-0.5,2.1-1.3,4.2-2,6.3c-0.4,1.3-0.8,2.7-1.3,4c-0.5,1.3-1.1,2.5-2.2,3.4
			c-0.9,0.8-1.9,1.5-3,1.9c-2,0.7-4,1.1-6.2,1.1c-6.3,0-12.7,0-19,0c-0.4,0-0.8,0-1.2,0c-0.3,0-0.5-0.2-0.7-0.2
			c-0.3-0.5-0.2-0.8,0-1.1c0.3-0.3,0.6-0.7,1-0.9c1-0.7,1.6-1.6,2.1-2.7c0.5-1.2,1-2.5,1.3-3.8c0.2-0.8,0.5-1.5,0.8-2.2
			c0.1-0.3,0.3-0.5,0.3-0.8c0.6-1.7,1.1-3.5,1.7-5.2c0.6-1.9,1.1-3.8,1.9-5.6c0.1-0.3,0.2-0.5,0.3-0.8c0.3-1.5,0.8-3,1.4-4.5
			c0.8-2.2,1.5-4.4,2.2-6.6c0.7-2.1,1.3-4.2,2-6.3c0.1-0.2,0.1-0.4,0.2-0.6c0.5-1.4,1-2.7,1.5-4.1c0.3-0.9,0.6-1.8,0.9-2.7
			c0.6-1.8,1.2-3.7,1.9-5.5c0.2-0.5,0.4-1,0.5-1.5c0.2-1,0.5-1.9,0.9-2.8c0.7-2.1,1.3-4.2,2-6.3c0.5-1.6,1.1-3.2,1.7-4.8
			c0.5-1.4,0.9-2.8,1.6-4.1c0.9-1.7,2.1-3.1,3.7-4.1c0.4-0.3,0.9-0.5,1.3-0.6c1.3-0.3,2.6-0.5,3.9-0.7c1.7-0.1,3.5-0.1,5.2-0.2
			c6.4,0,12.8,0,19.2-0.1c0.4,0,0.9,0,1.3,0.1c0.2,0.3,0.1,0.5-0.1,0.6c-0.2,0.1-0.3,0.1-0.5,0.2c-2.7,0.7-4.7,2.4-5.9,4.9
			c-0.5,0.9-0.9,1.8-1.2,2.7c-0.1,0.4-0.3,0.7-0.4,1c-0.2,0.4-0.3,0.8-0.4,1.2c-0.6,2.5-1.6,4.8-2.3,7.2c-0.2,0.6-0.3,1.2-0.5,1.8
			c-0.1,0.3-0.1,0.6-0.2,0.8c-1,2.6-1.7,5.3-2.6,8c-0.9,2.6-1.7,5.3-2.6,7.9c-0.1,0.3-0.3,0.6-0.4,0.9c-0.2,0.5-0.4,1-0.5,1.5
			c-0.4,1.7-0.8,3.3-1.6,4.8c-0.1,0.1-0.1,0.3-0.2,0.5c-0.3,1.1,0.4,1.9,1.5,1.9c0.9-0.1,1.8-0.2,2.7-0.5c1.4-0.4,2.7-1,3.9-1.8
			c0.4-0.3,0.8-0.7,1.2-1c0.2-0.1,0.3-0.3,0.4-0.4c1.1-0.6,1.7-1.7,2.3-2.7c0.7-1.3,1.4-2.7,2-4c0.1-0.2,0.2-0.5,0.3-0.7
			c0.5-1.8,1.3-3.4,1.7-5.2c0.1-0.5,0.4-1,0.5-1.5c0.6-1.8,1.2-3.6,1.8-5.4c0.1-0.4,0.3-0.9,0.4-1.3c0.2-0.6,0.4-1.2,0.6-1.9
			c0.3-1.1,0.6-2.2,1.1-3.3c0.1-0.2,0.2-0.5,0.3-0.7c0.4-1.5,0.9-2.9,1.3-4.4c0.2-0.7,0.4-1.4,0.7-2.1c0.7-1.6,0.8-3.3,0.8-5
			c0-0.7-0.3-1.3-0.7-1.8c-0.4-0.4-0.8-0.8-1.2-1.2C127.4,162.3,127.3,162.1,127.1,161.8z"/>
		<path class="xp57" d="M328.5,220.1c-0.2,0.3-0.4,0.6-0.6,0.8c-0.6,1.1-0.9,2.3-1.2,3.5c-0.6,2.5-1.3,5-2,7.6
			c-0.3,1.1-0.5,2.2-0.8,3.2c-0.3,1-0.5,1.9-0.8,2.9c-0.4,1.2-1.2,1.8-2.5,1.8c-1.3,0-2.6,0-4,0c-1,0-2,0.1-3,0.1
			c-0.2,0-0.3,0-0.5,0c-1.4,0-1.9-0.6-1.6-1.9c0.1-0.4,0.3-0.8,0.4-1.2c0.3-0.8,0.6-1.5,0.8-2.3c0.7-2.1,1.1-4.2,2-6.3
			c0.3-0.7,0.5-1.5,0.7-2.3c0.2-0.7,0.5-1.5,0.7-2.2c0.1-0.2,0.2-0.4,0.2-0.6c0.4-2.3,1.4-4.5,2-6.8c0.5-2,1.2-3.9,1.9-5.9
			c0.1-0.3,0.2-0.6,0.3-0.9c0.8-1.8,1.2-3.7,1.7-5.6c0.1-0.5,0.3-1,0.5-1.4c0.3-0.8,0.9-1.2,1.7-1.2c0.2,0,0.4,0,0.6,0
			c3.7,0,7.4,0,11.2,0c0.3,0,0.6,0,0.9,0c1,0.1,1.5,0.7,1.4,1.7c-0.3,2-0.2,4-0.2,5.9c-0.1,1.8,0,3.6-0.1,5.3c-0.1,2-0.2,4-0.3,5.9
			c0,0.6-0.1,1.2,0,1.9c0,0.5,0.1,0.5,0.8,0.9c0.2-0.2,0.5-0.3,0.6-0.5c0.3-0.4,0.5-0.8,0.7-1.2c1.2-2.2,2.5-4.3,3.8-6.4
			c1.9-3.1,3.7-6.2,5.5-9.3c0.6-1.1,1.3-2.1,1.9-3.2c0.5-0.8,1.1-1.2,2-1.2c0.4,0,0.7,0,1.1,0c3.5,0,7,0.1,10.6,0
			c1.5,0,2.1,0.8,1.6,2.2c-0.8,2.1-1.6,4.2-2.2,6.3c-0.5,1.9-1.2,3.7-1.7,5.6c-0.1,0.5-0.3,1-0.4,1.4c-0.9,2.6-1.8,5.3-2.4,7.9
			c-0.3,1.4-0.9,2.7-1.3,4c-0.8,2.7-1.6,5.4-2.5,8.1c-0.2,0.7-0.6,1.5-0.9,2.2c-0.3,0.7-0.9,0.9-1.6,0.9c-2.1-0.1-4.2-0.1-6.3-0.1
			c-0.7,0-1.3,0.1-2,0.1c-0.6,0-1.2-0.1-1.5-0.7c-0.2-0.6,0-1.1,0.3-1.6c0.4-0.7,0.6-1.5,0.9-2.2c0.6-1.5,1-3,1.6-4.4
			c0.9-1.9,1.4-4,2.2-5.9c0.2-0.5,0.4-1,0.6-1.5c0.4-0.8,0.5-1.6,0.6-2.4c0-0.2,0-0.5-0.1-0.8c-0.3,0.1-0.5,0.1-0.6,0.2
			c-0.3,0.3-0.6,0.6-0.8,0.9c-0.5,0.8-1,1.7-1.5,2.5c-1.5,2.4-2.8,4.9-4.4,7.3c-1,1.5-1.9,3.1-2.8,4.7c-0.6,1-1.2,1.9-1.8,2.8
			c-0.5,0.7-1.2,1.2-2.1,1.1c-1.8-0.1-3.6-0.1-5.3,0c-0.2,0-0.4,0-0.6-0.1c-0.7-0.1-1.2-0.6-1.3-1.3c-0.1-0.5-0.1-1-0.1-1.5
			c0.4-3.9,0.3-7.8,0.5-11.7c0-0.5,0.1-1,0.1-1.5c0-1,0-2,0-3C329.1,220.8,329,220.4,328.5,220.1z"/>
		<path class="xp57" d="M271.1,222.3c0.2,0.2,0.4,0.4,0.7,0.6c0.3,0.3,0.7,0.5,1,0.7c0.9,0.6,1.3,1.4,1.4,2.5
			c0.1,1.1-0.1,2.2-0.5,3.3c-0.3,1.2-0.7,2.4-1.1,3.6c-0.1,0.3-0.3,0.6-0.4,0.9c-0.3,0.6-0.5,1.2-0.7,1.8c-0.2,0.6-0.3,1.3-0.1,2
			c0.1,0.3,0.2,0.6,0.2,1c0.1,0.6-0.2,1.1-0.8,1.3c-0.3,0.1-0.7,0.2-1.1,0.2c-1,0-1.9-0.1-2.9-0.1c-1.1,0-2.1,0-3.2,0
			c-1,0-2,0.1-3,0.1c-0.1,0-0.2,0-0.4,0c-0.9-0.1-1.3-0.5-1.3-1.4c0-0.4,0-0.8,0.1-1.2c0.2-1,0.5-2,0.7-3c0.2-1,0.4-1.9,0.9-2.8
			c0.1-0.1,0.1-0.3,0.2-0.5c0.8-2.3-0.5-4.2-2.9-4.4c-1.6-0.1-3.1,0-4.7,0c-0.7,0-1.3,0.3-1.7,0.9c-0.2,0.3-0.3,0.6-0.4,0.9
			c-0.5,1.5-0.9,3-1.3,4.5c0,0,0,0.1,0,0.1c-0.5,1.7-1,3.4-1.6,5.1c-0.1,0.3-0.2,0.6-0.4,0.9c-0.5,0.6-1.1,0.9-1.9,0.9
			c-2.9,0-5.9,0-8.8,0c-0.6,0-1.2-0.1-1.6-0.8c0-0.3,0-0.7,0.1-1.2c0-0.2,0.1-0.4,0.2-0.6c0.9-2.3,1.5-4.7,2.3-7
			c0.3-0.8,0.6-1.6,0.9-2.5c0.2-0.7,0.5-1.3,0.6-2c0.5-2.3,1.2-4.6,2.1-6.8c0.3-0.7,0.4-1.3,0.6-2c0.2-0.6,0.4-1.1,0.5-1.6
			c0.2-0.6,0.4-1.2,0.5-1.8c0.2-1,0.5-2,0.9-3c0.7-2.2,1.7-4.4,2.2-6.7c0.1-0.5,0.3-1,0.5-1.4c0.4-0.8,1-1.3,1.9-1.3
			c1.1,0,2.2,0,3.2,0c5.2,0,10.4,0,15.6,0.1c1.5,0,3.1,0.1,4.6,0.1c1.2,0.1,2.3,0.4,3.4,1c1.1,0.6,2,1.4,2.8,2.4
			c0.8,1.1,1.2,2.3,1.3,3.6c0.1,1.2,0,2.3-0.4,3.4c-1,3.1-2.6,5.7-5.3,7.6c-0.8,0.5-1.6,1.1-2.4,1.6
			C271.3,221.4,271.1,221.7,271.1,222.3z M255.8,217.9c0.3,0,0.6,0.1,0.9,0.1c1.8-0.1,3.6-0.1,5.4-0.2c1.7-0.1,3-1,4.1-2.3
			c1.5-2,0.4-4.5-2-4.9c-0.4-0.1-0.8-0.1-1.2-0.1c-1.3,0-2.6,0.1-4-0.1c-1.1-0.1-1.8,0.4-2.3,1.3c-0.2,0.3-0.3,0.7-0.4,1
			c-0.2,1.1-0.5,2.2-1,3.2C255,216.7,255.1,217.4,255.8,217.9z"/>
		<path class="xp57" d="M452,222.1c0.1,0.2,0.2,0.4,0.4,0.6c0.2,0.2,0.4,0.3,0.6,0.5c1.8,1,2.2,2.7,2,4.6c-0.1,0.8-0.3,1.5-0.6,2.3
			c-0.2,0.8-0.4,1.5-0.7,2.3c-0.2,0.7-0.4,1.3-0.7,2c-0.5,1.3-0.9,2.6-0.5,4c0,0.2,0.1,0.3,0.1,0.5c0,0.9-0.4,1.4-1.2,1.4
			c-0.9,0-1.8,0-2.7-0.1c-1.7,0-3.3,0-5,0c-0.8,0-1.6,0-2.4-0.1c-1-0.1-1.4-0.5-1.3-1.4c0-0.5,0.1-1,0.2-1.5c0.2-1,0.5-2.1,0.8-3.1
			c0.2-0.8,0.5-1.6,0.8-2.3c0.2-0.6,0.4-1.2,0.4-1.9c0-0.8-0.3-1.5-0.9-1.9c-0.7-0.5-1.5-1-2.4-1c-1.6,0-3.2,0-4.8,0
			c-0.9,0-1.6,0.5-1.9,1.4c-0.1,0.3-0.2,0.6-0.3,1c-0.4,1.9-1.1,3.7-1.7,5.6c-0.3,1-0.6,2-0.9,3c-0.1,0.4-0.2,0.7-0.4,1.1
			c-0.4,0.8-1,1.2-1.8,1.3c-0.3,0-0.6,0-0.9,0c-2.2,0-4.4,0-6.6,0c-0.5,0-1,0.1-1.5,0.1c-0.3,0-0.6,0-0.9,0
			c-0.6-0.1-0.9-0.6-0.9-1.2c0-0.4,0.1-0.7,0.2-1.1c0.1-0.5,0.3-0.9,0.5-1.4c0.2-0.4,0.4-0.8,0.5-1.3c0.4-1.7,0.9-3.3,1.5-4.9
			c0.4-1,0.7-2,1-2.9c0.1-0.2,0.1-0.3,0.2-0.5c0.5-1.5,0.9-3.1,1.4-4.6c0.6-2.1,1.3-4.2,1.9-6.3c0.2-0.7,0.5-1.4,0.7-2.1
			c0.5-1.9,1.1-3.7,1.6-5.6c0.1-0.4,0.2-0.7,0.4-1.1c0.4-0.9,0.7-1.9,1-2.9c0.1-0.5,0.3-0.9,0.5-1.4c0.4-0.9,1.1-1.3,2.1-1.3
			c3,0,6,0,9.1,0c3.7,0,7.4-0.1,11.2,0c1.4,0,2.9,0.2,4.3,0.5c3.1,0.6,5.2,2.4,6.1,5.5c0.4,1.2,0.3,2.5,0.1,3.7
			c-0.3,1.3-0.7,2.6-1.4,3.8c-0.3,0.6-0.8,1.2-1.3,1.8c-1.4,1.7-3,3.2-4.9,4.3C452.5,221.3,452.2,221.5,452,222.1z M439.9,218
			C439.9,218,439.9,218.1,439.9,218c1.1,0,2.1,0,3.2-0.2c1.3-0.1,2.3-0.7,3.3-1.6c1.1-1,1.4-2.2,1.2-3.6c-0.1-0.8-0.6-1.4-1.3-1.7
			c-0.6-0.2-1.2-0.4-1.8-0.4c-1.5-0.1-3.1-0.1-4.6-0.1c-1.4,0-2.1,0.6-2.5,2c-0.3,1.1-0.7,2.1-1,3.2c-0.1,0.3-0.2,0.6-0.2,1
			c0,0.7,0.3,1.1,1,1.2c0.3,0.1,0.6,0.1,0.9,0.1C438.6,218,439.3,218,439.9,218z"/>
		<path class="xp57" d="M413.2,230.5c0.6,0.3,0.7,0.7,0.7,1.1c0,0.4,0,0.8-0.2,1.2c-0.3,0.9-0.7,1.8-1,2.7c-0.2,0.9-0.5,1.7-0.8,2.6
			c-0.1,0.3-0.2,0.5-0.4,0.8c-0.3,0.5-0.7,0.8-1.3,0.8c-0.6,0-1.2,0-1.9,0c-1.3,0-2.6-0.1-3.8-0.1c-4.8,0-9.6,0-14.4,0
			c-2.4,0-4.8,0.1-7.2,0.1c-0.4,0-0.8,0-1.1,0c-0.7-0.1-1.3-0.7-1.3-1.4c0-0.3,0.1-0.6,0.1-0.9c0.1-0.3,0.2-0.6,0.3-0.9
			c0.9-2.3,1.4-4.7,2.2-7c0.2-0.7,0.5-1.4,0.7-2.1c0.1-0.4,0.3-0.8,0.4-1.2c0.4-1.3,0.7-2.6,1.1-3.8c1-2.7,1.8-5.5,2.7-8.2
			c0.2-0.6,0.3-1.3,0.5-1.9c0.2-0.7,0.4-1.3,0.6-2c0.2-0.7,0.4-1.3,0.7-2c0.3-0.9,0.6-1.8,0.9-2.7c0.2-0.6,0.3-1.1,0.5-1.7
			c0.2-0.5,0.3-1,0.5-1.5c0.4-0.8,1-1.2,1.9-1.2c0.7,0,1.4,0,2.1,0c7.2,0,14.5,0,21.7,0c1.2,0,2.3,0,3.5,0c0.4,0,0.7,0.1,1.1,0.2
			c0.6,0.2,0.9,0.6,0.8,1.2c0,0.2-0.1,0.4-0.2,0.6c-0.3,0.9-0.6,1.9-0.9,2.8c-0.3,1-0.6,2-1,2.9c-0.3,0.8-1.1,1.4-2,1.4
			c-4.6,0-9.3,0-13.9,0c-0.5,0-1.1,0-1.6,0.1c-0.9,0.1-1.6,0.6-1.9,1.5c-0.2,0.7-0.5,1.4-0.7,2.1c-0.1,0.4-0.1,0.9,0.2,1.3
			c0.5,0.6,1.2,0.6,1.8,0.6c3.1,0,6.2-0.1,9.3-0.1c0.5,0,1.1-0.1,1.6-0.1c0.5,0,0.9,0,1.3,0.2c0.4,0.2,0.7,0.8,0.6,1.2
			c-0.1,0.4-0.2,0.8-0.4,1.2c-0.6,1.3-0.9,2.6-1.2,3.9c-0.1,0.6-0.3,1.1-0.5,1.6c-0.3,0.7-0.9,1.1-1.8,1.1c-0.7,0-1.3,0-2,0
			c-3.3,0-6.5,0-9.8,0c-0.5,0-1.1,0-1.6,0.1c-0.8,0.1-1.3,0.6-1.5,1.3c-0.2,0.7-0.4,1.4-0.6,2c0,0.1,0,0.2-0.1,0.2
			c-0.3,1.3,0.2,2,1.6,2c1,0,2.1,0,3.1,0c3.8,0,7.7,0,11.5,0C412.5,230.5,412.9,230.5,413.2,230.5z"/>
		<path class="xp57" d="M291.1,240c-2.3,0-4.6,0-6.8,0c-1.9,0-3.9,0.1-5.8,0.1c-0.8,0-1.7,0-2.5-0.2c0,0,0,0,0,0
			c-0.8-0.9-0.4-1.8-0.1-2.7c0.6-1.8,1.3-3.7,1.9-5.5c0.4-1.3,0.7-2.7,1.3-4c0.1-0.1,0.1-0.3,0.2-0.5c0.9-3,1.8-6,2.8-9
			c0.7-2.2,1.4-4.3,2.1-6.5c0.7-2.2,1.3-4.4,2-6.7c0.2-0.8,0.5-1.5,0.8-2.2c0.3-0.9,0.9-1.3,1.9-1.3c1,0,2.1,0,3.1,0
			c0.3,0,0.6,0,0.9,0c3.7,0,7.4-0.1,11.2-0.1c3.6,0,7.3,0,10.9-0.1c0.5,0,1,0,1.5,0c0.6,0,1.2,0.2,1.6,0.6c0,0,0,0,0,0
			c0.4,1.4-1.4,2.7,0.3,4.1c0.1,0.1,0.1,0.3-0.1,0.3c-1.8,0.3-1.7,1.5-2.1,2.4c-0.4,1-1.2,1.6-2.3,1.6c-1.1,0-2.2,0-3.2,0
			c-3,0-6,0-8.9,0c-0.7,0-1.3-0.1-2-0.1c-0.5,0-1,0-1.5,0.1c-0.7,0.2-1.3,0.6-1.5,1.4c-0.2,0.7-0.5,1.4-0.7,2.1
			c-0.2,0.5-0.1,1.1,0.1,1.4c0,0,0,0,0,0c0.5,0.5,1.1,0.6,1.8,0.6c3.4,0,6.8,0,10.2,0c0.9,0,1.9-0.4,2.8,0.5c0,0,0,0,0,0
			c-0.1,1.2-0.7,2.2-1.1,3.4c-0.3,0.9-0.5,1.8-0.8,2.7c-0.1,0.4-0.2,0.9-0.4,1.3c-0.3,0.8-0.9,1.2-1.7,1.3c-1.1,0.1-2.2-0.3-3.1,0.9
			c-0.4,0.6-1.2,0.9-1.9,0.7c-5.7-1.8-9.1-2.9-10.1,0.3c-0.1,0.4-0.4,0.8-0.5,1.3c-0.1,0.4-0.2,0.9-0.2,1.3c0,0.7,0.5,1.2,1.2,1.3
			c0.3,0,0.6,0,0.9,0c0.8,0,1.6-0.1,2.4-0.1c4,0,8,0,12,0c0.2,0,0.3,0,0.5,0c0.8,0.1,1.2,0.5,1.2,1.3c0,0.3-0.1,0.7-0.2,1
			c-0.5,1.6-0.9,3.2-1.4,4.8c-0.1,0.2-0.1,0.4-0.2,0.6c-0.4,0.9-1,1.3-2,1.3C300.5,239.9,295.8,240,291.1,240
			C291.1,240,291.1,240,291.1,240z"/>
		<path class="xp57" d="M197.4,239.4c-0.2-0.8,0-1.5,0.2-2.2c0.7-2,1.3-4,1.9-6c0.4-1.2,0.7-2.4,1.2-3.5c0,0,0-0.1,0-0.1
			c0.6-1.8,1.1-3.6,1.7-5.5c0.7-2.2,1.2-4.5,2.1-6.6c0.1-0.2,0.2-0.5,0.2-0.7c1.1-3.6,2.2-7.2,3.3-10.8c0.2-0.5,0.3-1,0.5-1.5
			c0.3-0.7,0.8-1.1,1.6-1.1c0.9,0,1.8,0.1,2.7,0.1c4.6,0,9.3,0,13.9,0c1.9,0,3.7,0,5.6,0.3c0.9,0.1,1.7,0.4,2.4,0.9
			c0.2,0.1,0.4,0.2,0.5,0.3c3.7,1.8,5.1,5.6,4.7,8.8c-0.1,1.4-0.4,2.7-0.9,4c-0.3,0.9-0.7,1.8-1.2,2.6c-0.9,1.5-1.8,2.9-3,4.1
			c-0.5,0.5-1,1-1.7,1.3c-0.3,0.1-0.5,0.3-0.7,0.5c-3.3,2.6-7,3.7-11.2,3.9c-0.8,0-1.7,0.1-2.5,0.1c-0.7,0-1.4,0-2.1-0.1
			c-0.7,0-1.5,0-2.2,0.1c-1,0.1-1.7,0.7-2,1.6c-0.3,0.7-0.5,1.5-0.8,2.2c-0.4,1.2-0.8,2.3-1.2,3.5c-0.3,0.8-0.4,1.7-0.7,2.5
			c-0.4,1.4-1,1.9-2.5,2c0,0-0.1,0-0.1,0c-2.8-0.3-5.6,0.2-8.4,0.1C198.4,240.1,197.8,240.1,197.4,239.4z M219.6,219.1
			C219.6,219.1,219.6,219.1,219.6,219.1c0.5,0,1.1,0,1.6,0c2.4,0,4.1-1.3,5.6-3c0.3-0.4,0.5-0.8,0.7-1.3c0.3-0.7,0.3-1.4,0-2.1
			c-0.5-1.3-1.5-2-2.8-2.1c-1.5-0.2-3-0.2-4.4-0.2c-0.9,0-1.5,0.4-1.9,1.1c-0.1,0.2-0.2,0.5-0.3,0.8c-0.3,1.4-0.7,2.7-1.3,4
			c-0.2,0.4-0.3,0.9-0.3,1.3c-0.1,1,0.4,1.6,1.4,1.6C218.5,219.2,219,219.2,219.6,219.1z"/>
		<path class="xp57" d="M505.4,219.2c0.1,0.6,0.5,0.8,0.8,1.1c0.5,0.4,1,0.8,1.5,1.3c0.8,0.8,1.3,1.8,1.3,3c0,1.1,0,2.2,0,3.2
			c-0.1,1.9-1.5,5-2.8,6.4c-1.7,1.8-3.7,3.1-6,3.8c-0.1,0-0.2,0-0.2,0.1c-1.8,1.1-3.8,1-5.8,1.1c-1.7,0.1-3.5,0-5.2,0
			c-4.3,0-8.7,0-13,0c-0.3,0-0.7,0-1-0.1c-0.6-0.2-0.9-0.6-0.9-1.3c0-0.2,0.1-0.4,0.1-0.6c0.1-0.3,0.2-0.6,0.3-0.8
			c0.6-1.6,1.1-3.3,1.4-5c0-0.3,0.1-0.6,0.2-0.8c0.5-1.6,0.9-3.3,1.4-4.9c0.4-1.2,0.8-2.4,1-3.7c0-0.1,0-0.2,0.1-0.2
			c0.6-1.9,1.2-3.9,1.8-5.8c0.3-0.9,0.4-1.8,0.7-2.8c0.2-0.8,0.5-1.6,0.7-2.4c0.2-0.5,0.3-1,0.5-1.5c0.3-0.9,0.5-1.7,0.8-2.6
			c0.2-0.8,0.4-1.6,0.6-2.4c0.1-0.4,0.2-0.9,0.3-1.3c0.3-0.9,1-1.4,1.9-1.5c1,0,2.1,0,3.1,0c0.4,0,0.8,0,1.2,0c3.1,0,6.3,0,9.4,0
			c2.5,0,4.9,0.3,7.4,0.7c1.4,0.2,2.3,1,3.2,2c1.3,1.6,1.9,3.4,1.7,5.4c-0.1,1.1-0.2,2.1-0.5,3.2c-0.7,2.6-2.3,4.3-4.6,5.5
			c-0.3,0.1-0.5,0.2-0.8,0.4C505.7,218.8,505.5,219,505.4,219.2z M484.1,232.1c0.5,0.6,1.2,0.6,1.9,0.6c2.8,0,5.6,0,8.4,0
			c1.4,0,2.6-0.5,3.8-1.1c0.2-0.1,0.4-0.3,0.6-0.4c1.2-1.1,1.8-2.5,2-4c0.2-1.1-0.1-2.2-0.8-3c-0.8-0.9-1.7-1.5-3-1.5
			c-3,0-5.9-0.1-8.9-0.1c-1.4,0-1.9,0.5-2.2,1.9c-0.2,0.7-0.3,1.5-0.5,2.2c-0.4,1.3-0.8,2.7-1.2,4
			C483.9,231,483.8,231.5,484.1,232.1z M493.7,216.6C493.7,216.6,493.7,216.6,493.7,216.6c1,0.1,1.9,0,2.8,0.1
			c1.1,0.1,2.2-0.1,3.3-0.5c2.4-0.8,3.3-2.4,3.4-4.8c0.1-1.7-0.8-2.8-2.5-3.2c-0.9-0.2-1.8-0.3-2.7-0.3c-1.7,0-3.5,0-5.2,0
			c-0.5,0-1,0-1.5,0.2c-0.7,0.2-1.2,0.6-1.4,1.4c0,0.2-0.1,0.3-0.1,0.5c-0.3,1.3-0.6,2.7-1.2,3.9c-0.1,0.2-0.2,0.5-0.2,0.7
			c-0.3,1.5,0.3,2.2,1.8,2.2C491.4,216.7,492.6,216.6,493.7,216.6z"/>
		<path class="xp57" d="M171.7,164.5c0.1-0.2,0.1-0.3,0.2-0.5c0.2,0.1,0.4,0.1,0.6,0.2c1.1,0.7,2.1,1.4,3.1,2.3
			c2.2,1.8,4.1,3.8,5.8,6.1c1.4,2,3,3.9,4,6.1c0.8,1.7,1.6,3.3,2.1,5.2c0.6,2.1,1.1,4.3,1.3,6.4c0.3,2.4,0.2,4.7-0.1,7.1
			c-0.3,2.3-0.9,4.5-1.6,6.7c-0.1,0.2-0.1,0.4-0.2,0.6c-1.3,2.7-2.4,5.3-4.2,7.7c-0.9,1.3-2,2.5-2.9,3.7c-1.8,2.3-4.1,4.1-6.2,6.1
			c-0.6,0.6-1.3,1-2,1.5c-0.8,0.6-1.5,1.1-2.3,1.7c-1.2,0.9-2.4,1.7-3.8,2.4c-0.3,0.2-0.6,0.3-0.9,0.5c-2.5,1.6-5.2,2.8-7.8,4
			c-1.7,0.8-3.5,1.5-5.3,2.3c-1.9,0.8-3.8,1.4-5.8,2c-1.8,0.6-3.7,1.3-5.6,1.6c-0.2,0-1.5,0.2-1.6,0c-0.3-0.5-0.4-0.6,0.1-0.9
			c0.4-0.2,0.9-0.4,1.3-0.6c0.7-0.3,1.3-0.7,2-1.1c1.7-0.9,3.5-1.6,5.2-2.5c1.8-1,3.6-2.1,5.4-3.2c1-0.6,2-1.3,3-1.9
			c2.2-1.4,4.2-3,6.2-4.7c3-2.7,5.9-5.5,8.5-8.7c2.4-2.9,4.5-6.1,6.3-9.4c1.2-2.2,2.2-4.4,2.9-6.8c0.6-1.8,1.1-3.7,1.4-5.5
			c1.2-7.5,0.2-15.9-4.3-22.1c-1-1.4-2-2.9-3.2-4.1C172.7,165.9,172.2,165.2,171.7,164.5z"/>
		<path class="xp57" d="M248.6,156.7c0,0.1,0,0.3,0,0.4c-0.5,1-0.7,2-0.9,3.1c-0.1,0.2-0.1,0.5-0.2,0.7c-0.5,1.5-1,1.9-2.6,1.9
			c-1.8,0-3.6,0-5.5,0c-3,0-6,0-9.1,0c-0.2,0-0.4,0-0.6,0c-0.6,0-1.1,0.3-1.4,0.9c-0.3,0.7-0.6,1.5-0.8,2.3
			c-0.2,0.9-0.5,1.7-0.8,2.5c-0.3,0.8-0.5,1.6-0.3,2.4c0.3,0.6,0.8,0.6,1.3,0.7c0.8,0,1.7,0.1,2.5,0.1c2.4,0,4.7,0,7.1,0
			c0.7,0,1.3-0.1,2-0.1c0.4,0,0.8,0,1.1,0c0.8,0.1,1.4,0.8,1.2,1.6c-0.1,0.7-0.3,1.4-0.5,2.1c-0.2,0.6-0.5,1.2-0.7,1.9
			c-0.3,0.7-0.8,1-1.5,1c-0.2,0-0.3,0-0.5,0c-3.1,0-6.1,0-9.2,0c-0.9,0-1.8,0-2.7-0.1c-0.3,0-0.6,0-0.9,0c-1.2,0-1.7,0.4-2,1.6
			c-0.7,2.5-1.4,5.1-2.2,7.6c-0.4,1.5-0.8,3-1.2,4.4c0,0.2-0.1,0.3-0.1,0.5c-0.4,1.2-0.8,1.5-2.1,1.5c-1.6,0-3.1,0-4.7,0
			c-1.2,0-1.8-0.9-1.5-1.9c0.3-1.1,0.6-2.1,0.9-3.2c0.1-0.4,0.3-0.9,0.4-1.3c0.5-2.4,1.3-4.7,2-7c0.1-0.3,0.2-0.6,0.2-0.8
			c0.5-2.4,1.3-4.7,1.9-7.1c0,0,0-0.1,0-0.1c0.6-2.1,1.2-4.2,1.8-6.3c0.2-0.8,0.4-1.7,0.6-2.5c0.5-1.8,1-3.7,1.5-5.5
			c0.1-0.3,0.2-0.6,0.4-0.9c0.4-0.7,1-1.2,1.9-1.1c0.5,0,1,0,1.5,0c5,0,10.1,0,15.1,0c2.2,0,4.3,0,6.5,0c0.3,0,0.6,0,0.9,0.1
			C248,155.9,248.4,156.1,248.6,156.7z"/>
		<path class="xp57" d="M570.8,238.7c-0.3-0.7-0.1-1.4,0.2-2c0.6-1,0.8-2.1,0.9-3.3c0-0.5,0.2-1,0.4-1.4c0.8-2.5,1.6-5,2.2-7.5
			c0-0.2,0.1-0.4,0.2-0.6c0.7-2.3,1.4-4.7,2-7c0.1-0.5,0.3-1,0.4-1.6c0.1-0.3,0.1-0.7,0.2-1c0.5-1.2,0.8-2.5,1.1-3.8
			c0.1-0.2,0.1-0.5,0.2-0.7c0.9-2.2,1.3-4.5,2.1-6.8c0.1-0.2,0.1-0.3,0.1-0.5c0.2-0.7,0.7-1.1,1.5-1.1c1.5,0,3,0,4.5,0
			c0.2,0,0.4,0,0.6,0.1c0.6,0.2,0.9,0.6,0.8,1.2c0,0.2-0.1,0.5-0.2,0.7c-0.2,0.8-0.5,1.5-0.7,2.3c-0.3,1.2-0.7,2.4-1,3.6
			c-0.4,1.4-0.8,2.7-1.2,4.1c-0.5,1.8-1,3.7-1.6,5.5c-0.1,0.3-0.2,0.6-0.2,1c-0.1,0.4-0.1,0.7,0.2,1c0.4,0.2,0.7,0.1,1-0.2
			c0.5-0.4,0.9-0.8,1.4-1.2c2.3-2.1,4.7-4.2,7-6.3c0.8-0.8,1.7-1.2,2.8-1.2c1.7,0,3.5,0,5.2,0c0.4,0,0.8,0,1.1,0.4
			c0.1,0.3,0.1,0.6-0.1,0.8c-0.2,0.2-0.3,0.4-0.5,0.5c-1.7,1.3-3.4,2.6-5.1,4c-1.2,1-2.4,1.9-3.5,2.9c-0.4,0.3-0.8,0.6-1.2,0.9
			c-0.8,0.7-1,1.3-0.6,2.3c0.7,2,1.5,4,2.2,6.1c0.2,0.5,0.3,0.9,0.5,1.4c0.4,1.4,0.9,2.8,1.4,4.1c0.1,0.4,0.4,0.7,0.5,1.1
			c0.2,0.4,0.4,0.8,0.4,1.3c0.1,0.7-0.3,1.2-1,1.3c-0.2,0-0.3,0-0.5,0c-1.5,0-3,0.1-4.5,0.1c-1.7,0-2.1-0.4-2.5-2.1
			c-0.3-1.3-0.6-2.7-1.2-3.9c-0.3-0.6-0.4-1.3-0.5-1.9c-0.2-0.7-0.4-1.4-0.6-2.2c-0.1-0.3-0.2-0.6-0.4-0.9c-0.3-0.5-0.9-0.7-1.4-0.4
			c-1.1,0.9-2.4,1.8-3.2,3.1c-0.3,0.6-0.6,1.2-0.7,1.9c-0.1,1.1-0.5,2.2-0.8,3.2c-0.2,0.5-0.3,1.1-0.5,1.7c-0.3,1-0.7,1.4-1.7,1.4
			c-1.5,0.1-3.1,0-4.6,0C571.5,239.2,571.2,239.1,570.8,238.7z"/>
		<path class="xp57" d="M379.1,201.5c1.4,0,2.8,0,4.2,0c0.4,0,0.8,0,1.1,0.1c0.8,0.2,1.2,0.8,1,1.6c0,0.2-0.1,0.4-0.2,0.6
			c-0.3,0.9-0.7,1.8-0.9,2.7c-0.7,2.1-1.3,4.3-2,6.4c-0.2,0.7-0.4,1.4-0.7,2.1c-0.7,1.8-1.1,3.7-1.8,5.5c-0.6,1.6-1.1,3.3-1.5,5
			c-0.3,1.2-0.6,2.3-1.1,3.4c-0.1,0.2-0.1,0.3-0.2,0.5c-0.5,2.2-1.3,4.4-2,6.5c-0.3,0.9-0.6,1.8-0.9,2.7c-0.4,1-1,1.4-2.1,1.4
			c-1.8,0-3.6,0-5.5,0c-1.1,0-2.2,0.1-3.3,0.1c-0.3,0-0.6,0-0.9,0c-0.6-0.1-1-0.5-1-1.1c0-0.5,0.1-1,0.3-1.4c0.4-1,0.8-2.1,1-3.2
			c0.1-0.4,0.3-0.8,0.4-1.2c0.3-0.9,0.6-1.9,0.9-2.8c0.1-0.4,0.2-0.8,0.4-1.2c0.6-1.2,0.9-2.5,1.2-3.8c0.3-1.2,0.8-2.4,1.1-3.7
			c0.4-1.4,0.8-2.9,1.3-4.3c0.6-1.9,1.3-3.8,1.9-5.8c0.6-1.8,1.1-3.6,1.7-5.4c0.3-1,0.6-2.1,0.9-3.1c0.1-0.3,0.2-0.6,0.4-0.9
			c0.3-0.5,0.7-0.8,1.3-0.8c0.2,0,0.4,0,0.6,0C376.2,201.4,377.7,201.4,379.1,201.5C379.1,201.4,379.1,201.5,379.1,201.5z"/>
		<path class="xp57" d="M515.2,219.7c-0.3-0.4-0.2-0.9,0-1.3c0.4-1.1,1-2.1,1.8-2.9c0.8-0.9,1.8-1.7,2.8-2.4c0.2-0.1,0.4-0.3,0.7-0.4
			c2.3-0.8,4.6-1.6,7.1-1.5c0.9,0,1.8,0,2.7,0c1.8,0,3.5,0.5,5.2,1.2c1.3,0.5,2.4,1.3,3.1,2.6c0.6,1.2,0.9,2.4,0.7,3.7
			c-0.4,1.8-0.9,3.5-1.3,5.3c0,0.2-0.1,0.3-0.2,0.5c-0.6,2.1-1.2,4.2-1.9,6.3c-0.3,1-0.5,2-0.9,3c-0.3,0.8-0.5,1.6-0.5,2.4
			c0,0.5,0,1-0.1,1.5c-0.1,1.2-0.5,1.6-1.7,1.7c-0.2,0-0.5,0-0.7,0c-1,0-2,0-3,0c-0.8,0-1.6-0.1-2.1-0.8c-0.1-0.2-0.3-0.3-0.4-0.3
			c-0.6-0.2-1.1-0.1-1.5,0.2c-2.3,1.4-4.8,1.7-7.4,1.5c-0.8-0.1-1.6-0.2-2.5-0.3c-3-0.6-5.3-3.7-4.9-6.8c0.2-1.4,0.6-2.7,1.3-4
			c0.8-1.5,2-2.5,3.5-3.2c0.8-0.4,1.6-0.8,2.5-1.1c0.6-0.2,1.2-0.4,1.8-0.5c1.6-0.2,3.3-0.4,4.9-0.8c0.6-0.1,1.1-0.1,1.7-0.2
			c0.9-0.1,1.9-0.2,2.8-0.3c1.1-0.1,1.9-0.7,2.6-1.5c1-1.1,0.9-2.7-0.3-3.7c-0.4-0.3-0.9-0.7-1.4-0.8c-1.5-0.4-3-0.5-4.5,0
			c-1.1,0.4-2,1-2.6,2c-0.7,1.3-1.7,1.8-3.2,1.7c-1-0.1-2,0-3-0.1C516.1,220.1,515.6,220.1,515.2,219.7z M529.1,227
			c-0.5-0.3-0.9-0.2-1.3-0.1c-0.7,0.1-1.4,0.3-2.1,0.4c-0.7,0.1-1.3,0.1-2,0.2c-1,0.1-1.9,0.3-2.8,0.6c-1,0.4-1.9,1-2.6,1.9
			c-0.6,0.7-0.8,1.5-0.7,2.4c0.1,0.7,0.4,1.3,1,1.6c0.7,0.5,1.5,0.8,2.4,0.9c1.4,0.2,4-0.6,5.1-1.6c1.5-1.3,2.3-3.1,3-4.9
			c0.1-0.3,0.1-0.6,0.1-0.9C529.3,227.4,529.2,227.2,529.1,227z"/>
		<path class="xp57" d="M552.9,214.1c0.4-0.1,0.6,0,0.8-0.1c0.3-0.1,0.5-0.2,0.7-0.4c1.1-0.9,2.5-1.4,3.9-1.9
			c0.5-0.2,1.1-0.3,1.7-0.4c1.1-0.1,2.2-0.1,3.3,0c1.9,0.1,3.5,0.9,4.8,2.3c0.4,0.4,0.6,0.9,0.8,1.4c0.4,1.5,0.5,3,0.2,4.5
			c-0.3,1.4-0.7,2.9-1.1,4.3c-0.5,2-1.1,4.1-1.7,6.1c-0.1,0.4-0.2,0.7-0.4,1.1c-0.1,0.3-0.3,0.5-0.3,0.8c-0.3,2-1.3,3.9-1.6,5.9
			c0,0.2-0.1,0.5-0.2,0.7c-0.2,0.5-0.6,0.8-1.1,0.9c-0.3,0.1-0.7,0.1-1,0.1c-1.2,0-2.5,0-3.7,0c-0.2,0-0.3,0-0.5,0
			c-0.9-0.1-1.2-0.6-1.1-1.5c0.1-0.6,0.2-1.1,0.5-1.7c0.4-1.1,0.8-2.2,1-3.3c0.1-0.4,0.1-0.7,0.3-1.1c0.5-1.7,1.1-3.5,1.6-5.2
			c0.1-0.5,0.3-1,0.4-1.4c0.3-1.2,0.6-2.3,0.9-3.5c0.1-0.3,0.2-0.6,0.3-1c0.2-1.4-0.5-2.8-1.9-3.1c-1.7-0.4-3.4-0.4-4.9,0.6
			c-1,0.6-1.9,1.4-2.6,2.3c-0.4,0.4-0.7,0.9-0.9,1.5c-1,2.1-1.8,4.3-2.2,6.6c-0.1,0.4-0.2,0.9-0.3,1.3c-0.8,2.7-1.5,5.3-2.3,8
			c-0.3,1.2-0.8,1.5-2.1,1.6c-1.4,0-2.9,0-4.3,0c-1.1,0-1.5-0.6-1.3-1.6c0.2-1,0.6-1.9,0.9-2.8c0.1-0.3,0.2-0.5,0.3-0.8
			c0.5-2,1.1-4,1.6-6c0.3-1,0.5-1.9,0.8-2.9c0.8-2.9,1.6-5.8,2.5-8.7c0.2-0.6,0.3-1.3,0.4-1.9c0-0.1,0-0.2,0-0.4
			c0.3-1.7,0.9-2.2,2.5-2.3c1.2,0,2.4,0,3.6,0.1c0.9,0,1.2,0.3,1.5,1.2C552.7,213.4,552.8,213.6,552.9,214.1z"/>
		<path class="xp57" d="M293.4,165.3c2.2-0.2,4.3,0.3,6.4,0.9c1.2,0.3,2.1,1.2,2.9,2.1c0.8,0.9,1.3,2,1.5,3.2c0,0.3,0.1,0.6,0.1,0.9
			c0,1-0.5,1.6-1.5,1.6c-1.4,0-2.9,0-4.3,0c-0.7,0-1.2-0.4-1.5-1.1c-0.6-1.8-1.9-2.5-3.7-2.6c-1.2-0.1-2.4,0.2-3.5,0.8
			c-0.3,0.2-0.7,0.5-0.9,0.8c-0.6,0.9-0.6,1.7,0.1,2.5c0.4,0.4,0.9,0.8,1.4,1c0.9,0.3,1.7,0.7,2.6,0.9c1.3,0.4,2.6,0.9,3.9,1.4
			c1.1,0.4,2.2,1,3.1,1.8c1.2,1,2,2.3,2,4c0.1,2.2-0.5,4.3-1.7,6.1c-0.6,1-1.6,1.6-2.6,2.3c-0.3,0.2-0.7,0.4-1.1,0.6
			c-0.9,0.6-1.9,0.9-2.9,1.1c-0.9,0.2-1.9,0.4-2.8,0.5c-2.2,0.3-4.5,0.4-6.6-0.3c-0.8-0.2-1.6-0.4-2.4-0.7c-1.7-0.6-3-1.7-4-3.2
			c-0.8-1.2-0.8-2.6-0.6-4c0.1-0.8,0.6-1.2,1.5-1.2c0.5,0,1.1,0,1.6,0c0.7,0,1.4-0.1,2.1,0c1,0,1.3,0.3,1.7,1.2
			c0.1,0.3,0.2,0.6,0.3,0.8c0.3,0.8,0.9,1.5,1.7,1.9c0.8,0.4,1.6,0.8,2.6,0.9c1.6,0.1,2.9-0.3,4.2-1.2c0.7-0.5,1.1-1.2,1.3-2
			c0.2-0.9-0.2-1.7-0.9-2.3c-0.5-0.4-1.1-0.7-1.8-0.9c-1.1-0.2-2.1-0.6-3.1-1c-1.1-0.5-2.3-0.9-3.5-1.2c-1.8-0.6-2.9-1.8-3.9-3.3
			c-0.6-0.9-0.7-1.9-0.5-3c0.2-1.1,0.5-2.1,0.9-3.1c0.2-0.4,0.4-0.8,0.7-1.1c0.5-0.6,1.1-1.2,1.6-1.7c0.2-0.2,0.4-0.4,0.6-0.5
			c1.2-0.6,2.4-1.3,3.7-1.7C289.8,165.5,291.5,165.1,293.4,165.3z"/>
		<path class="xp57" d="M165.3,153.8c2.3-0.9,6.6,3,8.5,4.1c5,2.8,9.3,6.3,13.5,10.2c1.4,1.3,2.6,2.8,3.7,4.3c0.4,0.5,0.7,0.9,1,1.4
			c1.6,2.5,3.1,5,4.2,7.7c1.6,4.1,2.2,8.6,2.1,13.1c-0.1,3.6-1.3,7.2-2.7,10.4c-1.8,4.1-4.2,7.9-7.1,11.2c-0.8,0.9-1.7,1.8-2.6,2.7
			c-2.3,2.2-4.7,4.3-7.3,6.2c-1.2,0.9-2.5,1.7-3.7,2.4c-1.8,1.1-3.7,2.3-5.5,3.3c-1.3,0.7-2.7,1.3-4,2c-0.7,0.4-1.5,0.7-2.2,1.1
			c-2,1-4.1,1.8-6.2,2.5c-3.8,1.3-7.7,2.6-11.6,3.6c-3.9,1-7.9,1.7-11.9,2.4c-4,0.6-8.1,1.5-12.1,0.9c1.8-0.9,3.8-0.9,5.7-1.5
			c2-0.5,4.6-1.2,6.6-1.5c4.1-0.6,7.1-1.7,11.1-2.6c4.1-0.9,8-2.3,11.9-3.8c3.9-1.4,7.7-3.2,11.3-5.3c3.7-2.1,7.3-4.3,10.6-7
			c2.6-2.1,5.1-4.4,7.3-7c0.6-0.7,1.2-1.4,1.7-2.2c0.8-1.1,1.6-2.2,2.3-3.3c0.5-0.8,1-1.6,1.4-2.4c1.3-2.1,2-4.5,2.7-6.8
			c0.2-0.8,0.5-1.7,0.6-2.5c0.9-5,0.5-10.3-1.1-15.1c-3.1-9.1-9.8-15.7-17.5-21.2c-1.8-1.3-3.7-2.6-5.6-3.9
			C168.9,156.1,167,155.1,165.3,153.8z"/>
		<path class="xp57" d="M321.5,165.3c0.3,0.5,0.7,0.7,1.2,0.7c0.7,0.1,1.3,0.1,2,0.1c0.6,0,1.1,0.1,1.4,0.6c0,0.1,0.1,0.2,0.1,0.3
			c-0.1,1.2-0.6,2.3-1.1,3.4c-0.2,0.5-0.7,0.7-1.2,0.8c-0.4,0-0.7,0-1.1,0c-0.5,0-0.9,0-1.4,0c-0.9,0-1.6,0.4-1.9,1.3
			c-0.3,0.8-0.6,1.5-0.8,2.3c-0.8,3-1.7,6-2.5,9c-0.2,0.8-0.4,1.7-0.4,2.6c0.1,1.1,0.6,1.6,1.6,1.7c0.4,0,0.8,0,1.2,0
			c0.3,0,0.7,0,1,0.1c0.4,0.1,0.7,0.5,0.7,0.9c0,0.2,0,0.4-0.1,0.6c-0.2,0.8-0.4,1.6-0.6,2.4c-0.2,0.9-0.7,1.4-1.6,1.5
			c-0.8,0.1-1.6,0.2-2.5,0.2c-1,0-2.1-0.1-3.1-0.1c-1.4-0.1-2.6-0.5-3.6-1.5c-1.1-1.1-1.6-2.3-1.3-3.8c0.3-1.5,0.6-2.9,1-4.3
			c0.6-2.2,1.3-4.3,1.9-6.4c0.1-0.4,0.2-0.9,0.3-1.3c0.2-0.9,0.4-1.8,0.8-2.6c0.2-0.4,0.3-0.8,0.4-1.3c0.1-0.7-0.4-1.2-1.1-1.2
			c-0.3,0-0.7,0.1-1,0.1c-0.5,0-0.9,0-1.4,0c-0.8-0.1-1.1-0.7-0.9-1.5c0-0.2,0.1-0.3,0.2-0.5c0.2-0.6,0.4-1.2,0.6-1.8
			c0.4-1.1,0.9-1.5,2.1-1.6c0.3,0,0.7,0,1,0c0.3,0,0.7,0,1,0c0.8-0.1,1.3-0.5,1.6-1.2c0.2-0.6,0.3-1.2,0.5-1.8
			c0.2-0.9,0.4-1.8,0.6-2.7c0.2-0.6,0.4-1.2,0.7-1.7c0.3-0.6,0.8-0.9,1.5-0.9c1.5,0,3,0,4.5,0c0.9,0,1.4,0.5,1.3,1.4
			c0,0.4-0.1,0.8-0.3,1.2c-0.4,1.2-0.8,2.4-1.3,3.6C321.4,164.4,321.3,164.8,321.5,165.3z"/>
		<path class="xp57" d="M120.3,148.9c-0.2-0.1-1.3,0.4-1.6,0.4c-0.5,0.1-1.1,0.2-1.6,0.2c-9.6,1.1-19.1,3-28.1,6.6
			c-3.3,1.3-6.7,2.7-9.8,4.5c-1.1,0.7-2.4,1.2-3.6,1.8c-0.2,0.1-0.4,0.1-0.6,0.3c-1.4,1.1-3.1,1.9-4.6,2.9c-1.2,0.9-2.4,1.7-3.6,2.6
			c-0.1,0.1-0.2,0.2-0.3,0.2c-1.9,1.2-3.6,2.7-5.3,4.3c-1.8,1.6-3.6,3.2-5.1,5c-0.6,0.7-1.2,1.4-1.8,2c-1.8,1.8-3.2,3.9-4.5,6
			c-1.4,2.2-2.6,4.5-3.8,6.8c-0.2,0.3-0.3,0.6-0.8,0.7c-0.1-0.1-0.3-0.3-0.4-0.5c-0.1-0.4-0.1-0.7,0-1.1c0.1-0.7,0.2-1.4,0.4-2.1
			c0.5-1.7,1-3.4,1.6-5.1c0.6-1.6,1.4-3,2.1-4.5c0.8-1.5,1.8-2.9,2.8-4.2c0.6-0.9,1.4-1.8,2.1-2.6c0.2-0.3,0.5-0.5,0.7-0.7
			c0.5-0.5,1.1-1,1.6-1.6c1-1.2,2.1-2.2,3.3-3.2c0.9-0.8,1.8-1.5,2.8-2.3c0.7-0.6,1.5-1,2.2-1.6c0.5-0.4,1.1-0.7,1.6-1.1
			c1-0.6,1.9-1.3,2.9-1.9c2-1.1,4.1-2.2,6.2-3.2c1.1-0.6,2.3-1,3.5-1.5c5.7-2.5,11.9-4.2,18.1-5.5c1.9-0.4,3.7-0.7,5.6-1
			c2.4-0.3,4.7-0.9,7.1-1c0.6,0,1.2-0.1,1.9-0.1c1.6-0.1,3.2-0.2,4.8-0.2C117.5,148.3,119,148.3,120.3,148.9z"/>
		<path class="xp57" d="M79,151.1c-1,1.4-3,2.1-4.6,2.7c-2.6,1-5.2,1.8-7.7,3c-5.9,2.7-11.2,6.3-16,10.7c-1.4,1.3-2.8,2.6-4.2,4
			c-0.1,0.1-0.2,0.2-0.3,0.4c-1.6,2.2-3.4,4.2-4.7,6.5c-0.7,1.3-1.5,2.5-2,3.9c0,0.1-0.1,0.2-0.1,0.3c-1.4,2.8-2.1,5.7-2.5,8.8
			c-0.3,2.3-0.2,4.5,0,6.8c0.5,7,4.4,13.4,7.2,19.7c0.5,1.1,1,2.1,1.4,3.2c0.5,1.3-0.6,1.3-1.3,0.7c-2.1-1.6-3.6-3.9-5.1-5.9
			c-1.6-2.2-2.9-4.5-4.1-6.9c-0.5-1-0.8-2.2-1.2-3.3c-1.1-3.2-1.7-6.5-1.6-10c0-5,1.4-10,3.8-14.4c2.4-4.4,5.4-8.4,9.1-11.9
			c3.8-3.6,7.9-6.6,12.4-9.3c1.2-0.8,2.5-1.5,3.8-2.1c3.8-1.9,7.7-4.1,11.7-5.4C74.9,151.7,76.8,150.9,79,151.1z"/>
		<path class="xp57" d="M270.1,166.5c0.4,0.9-0.4,1.7,0.2,2.4c0.4,0.1,0.7-0.1,1-0.3c0.6-0.5,1.2-0.9,1.7-1.4c0.5-0.5,1.2-0.8,1.8-1
			c1.1-0.3,2.2-0.8,3.4-0.9c0.5,0,0.9-0.1,1.4-0.1c1.4,0.1,1.9,0.9,1.4,2.2c-0.1,0.2-0.2,0.5-0.3,0.7c-0.4,0.8-0.6,1.7-0.8,2.6
			c0,0.2-0.1,0.5-0.1,0.7c-0.1,0.5-0.5,0.9-1,1c-0.3,0.1-0.7,0.1-1,0.1c-0.3,0-0.7-0.1-1-0.1c-3-0.2-5.4,0.9-7.3,3.2
			c-1.1,1.4-1.9,2.9-2.4,4.6c-0.5,1.7-1.1,3.5-1.6,5.2c-0.3,1.2-0.6,2.4-0.9,3.6c-0.2,1-0.5,1.9-0.8,2.9c-0.1,0.2-0.1,0.4-0.2,0.6
			c-0.3,0.6-0.8,1-1.5,1c-1.4,0-2.9,0-4.3,0c-0.6,0-1.2-0.2-1.6-0.8c-0.2-0.5,0-0.8,0.1-1.2c0.7-1.9,1.2-3.9,1.7-5.8
			c0.2-1,0.6-1.9,0.9-2.8c0.1-0.4,0.3-0.9,0.4-1.3c0.4-2.3,1.2-4.6,1.8-6.8c0.6-2.2,1.3-4.4,1.9-6.6c0.5-1.7,0.8-2,2.6-2
			c1,0,1.9,0,2.9-0.1C269.1,165.9,269.7,165.9,270.1,166.5z"/>
		<path class="xp57" d="M257.3,166.8c0,0.2,0,0.4,0,0.6c0,0.2-0.1,0.4-0.1,0.6c-0.8,2.6-1.5,5.2-2.3,7.7c-0.1,0.2-0.2,0.5-0.2,0.7
			c-0.4,2.1-1.1,4.1-1.6,6.1c-0.1,0.4-0.2,0.9-0.4,1.3c-0.4,1.1-0.8,2.2-0.9,3.3c-0.1,0.3-0.2,0.6-0.3,1c-0.3,1-0.6,1.9-0.8,2.9
			c-0.1,0.2-0.1,0.4-0.1,0.6c-0.4,1.3-1,1.8-2.3,1.8c-1.4,0-2.7,0-4.1,0c-1,0-1.5-0.6-1.3-1.7c0.2-0.9,0.4-1.7,0.7-2.5
			c0.7-2.3,1.3-4.6,2.1-6.9c1-3.2,1.6-6.5,2.7-9.7c0.5-1.5,1-3.1,1.3-4.7c0.3-1.3,1-1.9,2.4-1.9c1.2,0,2.5-0.1,3.7-0.1
			C256.1,166,256.8,166,257.3,166.8z"/>
		<path class="xp57" d="M260.2,156.4c-0.1,0.3-0.1,0.7-0.2,1c-0.4,0.8-0.5,1.7-0.7,2.5c-0.3,1.7-0.6,2-2.3,2.1
			c-1.4,0.1-2.7,0-4.1-0.1c-1-0.1-1.5-0.6-1.3-1.6c0.3-1.2,0.6-2.3,1.1-3.4c0.3-0.9,1-1.2,2-1.2c1.4,0,2.7,0,4.1,0
			C259.4,155.6,259.4,155.7,260.2,156.4z"/>
	</g>
</g>
</svg>
