<?xml version="1.0" encoding="utf-8"?>

<svg version="1.1" xmlns="http://www.w3.org/2000/svg" xmlns:xlink="http://www.w3.org/1999/xlink" x="0px" y="0px"
	 viewBox="0 0 634.3 392" style="enable-background:new 0 0 634.3 392;" xml:space="preserve">
<style type="text/css">
	.xp34{fill:#FFFFFF;}
	.xp35{fill:#E4002B;}
</style>

<g id="Layer_2">
	<g>
		<path class="xp34" d="M375.8,161.8c-11.5,0-21,22.4-21,49.8c0,27.1,9.5,49.5,21,49.5c8.8,0,16.6-13.6,19.3-32.5l-11.5-1.7
			c-1.4,12.2-4.4,20.3-7.8,20.3c-4.4,0-8.1-12.9-8.8-30.2h29.1c0.3-2,0.3-3.4,0.3-5.4C396.5,184.1,387.3,161.8,375.8,161.8z
			 M367.5,204c1-16.6,4.4-28.5,8.8-28.5c4.1,0,7.8,11.9,8.5,28.5H367.5z"/>
		<path class="xp34" d="M331.5,161.8c-11.5,0-21,22.4-21,49.8c0,27.1,9.5,49.5,21,49.5c8.8,0,16.6-13.6,19.3-32.5l-11.5-1.7
			c-1.4,12.2-4.4,20.3-7.8,20.3c-4.4,0-8.1-12.9-8.8-30.2h29.4v-5.4C352.1,184.1,343,161.8,331.5,161.8z M323.1,204
			c0.7-16.6,4.1-28.5,8.5-28.5c4.1,0,7.8,11.9,8.5,28.5H323.1z"/>
		<path class="xp34" d="M284.1,180.4c0-3,2.2-5.4,5-5.4c0,0,0.1,0,0.1,0c2.6,0,4.8,2.4,4.8,5.4V259h13v-79c0-10.2-7.8-18.4-17.6-18.4
			c-2,0-3.7,0.3-5.4,1V31h-12v228h12V180.4z"/>
		<path class="xp34" d="M419.2,162.1c-2,0-3.4,0.3-5.1,1V162h-12v97h12v-79c0-2.7,2.3-5.1,4.8-5.1c2.9,0,5.2,2.4,5.2,5.1v79h13v-78.9
			c0-2.4,1.8-4.5,4.2-5c3-0.6,5.8,2,5.8,5.1V259h13v-79.1c0-9.7-7.7-17.7-17.4-17.8c-4.8,0-8.6,1.3-11.7,4.4
			C428,163.5,423.9,162.1,419.2,162.1z"/>
		<path class="xp34" d="M267.6,154.2c0-34.1-26.7-61.9-60.1-64.2h-12.3v204h12v-75.2c3.4-0.3,6.4-0.7,9.8-1.4l74.3,87.6h16.5l-78-92
			C252.4,202.9,267.6,180.3,267.6,154.2z M208.1,206V103c26.7,2,47.7,24.1,47.7,51.2C255.9,181.6,234.9,203.7,208.1,206z"/>
		<path class="xp35" d="M255.9,154.2c0-27.1-21-49.1-47.7-51.2v103C234.9,203.7,255.9,181.6,255.9,154.2z"/>
		<path class="xp35" d="M331.6,175.5c-4.4,0-7.8,11.9-8.5,28.5h16.9C339.4,187.4,335.7,175.5,331.6,175.5z"/>
		<path class="xp35" d="M317.1,20c-97.1,0-176,78.6-176,175.8c0,97.2,78.9,176.2,176,176.2c97.1,0,176-78.9,176-176.2
			C493.1,98.6,414.3,20,317.1,20z M272.1,31h12v131.6c1.7-0.7,3.4-1,5.4-1c9.8,0,17.6,8.2,17.6,18.4v79h-13v-78.6
			c0-3-2.3-5.4-4.8-5.4c0,0-0.1,0-0.1,0c-2.8,0-5.1,2.5-5,5.4V259h-12V31z M292,305l-74.5-87.4c-3.4,0.7-10.4,1.4-10.4,1.4V294h-12
			V90h13c33.5,2.2,60.2,30,60.2,64.2c0,26.1-15.2,48.8-37.9,59l78.2,91.8H292z M352.1,217h-29.4c0.7,17.3,4.4,30.2,8.8,30.2
			c3.4,0,6.4-8.1,7.8-20.3l11.5,1.7c-2.7,19-10.5,32.5-19.3,32.5c-11.5,0-21-22.4-21-49.5c0-27.4,9.5-49.8,21-49.8
			c11.5,0,20.6,22.4,20.6,49.8V217z M396.1,217H367c0.7,17.3,4.4,30.2,8.8,30.2c3.4,0,6.4-8.1,7.8-20.3l11.5,1.7
			c-2.7,19-10.5,32.5-19.3,32.5c-11.5,0-21-22.4-21-49.5c0-27.4,9.5-49.8,21-49.8c11.5,0,20.6,22.4,20.6,49.8
			C396.5,213.6,396.5,215,396.1,217z M460.1,179.7V259h-13v-78.9c0-3.1-2.7-5.6-5.8-5.1c-2.4,0.5-4.2,2.6-4.2,5V259h-13v-79
			c0-2.7-2.3-5.1-5.2-5.1c-2.6,0-4.8,2.4-4.8,5.1v79h-12v-97h12v1c1.7-0.7,3-1,5.1-1c4.7,0,8.8,1.4,11.8,4.4
			c3.1-3.1,6.9-4.5,11.7-4.4C452.4,162,460.1,170.1,460.1,179.7z"/>
		<path class="xp35" d="M376.3,175.5c-4.4,0-7.8,11.9-8.8,28.5h17.3C384.1,187.4,380.4,175.5,376.3,175.5z"/>
	</g>
</g>
</svg>
