<?xml version="1.0" encoding="utf-8"?>

<svg version="1.1" xmlns="http://www.w3.org/2000/svg" xmlns:xlink="http://www.w3.org/1999/xlink" x="0px" y="0px"
	 viewBox="0 0 634.3 392" style="enable-background:new 0 0 634.3 392;" xml:space="preserve">
<style type="text/css">
	.xp36{fill:#878A8B;}
	.xp37{fill:#A2001D;}
</style>

<g id="Layer_2">
	<g>
		<g>
			<path class="xp36" d="M178.1,206c0.1,6.8,4.1,9.3,10.5,9.3c5.5,0,12.1-1.6,12.1-8.3c0-4.7-3.9-6.6-7.8-7.4
				c-7.9-1.7-21.1-3.5-21.1-14.3c0-10.4,9.5-14.3,18.5-14.3c8.2,0,16.2,3.7,16.2,13h-7c-0.3-5.4-4.8-7.2-9.6-7.2
				c-4.7,0-11.2,1.7-11.2,7.4c0,5.4,3.9,5.8,8,7.1c8.8,2.9,20.9,2.9,20.9,15c0,10.9-9.8,14.7-19.5,14.7c-10,0-17.3-4.2-17.1-15
				L178.1,206L178.1,206z M231.1,198c-0.3-4-2.2-6.8-6.5-6.8c-5.8,0-8,5-8,12.5c0,7.5,2.2,12.5,8,12.5c4,0,6.4-2.6,6.8-7.1h6
				c-0.5,7.1-5.8,11.5-12.8,11.5c-10.2,0-14.2-7.2-14.2-16.6c0-9.3,4.7-17.1,14.7-17.1c6.7,0,11.8,4.2,12.1,11.1L231.1,198
				L231.1,198z M241.1,219v-47h6v19h0.1c2.3-3.6,5.9-5.3,10.6-5.3c8.6,0,11.2,5.6,11.2,11.4V219h-6v-19.4c0-5.8-1.5-9.5-7.4-9.6
				c-2.5-0.1-6.4,1.8-7.5,4.6c-1.5,3.4-1.1,5.8-1.1,7.6l0.2,16.9L241.1,219L241.1,219z M295.5,200c0.1-5.5-2.4-9.7-8.4-9.7
				c-5.2,0-8.2,4.4-8.2,9.7H295.5z M279.1,205c-0.4,5.7,1.9,11.6,8.2,11.6c4.8,0,7.2-1.9,7.9-6.6h6.5c-1,7.4-6.7,11.1-14.5,11.1
				c-10.5,0-14.6-7.4-14.6-17c0-9.5,4.8-17.5,15.1-17.5c9.7,0.2,14.4,6.4,14.4,15.4v3L279.1,205L279.1,205z M312.1,219h-6v-33h6v7
				h0.1c0.9-4.4,5.1-6.7,9.7-6.7c0.8,0,1.5,0.1,2.2,0.1v5.8c-0.9-0.3-1.8-0.3-2.7-0.3c-7.9,0.3-9.3,4.4-9.3,11.2V219z M327.1,172h7
				v7h-7V172z M327.1,186h6v33h-6V186z M344.1,191h0.1c2.1-4.1,6.5-5.8,9.7-5.8c2.2,0,12.2,0.6,12.2,11.1V219h-6v-20.5
				c0.5-5.4-1.8-8.4-7-8.4c0,0-3.4-0.2-6,2.4c-0.9,0.9-2.6,2.4-3,8.8V220h-6v-34h6L344.1,191z M385.5,214.1c6.7,0,9.2-5.8,9.2-12.1
				s-2.5-12.1-9.2-12.1c-7.3,0-9.2,6.9-9.2,12.1C376.3,207.1,378.3,214.1,385.5,214.1z M395,186h6.5c-0.2,2-0.4,4-0.4,6v23.8
				c0,9-6.9,16.5-15.9,17.2c-8.5,0.6-14.7-2.3-14.8-11h6.8c0.3,4.6,3.4,6.4,8,6.4c9.2,0,9.2-7.7,9.4-15.4h0c-2,4-6.8,5.6-10.9,5.6
				c-10.1,0-14.2-7.1-14.2-16.5c0-9.6,5.4-17.1,15.4-17.1c3.2,0,6.8,1.3,8.9,4.4c0.1,0.1,1,2.1,1,1.6L395,186z M405.1,195h17v4h-17
				V195z M442.1,193c0.8,0,8.3,0.4,8.3-7.5c0-7.9-7.5-7.5-8.3-7.5h-10v15L442.1,193L442.1,193z M425.1,172h16.1
				c8.6-0.4,16.1,2.8,16.1,13c0,9.7-7.9,12.8-16.5,13h-8.7v21h-7L425.1,172z M460.1,172h6v47h-6V172z M486.6,215.2
				c7.4,0,9.8-5.9,9.8-12.9c0-7-2.4-12.9-9.8-12.9c-7.4,0-9.8,5.9-9.8,12.9C476.8,209.3,479.2,215.2,486.6,215.2z M503,202.3
				c0,10.2-5.6,17.4-16.3,17.4c-10.8,0-16.4-7.2-16.4-17.4c0-10.2,5.6-17.4,16.4-17.4C497.4,184.9,503,192.1,503,202.3L503,202.3z
				 M528.1,186h6v33h-6v-5H528c-2.5,4.1-6.6,5.8-11.2,5.8c-6.8,0-10.7-5.2-10.7-11.8v-22h6v19.4c0,5.7,1.3,9.9,7.3,9.9
				c2.6,0,6.1-1.3,7.4-4.7c1.2-3.1,1.3-6.9,1.3-7.7L528.1,186z M552.8,213.7c6.7,0,9.2-5.8,9.2-12.1c0-6.3-2.5-12.1-9.2-12.1
				c-7.3,0-9.2,6.9-9.2,12.1S545.5,213.7,552.8,213.7L552.8,213.7z M562.3,186h6.2c-0.2,1.9-0.4,3.8-0.4,5.7v22.6
				c0,9.2-7.1,17.1-16.3,17.6c-8.2,0.5-14.3-2.5-14.4-11h6.8c0.3,4.6,3.4,6.3,8,6.3c9.2,0,9.2-7.6,9.4-15.3h0.2
				c-1.9,3.8-6.6,5.4-10.5,5.4c-9.8,0-13.6-6.9-13.6-15.9c0-9.2,5.2-16.5,14.8-16.5c3.1,0,6.6,1.3,8.5,4.2c0.1,0.1,1,2,1,1.5
				L562.3,186z M573.1,219v-47h6v19h0.1c2.4-3.6,5.9-5.3,10.6-5.3c8.6,0,11.2,5.6,11.2,11.4V219h-6v-19.4c0-5.8-1.5-9.5-7.4-9.6
				c-2.5-0.1-6.3,1.8-7.5,4.6c-1.5,3.4-1.1,5.8-1.1,7.6V219L573.1,219L573.1,219z"/>
			<g>
				<path class="xp37" d="M32.2,196.2c-0.1-13.3,10.6-24.1,23.9-24.2h21.6l-9.1,15H56.6c-11.8,0-12.9,18-0.2,18
					c4.9,0,6.3-2.2,9.6-7.4c1.6-2.6,19.1-31.2,21.4-34.8c1.3-2.1,5.4-10.1,13.2-13.6c7.4-3.3,13.2-3,16.8-2.3
					c10.7,2.3,15.8,9.1,15.8,9.1l-9,14.6c-1.9-8.1-8.9-9.3-11.6-9.3c-7.4,0-9.4,4.3-11.7,7.8c-0.5,0.7-17.9,29.7-19,31.6
					C77.8,207.5,71.3,220,56,220C44.5,220,32.2,210.4,32.2,196.2L32.2,196.2z"/>
				<path class="xp37" d="M115.7,172.2c-8,0-15.5,4.1-19.8,10.9c-3.3,5.3-37.7,61.9-37.7,61.9h17.4l31.9-52.4c1.3-2.2,3-5.1,7.8-5.1
					c5,0,9.1,3.1,9.1,8.5c0,4.6-3,9-9.1,9h-11.7l-8.5,14h20.4c11.8,0,23.6-8.3,23.7-22.5C139.3,178,124.8,172.2,115.7,172.2z"/>
			</g>
		</g>
	</g>
</g>
</svg>
