<?xml version="1.0" encoding="utf-8"?>

<svg version="1.1" xmlns="http://www.w3.org/2000/svg" xmlns:xlink="http://www.w3.org/1999/xlink" x="0px" y="0px"
	 viewBox="0 0 634.3 392" style="enable-background:new 0 0 634.3 392;" xml:space="preserve">
<style type="text/css">
	.xp38{fill-rule:evenodd;clip-rule:evenodd;fill:#255398;}
	.xp39{fill-rule:evenodd;clip-rule:evenodd;fill:#C6B67F;}
	.xp40{fill:none;stroke:#C6B67F;stroke-width:2.1653;stroke-miterlimit:33.89;}
</style>

<g id="Layer_2">
	<g>
		<path class="xp38" d="M76.4,137.3v24.3h-2c-0.7-4.8-1.8-8.5-3.3-11.1c-1.7-2.8-4.1-5.1-7-6.7c-2.8-1.5-6.1-2.4-9.2-2.4
			c-3.7,0-6.6,1.1-9,3.3c-2.4,2.2-3.5,4.8-3.5,7.6c0,2.2,0.7,4.1,2.2,5.9c2.2,2.6,7.2,6.1,15.3,10.2c6.6,3.7,11.2,6.3,13.6,8.3
			c2.3,1.8,4.2,4.1,5.5,6.7c1.3,2.4,2,5.2,2,8c0,5.2-2,9.8-6.1,13.7c-4.2,3.9-9.6,5.9-16,5.9c-2,0-4-0.2-5.9-0.7
			c-1.1,0-3.3-0.7-6.6-1.7c-3.5-1.1-5.5-1.7-6.6-1.7c-0.9,0-1.5,0.2-2,0.9c-0.4,0.4-0.9,1.5-1.1,3.3h-2v-24.1h2
			c0.9,5,2.2,8.7,3.7,11.3c1.7,2.6,4,4.7,6.8,6.1c3.2,1.7,6.8,2.6,10.5,2.6c4.2,0,7.7-1.1,10.3-3.5c2.4-2.2,3.7-5,3.7-8
			c0-1.7-0.4-3.5-1.5-5.2c-0.9-1.7-2.4-3.5-4.4-5c-1.3-1.1-5-3.3-11.2-6.5c-5.9-3.5-10.3-6.1-12.9-8c-2.4-2.2-4.4-4.3-5.7-6.7
			s-2-5-2-8c0-5,2-9.3,5.9-13c3.7-3.7,8.8-5.4,14.7-5.4c3.7,0,7.9,0.9,12,2.8c2,0.9,3.3,1.3,4.2,1.3s1.5-0.4,2.2-0.9
			c0.4-0.4,0.9-1.7,1.3-3.3L76.4,137.3L76.4,137.3z M109.3,142.9v27.8h15.5c3.9,0,6.6-0.6,8.1-1.7c1.7-1.7,2.6-4.6,2.8-8.4h2V185h-2
			c-0.4-3.5-0.9-5.6-1.3-6.7c-0.7-1.2-1.8-2.2-3.1-2.8c-1.5-0.7-3.7-1.1-6.6-1.1h-15.5v23.2c0,3.3,0.2,5,0.4,5.6
			c0.2,0.7,0.7,1.3,1.3,1.7c0.9,0.4,2.2,0.4,4.2,0.4H127c3.9,0,7-0.2,8.8-0.7c1.8-0.7,3.5-1.7,5.3-3.3c2-2.2,4.2-5.4,6.6-9.7h1.9
			l-6.1,17.6H89.1v-1.9h2.6c1.5,0,3.1-0.4,4.6-1.1c1.1-0.7,2-1.5,2.2-2.6c0.4-1.1,0.7-3.3,0.7-6.7v-45.7c0-4.6-0.4-7.2-1.3-8.3
			c-1.3-1.5-3.3-2.2-6.1-2.2h-2.6v-1.9h54.7l0.9,15.5h-2.1c-0.9-3.7-1.5-6.1-2.4-7.6c-1-1.4-2.4-2.5-4-3.1c-1.5-0.7-4-0.9-7.5-0.9
			H109.3L109.3,142.9z M200.9,185.9h-27.6l-4.8,11c-1.1,2.6-1.8,4.8-1.8,6.1c0,1.1,0.7,2,1.5,2.8c1.1,0.9,3.3,1.3,6.8,1.5v1.9H153
			v-2c3.1-0.4,4.8-1.1,5.7-2c1.8-1.7,3.7-5,5.9-10.2l25-57.8h1.8l24.5,58.5c2,4.8,3.7,7.8,5.3,9.4c1.8,1.3,3.9,2.2,6.8,2.2v2h-28
			v-1.9c2.9,0,4.8-0.4,5.7-1.3c1.1-0.9,1.5-1.7,1.5-2.8c0-1.5-0.7-4.1-2-7.4L200.9,185.9L200.9,185.9z M199.4,182l-11.9-28.4
			L175.2,182H199.4z M431.6,185.9h-27.3l-4.8,11c-1.1,2.6-1.7,4.8-1.7,6.1c0,1.1,0.4,2,1.5,2.8c1.1,0.9,3.3,1.3,6.6,1.5v1.9h-22.1
			v-2c2.8-0.4,4.8-1.1,5.7-2c1.8-1.7,3.7-5,5.9-10.2l24.8-57.8h2l24.5,58.5c2,4.8,3.7,7.8,5.3,9.4c1.8,1.3,3.9,2.2,6.8,2.2v2h-28
			v-1.9c2.8,0,4.6-0.4,5.7-1.3c0.9-0.9,1.5-1.7,1.5-2.8c0-1.5-0.7-4.1-2.2-7.4L431.6,185.9L431.6,185.9z M430.2,182l-12.1-28.4
			L405.9,182H430.2z M531,209.3h-18.9l-24-32.9H481v20.5c0,4.4,0.4,7.2,1.3,8.3c1.3,1.5,3.3,2.2,6,2.2h2.8v1.9h-30.3v-1.9h2.6
			c3.1,0,5-0.9,6.4-2.8c0.9-1.1,1.1-3.7,1.1-7.6v-45.5c0-4.6-0.4-7.2-1.3-8.3c-1.5-1.5-3.5-2.4-6.1-2.4h-2.6v-1.9h25.7
			c7.5,0,13.2,0.7,16.7,1.7c3.5,1.1,6.6,3,9,6.1c2.6,2.8,3.7,6.3,3.7,10.4c0,4.3-1.3,8-4.2,11.3c-2.9,3-7.2,5.4-13.2,6.7l14.5,20
			c3.5,4.8,6.4,7.8,8.8,9.3c2.4,1.5,5.5,2.4,9.2,2.8L531,209.3L531,209.3L531,209.3z M481,173.2h2.9c6.8,0,11.9-1.5,15.1-4.3
			c3.5-2.8,5.3-6.5,5.3-11.1c0-4.3-1.5-8-4.2-10.6c-2.9-2.8-6.4-4.1-11-4.1c-2,0-4.8,0.2-8.1,0.9L481,173.2L481,173.2L481,173.2z"/>
		<path class="xp38" d="M531,209.3v-2.1h2.6c2.9,0,5.1-0.9,6.4-2.8c0.7-1.1,1.1-3.7,1.1-7.6v-45.4c0-4.6-0.4-7.2-1.5-8.2
			c-1.3-1.5-3.3-2.4-5.9-2.4H531v-1.9h28.7c10.5,0,18.4,1.3,23.9,3.7c5.7,2.4,10.1,6.3,13.4,11.9c3.3,5.4,5,11.9,5,19.3
			c0,9.8-3.1,17.8-9,24.5c-6.6,7.2-16.9,10.9-30.5,10.9L531,209.3L531,209.3L531,209.3z M551.2,204.3c4.4,0.9,7.9,1.3,11,1.3
			c8.1,0,14.7-2.8,20.2-8.3c5.3-5.6,7.9-13.5,7.9-23c0-9.8-2.6-17.4-7.9-23c-5.5-5.6-12.3-8.3-20.6-8.3c-3.1,0-6.6,0.4-10.5,1.3
			V204.3z M64.7,226.2l0.9,13h-0.9c-1.1-3.9-2.8-6.7-5-8.4c-2.2-1.7-4.6-2.6-7.6-2.6c-2.6,0-4.8,0.6-7,1.9c-2,1.3-3.7,3.5-4.8,6.3
			c-1.1,2.8-1.7,6.3-1.7,10.4c0,3.5,0.7,6.5,1.7,8.9c1.1,2.6,2.6,4.5,4.8,5.8c2.4,1.3,4.8,2.2,7.6,2.2c2.6,0,4.8-0.6,6.5-1.7
			c2-1.1,4.1-3,6.3-6.3l0.9,0.6c-2,3.2-4.1,5.8-6.8,7.3c-2.4,1.5-5.5,2.4-9,2.4c-6.3,0-11.4-2.4-14.8-6.9c-2.4-3.7-3.7-7.6-3.7-12.3
			c0-3.9,0.9-7.3,2.4-10.6c1.7-3,4.2-5.6,7.2-7.3c2.8-1.7,6.1-2.6,9.8-2.6c2.6,0,5.5,0.6,8.1,1.9c0.9,0.4,1.3,0.6,1.7,0.6
			s0.9,0,1.3-0.4s0.9-1.3,1.1-2.2L64.7,226.2L64.7,226.2L64.7,226.2z M105.5,226.2c4.8,0,9.2,2,12.9,5.6c3.5,3.7,5.5,8.5,5.5,14.1
			c0,5.9-2,10.6-5.7,14.3c-3.5,3.9-8.1,5.9-13.2,5.9c-5.5,0-9.9-2-13.4-5.6c-3.7-3.7-5.5-8.5-5.5-14.6c0-6.1,2.2-10.9,6.4-14.8
			C96,227.9,100.4,226.2,105.5,226.2L105.5,226.2z M104.8,228.4c-3.3,0-6.1,1.1-8.1,3.7c-2.6,3.3-3.9,7.8-3.9,13.9
			c0,6.3,1.3,11.1,3.9,14.3c2.2,2.6,4.8,3.9,8.1,3.9c3.7,0,6.6-1.5,9-4.3c2.4-2.6,3.5-7.2,3.5-13.2c0-6.5-1.3-11.3-3.9-14.5
			C111.4,229.4,108.5,228.4,104.8,228.4z M181,265.3h-10.3l-13-17.8h-4v11c0,2.4,0.2,3.9,0.7,4.3c0.9,0.9,2,1.3,3.3,1.3h1.5v1.2
			h-16.2v-1.2h1.5c1.5,0,2.6-0.4,3.2-1.5c0.4-0.7,0.6-2,0.6-4.1v-24.8c0-2.4-0.2-3.9-0.6-4.4c-0.9-0.9-2-1.3-3.2-1.3h-1.5v-0.9h14
			c3.9,0,7,0.4,9,0.9c1.9,0.6,3.5,1.7,4.8,3.3c1.3,1.7,2,3.5,2,5.6c0,2.4-0.7,4.6-2.2,6.3c-1.5,1.5-3.9,2.8-7.2,3.5l8.1,11.1
			c1.7,2.4,3.3,4.1,4.6,5c1.3,0.9,2.8,1.3,5,1.5L181,265.3L181,265.3L181,265.3z M153.7,245.6h1.5c3.7,0,6.4-0.9,8.3-2.4
			c1.8-1.5,2.6-3.7,2.6-6.1c0-2.4-0.7-4.3-2.2-5.9c-1.5-1.5-3.5-2.2-5.9-2.2c-1.1,0-2.6,0.2-4.4,0.4V245.6L153.7,245.6z
			 M208.2,247.5v11c0,2.4,0.2,3.9,0.7,4.3c0.7,0.9,1.8,1.3,3.3,1.3h1.4v1.2h-16.4v-1.2h1.3c1.7,0,2.8-0.4,3.5-1.5
			c0.4-0.7,0.6-2,0.6-4.1v-24.8c0-2.4-0.2-3.9-0.9-4.4c-0.6-0.9-1.7-1.3-3.2-1.3h-1.3v-0.9h14.1c3.5,0,6.2,0.4,8.2,1.1
			c2,0.6,3.8,1.9,5.1,3.5c1.3,1.7,2,3.7,2,6.1c0,3-1.1,5.6-3.1,7.6c-2.2,1.9-5.1,2.8-8.8,2.8c-0.9,0-2,0-3.1-0.2
			C210.4,247.9,209.3,247.7,208.2,247.5L208.2,247.5z M208.2,245.7c0.9,0.2,1.8,0.4,2.6,0.4c0.7,0.2,1.3,0.2,2,0.2
			c2,0,3.5-0.9,5-2.4c1.3-1.5,2.2-3.5,2.2-5.9c0-1.5-0.4-3-1.1-4.6c-0.7-1.3-1.5-2.4-2.9-3c-1.3-0.9-2.6-1.1-4.2-1.1
			c-1.1,0-2.4,0-3.7,0.4L208.2,245.7L208.2,245.7z M265.4,226.2c4.8,0,9.2,2,12.9,5.6c3.5,3.7,5.5,8.5,5.5,14.1
			c0,5.9-2,10.6-5.5,14.3c-3.7,3.9-8.3,5.9-13.4,5.9c-5.3,0-9.9-2-13.4-5.6c-3.5-3.7-5.5-8.5-5.5-14.6c0-6.1,2.2-10.9,6.4-14.8
			C256,227.9,260.4,226.2,265.4,226.2L265.4,226.2z M264.8,228.4c-3.3,0-6.1,1.1-8.1,3.7c-2.6,3.3-3.9,7.8-3.9,13.9
			c0,6.3,1.3,11.1,3.9,14.3c2.2,2.6,4.8,3.9,8.1,3.9c3.7,0,6.6-1.5,9-4.3c2.4-2.6,3.5-7.2,3.5-13.2c0-6.5-1.3-11.3-3.9-14.5
			C271.3,229.4,268.5,228.4,264.8,228.4L264.8,228.4z M341,265.3h-10.4l-13-17.8h-3.9v11c0,2.4,0.2,3.9,0.9,4.3
			c0.7,0.9,1.7,1.3,3.1,1.3h1.5v1.2h-16.4v-1.2h1.5c1.5,0,2.6-0.4,3.5-1.5c0.2-0.7,0.4-2,0.4-4.1v-24.8c0-2.4-0.2-3.9-0.6-4.4
			c-0.9-0.9-2-1.3-3.2-1.3h-1.5v-0.9h14.1c4,0,7,0.4,9,0.9c1.9,0.6,3.6,1.7,4.8,3.3c1.3,1.7,2.2,3.5,2.2,5.6c0,2.4-0.9,4.6-2.4,6.3
			c-1.5,1.5-4,2.8-7.3,3.5l8.1,11.1c1.8,2.4,3.3,4.1,4.6,5c1.3,0.9,3.1,1.3,5.1,1.5V265.3z M313.7,245.6h1.5c3.7,0,6.4-0.9,8.3-2.4
			c1.8-1.5,2.8-3.7,2.9-6.1c0-2.4-0.9-4.3-2.4-5.9c-1.5-1.5-3.5-2.2-5.9-2.2c-1.1,0-2.6,0.2-4.4,0.4V245.6L313.7,245.6z
			 M382.7,252.6h-14.9l-2.6,6c-0.7,1.5-1.1,2.6-1.1,3.2s0.4,1.1,0.9,1.5c0.7,0.4,1.7,0.6,3.7,0.9v1.1h-12v-1.1
			c1.5-0.2,2.6-0.7,3.1-1.1c0.9-0.9,2-2.8,3.1-5.4l13.6-31.5h0.9l13.4,31.7c1.1,2.6,2.2,4.3,3.1,5c0.9,0.9,2,1.3,3.5,1.3v1.1h-15
			v-1.1c1.5,0,2.6-0.2,3.1-0.6c0.7-0.4,0.9-1.1,0.9-1.7c0-0.6-0.4-1.9-1.1-3.9L382.7,252.6L382.7,252.6z M381.9,250.2l-6.6-15.4
			l-6.6,15.4H381.9L381.9,250.2z M447.1,227.1l0.4,8.8h-0.9c-0.2-1.5-0.4-2.6-0.9-3.2c-0.7-1.1-1.3-1.9-2.4-2.4
			c-0.9-0.6-2.2-0.9-3.7-0.9h-5.5v28.7c0,2.5,0.2,4.2,0.9,4.8c0.6,0.7,1.7,1.2,3.2,1.2h1.3v1.2h-16.2v-1.2h1.3
			c1.5,0,2.8-0.5,3.5-1.6c0.4-0.5,0.4-2.1,0.6-4.4v-28.7H424c-1.3,0-2.5,0.1-3.7,0.4c-0.9,0.5-1.8,1.1-2.4,1.9
			c-0.9,1.1-1.1,2.4-1.3,4.1h-0.9l0.4-8.8H447.1L447.1,227.1z M482.9,264.1v1.2h-16.4v-1.2h1.3c1.5,0,2.6-0.4,3.5-1.3
			c0.4-0.6,0.7-2.2,0.7-4.3v-24.6c0-1.9-0.2-3.2-0.4-3.7c-0.2-0.6-0.7-0.9-1.1-1.3c-0.8-0.4-1.7-0.6-2.6-0.6h-1.3v-1.2h16.4l0,0.9
			h-1.5c-1.5,0-2.6,0.4-3.3,1.3c-0.4,0.7-0.9,2.2-0.9,4.4v24.8c0,2,0.2,3.3,0.4,3.7c0.2,0.7,0.7,0.9,1.3,1.3
			c0.6,0.4,1.5,0.7,2.4,0.7H482.9z M521.1,226.2c5,0,9.4,2,12.9,5.6c3.7,3.7,5.5,8.5,5.5,14.1c0,5.9-1.8,10.6-5.5,14.3
			c-3.7,3.9-8.1,5.9-13.4,5.9s-9.7-2-13.2-5.6c-3.7-3.7-5.5-8.5-5.5-14.6c0-6.1,2.2-10.9,6.1-14.8
			C511.8,227.9,516.2,226.2,521.1,226.2L521.1,226.2z M520.6,228.4c-3.5,0-6.1,1.1-8.3,3.7c-2.4,3.3-3.7,7.8-3.7,13.9
			c0,6.3,1.3,11.1,4,14.3c2,2.6,4.8,3.9,8.1,3.9c3.7,0,6.6-1.5,9-4.3c2.2-2.6,3.5-7.2,3.5-13.2c0-6.5-1.3-11.3-4-14.5
			C527.2,229.4,524.4,228.4,520.6,228.4L520.6,228.4z M556.9,227.1h10.3l23.6,28.6v-21.9c-0.1-2.4-0.3-3.9-0.7-4.6
			c-0.9-0.7-2.1-1.1-3.3-1h-1.4v-1.2h13.2v1.2h-1.3c-1.5,0-2.8,0.5-3.4,1.6c-0.2,0.5-0.4,2.1-0.4,4.4V266h-1.1L567,235.1v23.4
			c0,2.4,0.2,3.9,0.6,4.6c0.7,0.7,3.3,1,3.3,1h1.3v1.2H559v-1.2h1.4c1.5,0,2.7-0.4,3.3-1.5c0.4-0.4,0.7-1.9,0.7-4.1v-26.4
			c-0.8-0.9-1.6-1.8-2.4-2.6c-0.7-0.2-1.5-0.6-2.6-1.1c-0.4-0.2-1.3-0.2-2.4-0.2L556.9,227.1L556.9,227.1z"/>
		<path class="xp39" d="M326.4,150c0,0-3.5-4.1-4.2-0.7c-0.9,3.5-0.4,5,2.6,3.7C328,151.9,326.4,150,326.4,150L326.4,150z
			 M322.7,132.2c0,0-6.6,6.1-1.3,8.5c5.5,2.2,4.2-2.4,4.2-2.4s2.9-4.1,7-0.7c4.4,3.5,3.3-2.4,5.3,5.2c0.9-4.8,5.3,4.6,1.5,3.9
			c-3.7-0.9-5.3,3-5.3,3l-3.1,4.6c0,0-2.4,9.1-4.6,6.1c-2.2-3-5.3-1.5-5.3-1.5s-5,0.2-2.9,4.8c2.4,4.6,3.1,1.5,7.2,3.5
			c3.5,1.5-1.3,2.2,2.4,3c3.7,0.7,7.7-3.9,9.2-0.9c1.5,3,8.3,5.4,8.3,5.4l6.1,3l-0.9,4.6c0,0-5.7,6.1-6.8,9.1
			c-2.6,6.3-10.5,1.3-7.7,3.7c4.6,3.9-3.1,6.1-3.1,6.1s0.9,3,2.6,3.9c0.9,1.7,0.7,5.6,2,6.7c-3.1,0.9-5.7-1.1-5.7-1.1
			s-0.4-11.7,0.4-14.1c2.2-4.1,0-6.1,0-6.1s4.4-6.3,0.7-6.7c-5.7-0.9-4.2-4.6-4.2-4.6s1.1-7.6-2-9.1c-2.9-1.5-4.4-0.9-4.4-0.9
			s-5.5,1.5-6.1-2.2c-0.9-3.7-0.9,0.7-3.9-2.4c0,0-3.7-0.7-5.9-5.9c0,3-0.9-3.5-3.1-2.4c-2.4,1.1-3.1,2-3.1,2l3.3-8.5l5-7.8l8.1-7.6
			L322.7,132.2L322.7,132.2z M337.4,127c0,0,4.2,1.1,4.2,3c0,2,1.5,5.2,1.5,5.2s4,2.4,3.5,0c-0.4-2.2-2.2-4.8,0-5.2
			c2.2-0.4,6.8-2,6.8-2l-7.9-1.5L337.4,127L337.4,127z M365.3,133c0,0,2.6,2.2,0.4,3.7c-2.2,1.5-5.3,2.6-3.7,3.5
			c1.5,0.7,7.9,1.5,5.3,3.7c-2.6,2.4-2.6,4.6-2.6,4.6s-5,0.9-1.5,2.8c3.3,1.7,4.6,1.1,2.2,3.3c-2.2,2.4-5.7,3.9-5.7,6.1
			c0,2.4,0.9,5.6,2,8c1.1,2.2,4.2,2,6.1,2c1.8,0,5.3-2.4,6.4,0.7c1.1,3,1.1,2.4,2,5.6c0.7,3.5,0,5.9,2,6.9c1.7,1.1,1.1,3.7,1.1,3.7
			s-1.1,7.6-2.4,9.1c-1.1,1.5,6.1-8.7,6.1-8.7l3.5-14.8l-1.5-17.8l-5-8.5c0,0,2.4,3.5-0.4,5.4c-2.6,2-6.4,1.1-6.4,1.1
			s-2.2-1.1-2.2-3.7c0-2.8-0.4-5.4,1.1-4.6c1.5,0.7,4.6,1.1,4.2,2.6c-0.4,1.5,0.7,2.6,2.2,2c1.5-0.9,2.6-1.3,2.6-1.3l-5.7-7.8
			l-5.7-5.4L365.3,133L365.3,133z"/>
		<path class="xp40" d="M299.4,170.4c0-24.1,19.5-43.4,43.7-43.4c23.9,0,43.4,19.3,43.4,43.4c0,23.9-19.5,43.4-43.4,43.4
			C319,213.8,299.4,194.3,299.4,170.4"/>
		<path class="xp38" d="M278.6,173.5c4.8,1.1,8.6,2.6,11,5c3.3,3,5,6.9,5,11.7c0,3.5-1.1,6.7-3.5,10c-2.2,3.3-5.3,5.4-9,6.9
			c-3.9,1.5-9.9,2.2-17.8,2.2H231v-2.1h2.6c2.9,0,5-0.9,6.4-2.8c0.9-1.1,1.1-3.7,1.1-7.6v-45.4c0-4.3-0.4-7.2-1.3-8.2
			c-1.5-1.5-3.5-2.4-6.2-2.4H231v-1.9h30.5c5.7,0,10.3,0.4,13.8,1.3c5,1.3,9,3.5,11.9,6.7c2.6,3,4.2,6.7,4.2,10.9
			c0,3.5-1.1,6.7-3.3,9.6C285.9,170,282.8,172.2,278.6,173.5L278.6,173.5z M251.2,204.3c3.9,0.9,8.1,1.3,11.8,1.3
			c6.4,0,11.2-1.3,14.5-4.1c3.3-2.8,5-6.3,5-10.4c0-2.8-0.9-5.4-2.4-8c-1.3-2.4-3.9-4.3-7.2-5.9c-3.3-1.5-7.5-2.2-12.5-2.2h-5.5
			c-1.5,0.2-2.9,0.2-3.7,0.4L251.2,204.3L251.2,204.3z M251.2,170.7c1.3,0.2,2.9,0.4,4.4,0.7h5.5c5,0,8.8-0.4,11.4-1.5
			c2.5-1,4.6-2.7,5.9-5c1.3-2.4,2-4.8,2-7.4c0-4.1-1.8-7.6-5-10.6c-3.3-2.8-8.3-4.3-14.7-4.3c-3.5,0-6.6,0.4-9.4,1.3L251.2,170.7
			L251.2,170.7z"/>
	</g>
</g>
</svg>
