<?xml version="1.0" encoding="utf-8"?>

<svg version="1.1" xmlns="http://www.w3.org/2000/svg" xmlns:xlink="http://www.w3.org/1999/xlink" x="0px" y="0px"
	 viewBox="0 0 634.3 392" style="enable-background:new 0 0 634.3 392;" xml:space="preserve">
<style type="text/css">
	.xp41{fill:#FFDD05;}
</style>

<g id="Layer_2">
	<g>
		<path d="M55.6,265.1c-7.6,0-15.1-0.9-21.2-2.5l0.9-16c5.9,2.2,14.2,3.9,21.8,3.9c11.5,0,20.9-4.8,20.9-16.2
			c0-22.1-45.9-12.8-45.9-46.7c0-18.1,14.2-30.7,38.6-30.7c6.2,0,12.6,0.8,19,1.9l-0.9,15.1c-6.1-1.9-12.8-3-19-3
			c-13.1,0-19.8,6.1-19.8,14.8c0,21,45.9,13.2,45.9,46.1C95.9,251.1,80.7,265.1,55.6,265.1 M136.8,264.6c-4.4,0-7.6-0.1-11.7-0.9
			V297h-17V186h15.2c0,3.9-0.2,9.9-0.9,14h1.2c4.4-9.8,13.2-16,25.1-16c18.4,0,28.5,13.1,28.5,36.4c0,27.3-14.5,43.6-40.3,43.6
			 M144.3,198.3c-12.5,0-19.2,14.6-19.2,27.8V250c3.6,1.1,7.5,1.6,12.1,1.6c13.2,0,22.3-8.1,22.3-29
			C159.5,207,154.7,198.3,144.3,198.3L144.3,198.3z M231,201c-15.4-2.8-22.9,7.9-22.9,31.1V264h-17v-78h15.8c0,4.3-0.5,11.1-1.6,17
			h0.4c3.4-10.4,11.2-20.1,25.7-18.7l-0.8,16.3 M254.4,174.7c-5.9,0-10.7-4.7-10.7-10.4c0-5.8,4.8-10.4,10.7-10.4
			c5.8,0,10.6,4.5,10.6,10.4C265,170,260.2,174.7,254.4,174.7 M263.1,263h-17v-77h17V263L263.1,263z M331.1,264v-50.8
			c0-9.6-2.7-15.2-11.6-15.2c-11.8,0-20.4,12.3-20.4,27.6V263h-16v-77H299c0,4-0.3,10.7-1.1,15l0.2,0.1c4.5-9.9,13.9-16.7,27-16.7
			c17.6,0,23.1,11,23.1,24.6V263h-17 M393.6,264.9c-16.5,0-21.5-6.4-21.5-23.6V199h-15v-13h15v-24.6l17-4.5V186h20v13h-20v37.1
			c0,11.5,2.3,14.6,10,14.6c3.4,0,7.1-0.5,10-1.2v13.8c-4.5,0.9-10.3,1.7-15.4,1.7"/>
		<path class="xp41" d="M484.6,242.1c22.7-29.2,40.5-63.5,40.5-88.2c0-12.9-9.2-21.9-21.3-28.7C504.2,152,494.9,214.8,484.6,242.1
			 M410.2,314.1c53.2-17.8,130.3-59.2,183.9-96.3c4.5-3.1,8-6,8-11c0-8.7-16-20.5-23.8-25.1C536.1,225.5,452.2,291.2,410.2,314.1"/>
		<path class="xp41" d="M459.6,276.8c32.8-22.7,80.4-65.3,96.6-88.5c3.8-5.5,6.6-8.6,6.6-14.3c0-9.4-10.9-16.2-18.8-21
			C525.1,197.3,482.8,252.6,459.6,276.8 M489.4,213.9c4.2-28,1.7-61.9-3.7-83.1c-2.9-11.6-13.4-24.6-23-28.7
			C475.4,138,486.2,189.1,489.4,213.9"/>
		<path class="xp41" d="M480.1,174.6c-9.9-26.9-34.7-82.8-71.1-96.7C432.7,104.1,467.9,156,480.1,174.6"/>
	</g>
</g>
</svg>
