<?xml version="1.0" encoding="utf-8"?>

<svg version="1.1" xmlns="http://www.w3.org/2000/svg" xmlns:xlink="http://www.w3.org/1999/xlink" x="0px" y="0px"
	 viewBox="0 0 634.3 392" style="enable-background:new 0 0 634.3 392;" xml:space="preserve">
<style type="text/css">
	.xp58{fill:#ED1C2E;}
	.xp59{fill:#231F20;}
</style>

<g id="Layer_2">
	<g>
		<path class="xp58" d="M49.9,193.8c0-31.8,25.8-57.6,57.6-57.6c31.8,0,57.6,25.8,57.6,57.6c0,31.8-25.8,57.6-57.6,57.6
			C75.7,251.4,49.9,225.6,49.9,193.8L49.9,193.8L49.9,193.8z M107.5,232.1c21.1,0,38.3-17.1,38.3-38.3c0-21.1-17.1-38.2-38.3-38.2
			c-21.1,0-38.2,17.1-38.2,38.2C69.2,214.9,86.4,232.1,107.5,232.1L107.5,232.1L107.5,232.1z M107.5,213.3c11,0,19.9-8.9,19.9-19.9
			c0-11-8.9-19.9-19.9-19.9c-11,0-19.9,8.9-19.9,19.9C87.6,204.4,96.5,213.3,107.5,213.3L107.5,213.3L107.5,213.3z"/>
		<polygon class="xp59" points="184.1,152 249.1,152 249.1,169 227.1,169 227.1,235 207.1,235 207.1,169 184.1,169 184.1,152
			184.1,152 		"/>
		<path class="xp59" d="M311.1,152c0,0,13.7,0,37.8,0c22.4,0,25.5,15.3,25.5,24.3c0,13-11.2,19.5-12.2,19.8c0,0,9.8,3.7,9.8,14.8
			v15.7c0,6.3,3.9,8,4.5,9.5h-15.2c-7.6-0.9-7.4-7-7.4-10.4v-13.5c-0.2-3.3-1.2-7-8-7.1h-16v31h-20l1-83.5l0,0V152z M348.5,169
			h-18.4v16.6c0,0,14.4,0.1,16.5,0c5.8-0.1,10.2-2.7,10.2-8.3C356.8,171.1,353.1,169,348.5,169L348.5,169L348.5,169z"/>
		<polygon class="xp59" points="459.1,152 459.1,235 519.1,235 519.1,219 479.1,219 479.1,200 513.1,200 513.1,184 479.1,184
			479.1,169 519.1,169 519.1,152 459.1,152 459.1,152 		"/>
		<polygon class="xp59" points="522.1,169 545.1,169 545.1,235 565.1,235 565.1,169 589.1,169 589.1,152 522.1,152 522.1,169
			522.1,169 		"/>
		<path class="xp59" d="M259,152h21.3l29,83h-20.9l-5.9-17h-24.1l-5.6,17h-20.7L259,152L259,152L259,152z M270.1,181.6l-7.1,21.4
			h14.5L270.1,181.6L270.1,181.6L270.1,181.6z"/>
		<path class="xp59" d="M453.1,189h-36v16h17c0,3.3,0.5,6.6-3.5,11.3c-1.4,1.6-6,5.2-12.5,5.2c-5.5,0-9.4-1.6-12.8-4.5
			c-7.5-6.4-9.3-18.4-9.3-24.6c0-7.9,3.1-27.4,22.4-28.2c0,0,13-0.8,16.4,14.8h17.7c-0.4-7.9-9.5-30.1-34.2-30.1
			c-8.5,0-19.3,2.6-28.3,11.5c-6.5,6.5-12.3,17.4-12.3,32.7c0,16.7,6.1,27.5,11.7,33.4c9.8,10.4,19.8,11.2,24.9,11.2
			c4.1,0,11.9-0.6,22.1-7.5l2.7,4.6h14V189L453.1,189L453.1,189z"/>
	</g>
</g>
</svg>
