<?xml version="1.0" encoding="utf-8"?>

<svg version="1.1" xmlns="http://www.w3.org/2000/svg" xmlns:xlink="http://www.w3.org/1999/xlink" x="0px" y="0px"
	 viewBox="0 0 634.3 392" style="enable-background:new 0 0 634.3 392;" xml:space="preserve">
<style type="text/css">
	.xp42{fill:#F68712;}
	.xp43{fill:#173E7D;}
	.xp44{fill:#8F8B8D;}
</style>

<g id="Layer_2">
	<g>
		<path class="xp42" d="M71.6,55.8l102.1,102.1L71.6,260h144.5L420.3,55.8H71.6z"/>
		<path class="xp43" d="M420.9,56l-204,204h145.5l105.9-106h94.9V56H420.9z"/>
		<g>
			<path class="xp44" d="M71.6,259.6l102.1-102.1L71.6,55.5V259.6z M362.1,260h201V154h-95L362.1,260z"/>
			<path class="xp44" d="M73.1,288h13.7l10.5,16.1c0.6-1.3,0.8-1.6,2-3.5l8.3-12.6h13.9l-18.4,24.8V335h-12v-22L73.1,288z M136.1,296
				v13h9.9c1.7-0.1,7.2-0.2,7.2-6.6c0-6.1-4.4-6.3-6.9-6.4H136.1z M124.1,288h21.7c4.9,0.1,11.1,0.1,15.4,4.8
				c2.2,2.4,3.7,6.2,3.7,10.5c0,9.5-6.5,11.8-9.7,13l10.8,18.8h-13.1l-9.4-17h-7.5v17h-12V288z M213.4,324.4
				c-1.8,2.8-3.4,5.5-7.2,8.1c-3.9,2.7-8.5,4.2-13.3,4.2c-12.6,0-22.8-9.2-22.8-25.3c0-14.1,9.6-25.2,23-25.2
				c5.5,0,10.3,1.9,13.9,4.7c3.3,2.6,4.8,5.2,6.2,7.6l-9.4,4.7c-0.7-1.9-2-3.6-3.6-4.9c-1.8-1.5-4.1-2.4-6.5-2.4
				c-7.7,0-11.7,7.1-11.7,15.1c0,10.4,5.3,15.6,11.7,15.6c6.2,0,8.7-4.3,10.3-7.1L213.4,324.4z M267.4,288
				c1.4,5.1,2.8,10.1,4.3,15.2c2.7,9,3.1,10.5,4.5,19.6c1.4-9.3,1.8-10.9,3.9-20.5c1-4.8,2.1-9.6,3.1-14.3h11.6l-11.9,47h-12.1
				c-1.5-5.2-2.9-10.4-4.4-15.5c-2.6-8.6-2.7-9-4.1-15.6c-1.2,5.8-1.4,6.3-4,15.2l-4.5,15.8h-12.1l-11.9-47h11.7
				c5.1,22.3,5.6,24.8,7,35c1.7-9.3,2.2-11.1,4.7-20.4L257,288H267.4z M305.6,310.7c-1.3,2.1-1.8,4.5-1.8,6.9
				c0.1,5.6,2.7,10.5,8.5,10.5c5.6,0,8.3-4.5,8.3-10c0-3.9-0.9-7-2.9-8.8c-1.6-1.5-3.9-2.2-6.1-2C308.8,307.4,307,308.4,305.6,310.7
				z M331.2,317.6c0,8.9-5.1,18.7-18.9,18.7c-9.9,0-18.9-5.7-18.9-18.7c0-10.8,6.8-19.3,20.3-18.6
				C328,299.8,331.2,311.2,331.2,317.6L331.2,317.6z M347,303.7c2.3-2,4.8-3.5,10.2-4v8.8l-3.8,0.6c-5.5,1-7.2,1.8-7.2,6.7V335h-10
				v-35h10L347,303.7z M361.1,335h10v-47h-10V335z M400.5,317.7c0-1.6,0-6-2.2-8.7c-1-1.2-2.5-2-4-2.1c-7.3-0.2-7.3,9.2-7.3,10.8
				c0,4.9,1.3,11,6.6,10.9c1.2,0,2.4-0.4,3.4-1.1C400.5,325,400.5,319.6,400.5,317.7z M410.1,288v47h-9v-3.1
				c-1.9,1.6-4.5,4.2-9.7,4.2c-3.5,0-7.1-1.4-9.9-4c-5.1-4.9-5.1-12-5.1-14.3c0-13.3,7.5-18.7,14.6-18.7c4.6,0,9.1,3.6,9.1,3.6V288
				H410.1z M424.5,300l4.9,24.5l5.3-24.5h11l4.8,24.7L456,300h10.7l-10.5,35H445l-5.2-23.3l-5.2,23.3h-11.3l-9.6-35H424.5z
				 M470.1,300h10v35h-10V300z M470.1,288h10v8h-10V288z M510.1,317.7c0-1.6,0-6-2.2-8.7c-1-1.2-2.4-2-4-2.1
				c-7.3-0.2-7.3,9.2-7.3,10.8c0,4.9,1.3,10.9,6.6,10.9c1.1,0,2.4-0.4,3.4-1.1C510.1,325,510.1,319.6,510.1,317.7z M520.1,288v47
				h-10v-3.1c-1.2,1.6-3.9,4.2-9.1,4.2c-3.5,0-7.1-1.4-9.9-4c-5.1-4.9-5.1-12-5.1-14.3c0-13.3,7.5-18.7,14.6-18.7
				c4.6,0,10.5,3.6,10.5,3.6V288H520.1z M550.3,313c-0.2-1.5-0.5-3.4-2-5c-2.9-2.7-7.6-2.6-10.3,0.3c-1.4,1.5-1.7,3.2-2.1,4.6H550.3
				z M560.6,326.5c-1.2,1.9-2.6,3.7-4.2,5.3c-3.6,3.3-8.4,5-13.3,5c-10.4-0.1-17.8-6.7-17.8-18.2c0-8.5,4.2-19.4,18-19.4
				c2.1,0,8.2,0.2,12.7,5c4.6,4.9,4.8,11.8,5,15.8h-25.1c-0.1,4.4,2.4,8.7,8,8.7c5.7,0,7.6-3.7,8.9-6.2L560.6,326.5z"/>
		</g>
	</g>
</g>
</svg>
